<svg width="65" height="65" viewBox="0 0 65 65" fill="none" xmlns="http://www.w3.org/2000/svg">
<path fill-rule="evenodd" clip-rule="evenodd" d="M38.6736 62.4856C40.7009 62.9824 40.2366 60.7803 38.2821 60.0251C9.34656 49.5026 15.6003 17.5097 40.0575 7.81464C39.5452 9.32594 37.7885 10.7518 35.7818 12.1538C34.9842 12.696 37.3118 15.3741 38.5975 14.6453C41.1268 12.6301 43.6377 10.5256 46.1392 8.34387C47.9079 6.80657 50.0124 4.53984 45.83 3.84432C41.5107 3.22955 37.1915 2.61477 32.8722 2C31.3442 2.0366 31.5083 3.81264 33.43 4.53565C34.6036 4.83125 35.7773 5.12685 36.9509 5.42245C6.2077 18.8167 11.4597 53.8584 38.6736 62.4856Z" fill="#C2CCD1"/>
</svg>
