<svg width="131" height="121" viewBox="0 0 131 121" fill="none" xmlns="http://www.w3.org/2000/svg">
<path fill-rule="evenodd" clip-rule="evenodd" d="M104.098 83.9082V84.0471L101.436 86.6866C101.156 86.9644 100.876 87.2423 100.595 87.3812L65.5687 121L30.542 87.3812C30.2618 87.1033 29.9816 86.8255 29.7013 86.5476L27.0393 84.0471V83.9082C18.9131 74.7394 14.4297 62.9311 14.4297 50.5672C14.4297 22.6441 37.2671 0 65.5687 0C93.7302 0 116.708 22.6441 116.708 50.7061C116.568 62.9311 112.084 74.7394 104.098 83.9082Z" fill="white"/>
<path fill-rule="evenodd" clip-rule="evenodd" d="M65.5691 8.47418C89.107 8.47418 108.162 27.3674 108.162 50.7061C108.162 62.9311 102.978 73.9059 94.7113 81.5465L65.7092 109.331L36.4268 81.5465C28.1605 73.9059 22.9766 62.9311 22.9766 50.7061C22.9766 27.3674 42.0311 8.47418 65.5691 8.47418Z" fill="#FF9500"/>
<path fill-rule="evenodd" clip-rule="evenodd" d="M65.5703 8.47418C89.1083 8.47418 108.163 27.3674 108.163 50.7061C108.163 62.9311 102.979 73.9059 94.7126 81.5465L65.7104 109.331V8.47418H65.5703Z" fill="black" fill-opacity="0.1"/>
<path fill-rule="evenodd" clip-rule="evenodd" d="M131 71.6831H106.762V94.8829H131L122.314 83.2135L131 71.6831Z" fill="#0055D5"/>
<path fill-rule="evenodd" clip-rule="evenodd" d="M116.99 85.0195H106.762V94.8829L116.99 85.0195Z" fill="#043D93"/>
<path fill-rule="evenodd" clip-rule="evenodd" d="M0 71.6831H24.3786V94.8829H0L8.68663 83.2135L0 71.6831Z" fill="#0055D4"/>
<path fill-rule="evenodd" clip-rule="evenodd" d="M14.1523 85.0195H24.3801V94.8829L14.1523 85.0195Z" fill="#043D93"/>
<g filter="url(#filter0_d)">
<rect x="19" y="69" width="93" height="16" fill="#C4C4C4"/>
</g>
<path d="M117 62H14V85H117V62Z" fill="#0066FF"/>
<path d="M39.6523 37.3697V22.783H45.9572C47.4983 22.783 48.6192 23.0609 49.3197 23.7555C50.0203 24.4501 50.4406 25.2836 50.4406 26.395C50.4406 27.7842 49.8802 28.8955 48.6192 29.3123C49.4598 29.5901 50.0203 30.0069 50.5807 30.7015C51.001 31.3961 51.2812 32.0907 51.2812 32.9242C51.2812 34.3135 50.8609 35.4248 49.8801 36.1194C48.8994 36.814 47.7785 37.2308 46.0973 37.2308H39.6523V37.3697ZM42.5946 28.7566H45.6769C46.2374 28.7566 46.6577 28.6177 47.078 28.3399C47.4983 28.062 47.6384 27.6453 47.6384 27.0896C47.6384 26.5339 47.4983 26.1171 47.078 25.8393C46.6577 25.5614 46.2374 25.4225 45.5368 25.4225H42.5946V28.7566ZM42.5946 34.7302H46.0973C46.7978 34.7302 47.3582 34.5913 47.7785 34.3135C48.1989 34.0356 48.339 33.4799 48.339 32.9242C48.339 32.3686 48.1989 31.9518 47.6384 31.674C47.2181 31.3961 46.6577 31.2572 45.9572 31.2572H42.5946V34.7302ZM54.2235 37.3697V22.783H64.031V25.4225H57.1657V28.6177H63.0502V31.2572H57.1657V34.7302H64.1711V37.3697H54.2235ZM72.2973 37.5086C70.8962 37.5086 69.7753 37.2308 68.7946 36.814C67.8138 36.2583 66.9732 35.5637 66.2727 34.7302L68.2342 32.6464C68.9347 33.6188 69.6352 34.1745 70.3358 34.5913C71.0363 34.8691 71.7368 35.147 72.5775 35.147C73.278 35.147 73.8384 35.0081 74.2588 34.7302C74.6791 34.4524 74.9593 34.0356 74.9593 33.6188C74.9593 33.0632 74.6791 32.6464 74.1187 32.2296C73.5582 31.9518 72.7176 31.674 71.8769 31.3961C70.3358 31.1183 69.0748 30.5626 68.3743 29.7291C67.5336 29.0345 67.2534 28.062 67.2534 26.8117C67.2534 25.9782 67.5336 25.1447 67.9539 24.589C68.5144 23.8944 69.0748 23.4776 69.9154 23.0609C70.7561 22.6441 71.5967 22.5052 72.5775 22.5052C73.8384 22.5052 74.9593 22.783 75.7999 23.1998C76.6406 23.6166 77.3411 24.3112 77.9015 25.0058L75.6598 26.9507C74.8192 25.7004 73.6983 25.1447 72.2973 25.1447C71.5967 25.1447 71.0363 25.2836 70.616 25.5614C70.1957 25.8393 69.9154 26.256 69.9154 26.6728C69.9154 27.2285 70.1957 27.6453 70.616 27.9231C71.1764 28.2009 71.7368 28.4788 72.5775 28.6177C74.1187 28.8955 75.3796 29.4512 76.2203 30.1458C77.0609 30.8404 77.6213 31.8129 77.6213 32.9242C77.6213 33.8967 77.3411 34.7302 76.9208 35.4248C76.5005 36.1194 75.7999 36.6751 74.9593 36.9529C74.3989 37.3697 73.4181 37.5086 72.2973 37.5086ZM83.786 37.3697V25.4225H79.4427V22.6441H91.2117V25.4225H86.8684V37.3697H83.786Z" fill="white"/>
<path d="M38.1094 56.4018V41.8151H44.9746C45.9554 41.8151 46.9361 41.9541 47.7768 42.3708C48.6174 42.7876 49.1778 43.3433 49.5981 44.0379C50.0185 44.7325 50.2987 45.566 50.2987 46.3995C50.2987 47.372 50.0185 48.3444 49.5981 49.039C49.1778 49.8725 48.4773 50.4282 47.6366 50.845L50.8591 56.4018H45.8153L43.0131 51.5396H42.3126V56.4018H38.1094ZM42.3126 48.4833H44.2741C44.8345 48.4833 45.2548 48.3444 45.3949 48.0666C45.6752 47.7887 45.8153 47.372 45.8153 46.9552C45.8153 46.5384 45.6752 46.1217 45.3949 45.8438C45.1147 45.566 44.6944 45.4271 44.134 45.4271H42.3126V48.4833ZM50.8591 56.4018L56.7436 41.8151H60.3864L66.2709 56.4018H61.7874L60.9468 54.1791H56.0431L55.2024 56.4018H50.8591ZM57.7243 50.0115L57.304 51.1228H59.826L59.4056 50.0115C59.2655 49.4558 58.9853 49.039 58.8452 48.6222C58.7051 48.2055 58.565 47.9276 58.565 47.5109C58.4249 47.9276 58.2848 48.2055 58.1447 48.6222C58.1447 49.039 57.8645 49.4558 57.7243 50.0115ZM70.0538 56.4018V45.566H65.5703V41.6762H79.3008V45.566H74.6773V56.4018H70.0538ZM81.5425 56.4018V41.8151H92.611V45.4271H85.8858V47.233H91.7703V50.7061H85.8858V52.7899H92.8912V56.4018H81.5425Z" fill="white"/>
<path d="M28.1613 80.4351C29.5623 80.4351 30.5431 79.8794 31.3837 78.7681V73.0723H27.8811V74.8783H29.5623V77.7956C29.2821 78.2124 28.8618 78.4902 28.3014 78.4902C27.1805 78.4902 26.48 76.6843 26.48 73.3502C26.48 70.0161 27.0404 68.2101 28.3014 68.2101C29.142 68.2101 29.4222 68.9047 29.7025 69.8771L31.3837 69.1825C30.9634 67.6544 29.9827 66.2652 28.1613 66.2652C25.4992 66.2652 24.2383 69.0436 24.2383 73.2112C24.2383 77.5178 25.4992 80.4351 28.1613 80.4351ZM37.1281 80.4351C39.0896 80.4351 40.6308 79.1848 40.6308 76.4064V66.682H38.5292V76.5453C38.5292 78.0735 37.9688 78.4902 37.1281 78.4902C36.2875 78.4902 35.7271 77.9345 35.7271 76.5453V66.682H33.6254V76.4064C33.4853 79.1848 35.1666 80.4351 37.1281 80.4351ZM49.7377 80.1573L46.9356 66.682H44.5538L41.7516 80.1573H43.9934L44.4137 77.3789H47.0757L47.496 80.1573H49.7377ZM46.9356 75.5729H44.6939L45.8148 69.0436L46.9356 75.5729ZM58.0041 80.1573L56.0426 74.4615C56.8832 74.0448 57.8639 73.0723 57.8639 70.7107C57.8639 68.2101 56.4629 66.682 54.3613 66.682H50.9987V80.1573H53.1003V75.0172H54.0811L55.6222 80.1573H58.0041ZM54.0811 73.2112H53.1003V68.6269H54.0811C55.2019 68.6269 55.7623 69.5993 55.7623 70.9885C55.6222 72.2388 55.0618 73.2112 54.0811 73.2112ZM66.8308 80.1573L64.0287 66.682H61.6468L58.8447 80.1573H61.0864L61.5067 77.3789H64.1688L64.5891 80.1573H66.8308ZM63.8885 75.5729H61.6468L62.7677 69.0436L63.8885 75.5729ZM75.0971 80.1573V66.682H72.9955V74.1837L70.1934 66.682H68.0918V80.1573H70.1934V72.3777L73.1356 80.1573H75.0971ZM80.8415 80.1573V68.4879H82.9431V66.682H76.6383V68.4879H78.7399V80.1573H80.8415ZM90.0885 80.1573V78.3513H86.5859V74.3226H89.9484V72.5166H86.5859V68.6269H90.0885V66.682H84.4843V80.1573H90.0885ZM97.5142 80.1573V78.3513H94.0115V74.3226H97.3741V72.5166H94.0115V68.6269H97.5142V66.682H91.9099V80.1573H97.5142ZM102.558 80.1573C105.64 80.1573 106.901 77.3789 106.901 73.4891C106.901 69.5993 105.64 66.682 102.558 66.682H99.4757V80.1573H102.558ZM102.558 78.3513H101.577V68.6269H102.558C104.099 68.6269 104.66 70.4328 104.66 73.4891C104.66 76.4064 103.959 78.3513 102.558 78.3513Z" fill="white"/>
<defs>
<filter id="filter0_d" x="11" y="69" width="109" height="32" filterUnits="userSpaceOnUse" color-interpolation-filters="sRGB">
<feFlood flood-opacity="0" result="BackgroundImageFix"/>
<feColorMatrix in="SourceAlpha" type="matrix" values="0 0 0 0 0 0 0 0 0 0 0 0 0 0 0 0 0 0 127 0"/>
<feOffset dy="8"/>
<feGaussianBlur stdDeviation="4"/>
<feColorMatrix type="matrix" values="0 0 0 0 0 0 0 0 0 0 0 0 0 0 0 0 0 0 0.5 0"/>
<feBlend mode="normal" in2="BackgroundImageFix" result="effect1_dropShadow"/>
<feBlend mode="normal" in="SourceGraphic" in2="effect1_dropShadow" result="shape"/>
</filter>
</defs>
</svg>