<svg width="80" height="80" viewBox="0 0 80 80" fill="none" xmlns="http://www.w3.org/2000/svg">
<g opacity="0.2">
<path d="M41.4284 10.7619L44.0315 7.72484C42.5336 6.44088 40.3232 6.44088 38.8252 7.72484L41.4284 10.7619ZM10.7617 37.0476L8.15855 34.0106L6.76172 35.2078V37.0476H10.7617ZM32.6665 72.0952V76.0952C34.8756 76.0952 36.6665 74.3043 36.6665 72.0952H32.6665ZM50.1903 72.0952H46.1903C46.1903 74.3043 47.9811 76.0952 50.1903 76.0952V72.0952ZM72.095 37.0476H76.095V35.2078L74.6982 34.0106L72.095 37.0476ZM15.1427 76.0952H32.6665V68.0952H15.1427V76.0952ZM74.6982 34.0106L44.0315 7.72484L38.8252 13.7989L69.4919 40.0846L74.6982 34.0106ZM38.8252 7.72484L8.15855 34.0106L13.3649 40.0846L44.0315 13.7989L38.8252 7.72484ZM36.6665 72.0952V58.9523H28.6665V72.0952H36.6665ZM46.1903 58.9523V72.0952H54.1903V58.9523H46.1903ZM50.1903 76.0952H67.7141V68.0952H50.1903V76.0952ZM76.095 67.7142V37.0476H68.095V67.7142H76.095ZM6.76172 37.0476V67.7142H14.7617V37.0476H6.76172ZM41.4284 54.1904C44.0583 54.1904 46.1903 56.3224 46.1903 58.9523H54.1903C54.1903 51.9041 48.4766 46.1904 41.4284 46.1904V54.1904ZM41.4284 46.1904C34.3802 46.1904 28.6665 51.9041 28.6665 58.9523H36.6665C36.6665 56.3224 38.7985 54.1904 41.4284 54.1904V46.1904ZM67.7141 76.0952C72.3428 76.0952 76.095 72.3429 76.095 67.7142H68.095C68.095 67.9246 67.9245 68.0952 67.7141 68.0952V76.0952ZM15.1427 68.0952C14.9323 68.0952 14.7617 67.9246 14.7617 67.7142H6.76172C6.76172 72.3429 10.514 76.0952 15.1427 76.0952V68.0952Z" fill="#73C047"/>
</g>
</svg>
