<svg width="71" height="63" viewBox="0 0 71 63" fill="none" xmlns="http://www.w3.org/2000/svg">
<path fill-rule="evenodd" clip-rule="evenodd" d="M1.02846 30.2303C0.30271 47.0984 13.5477 61.2458 30.24 61.9714C42.9407 62.5155 54.0084 55.2604 59.0887 44.3777L54.0084 40.7502C50.1982 49.8191 40.9449 56.1673 30.4215 55.6231C16.995 55.079 6.47161 43.8336 7.01592 30.2303C7.56024 16.8083 18.8094 6.28841 32.4173 6.83254C43.8479 7.37667 53.1012 15.5387 55.2785 26.24L49.1096 22.2496L45.8437 27.3282L59.9959 36.5785L69.6121 21.7055L64.5318 18.4407L60.9031 24.0634C58.0001 11.367 46.5694 1.57259 32.7801 1.02845C15.9064 0.302943 1.75422 13.5435 1.02846 30.2303Z" stroke="#73C047" stroke-width="2" stroke-miterlimit="10"/>
</svg>
