<svg width="49" height="49" viewBox="0 0 49 49" fill="none" xmlns="http://www.w3.org/2000/svg">
<g clip-path="url(#clip0)">
<path fill-rule="evenodd" clip-rule="evenodd" d="M46.3534 49H2.6466C1.20988 49 0 47.7901 0 46.3534V2.6466C0 1.20988 1.20988 0 2.6466 0H46.429C47.8657 0 49.0756 1.20988 49.0756 2.6466V46.3534C49 47.7901 47.7901 49 46.3534 49ZM5.44444 5.52006H43.5555V43.4799H5.44444V5.52006ZM27.1466 14.9722C27.1466 16.4846 28.3565 17.6944 29.8688 17.6944H38.2623C39.7747 17.6944 40.9846 16.4846 40.9846 14.9722C40.9846 13.4599 39.7747 12.25 38.2623 12.25H29.8688C28.3565 12.25 27.1466 13.5355 27.1466 14.9722ZM8.09105 14.9722C8.09105 16.4846 9.30093 17.6944 10.8133 17.6944H12.3256V19.1312C12.3256 20.6435 13.5355 21.8534 15.0478 21.8534C16.5602 21.8534 17.7701 20.6435 17.7701 19.1312V17.6944H19.2068C20.7191 17.6944 21.929 16.4846 21.929 14.9722C21.929 13.4599 20.7191 12.25 19.2068 12.25H17.7701V10.8133C17.7701 9.30093 16.5602 8.09105 15.0478 8.09105C13.5355 8.09105 12.3256 9.30093 12.3256 10.8133V12.25H10.8133C9.30093 12.25 8.09105 13.5355 8.09105 14.9722ZM10.1327 29.1127C9.07407 30.1713 9.07407 31.9105 10.1327 32.9691L11.1914 34.0278L10.1327 35.0864C9.07407 36.1451 9.07407 37.8843 10.1327 38.9429C11.1914 40.0015 12.9306 40.0015 13.9892 38.9429L15.0478 37.8843L16.1065 38.9429C17.1651 40.0015 18.9043 40.0015 19.963 38.9429C21.0216 37.8843 21.0216 36.1451 19.963 35.0864L18.8287 34.0278L19.8873 32.9691C20.946 31.9105 20.946 30.1713 19.8873 29.1127C18.8287 28.054 17.0895 28.054 16.0309 29.1127L14.9722 30.1713L13.9136 29.1127C12.8549 28.054 11.1157 28.054 10.1327 29.1127ZM27.1466 29.8688C27.1466 31.3812 28.3565 32.591 29.8688 32.591H38.2623C39.7747 32.591 40.9846 31.3812 40.9846 29.8688C40.9846 28.3565 39.7747 27.1466 38.2623 27.1466H29.8688C28.3565 27.071 27.1466 28.3565 27.1466 29.8688ZM27.1466 38.1867C27.1466 39.6991 28.3565 40.9089 29.8688 40.9089H38.2623C39.7747 40.9089 40.9846 39.6991 40.9846 38.1867C40.9846 36.6744 39.7747 35.4645 38.2623 35.4645H29.8688C28.3565 35.4645 27.1466 36.6744 27.1466 38.1867Z" fill="#E3F2DA"/>
</g>
</svg>