<svg width="24" height="25" viewBox="0 0 24 25" fill="none" xmlns="http://www.w3.org/2000/svg">
<path fill-rule="evenodd" clip-rule="evenodd" d="M1.33333 0.5H6C6.73333 0.5 7.33333 1.1 7.33333 1.83333C7.33333 3.5 7.6 5.1 8.09333 6.59333C8.24 7.06 8.13333 7.58 7.76 7.95333L4.82667 10.8867C6.74667 14.66 9.84 17.74 13.6133 19.6733L16.5467 16.74C16.8133 16.4867 17.1467 16.3533 17.4933 16.3533C17.6267 16.3533 17.7733 16.3667 17.9067 16.42C19.4 16.9133 21.0133 17.18 22.6667 17.18C23.4 17.18 24 17.78 24 18.5133V23.1667C24 23.9 23.4 24.5 22.6667 24.5C10.1467 24.5 0 14.3533 0 1.83333C0 1.1 0.6 0.5 1.33333 0.5ZM4.72 3.16667C4.8 4.35333 5 5.51333 5.32 6.62L3.72 8.22C3.17333 6.62 2.82667 4.92667 2.70667 3.16667H4.72ZM17.8667 19.1933C19 19.5133 20.16 19.7133 21.3333 19.7933V21.78C19.5733 21.66 17.88 21.3133 16.2667 20.78L17.8667 19.1933Z" fill="white"/>
</svg>
