<svg width="72" height="76" viewBox="0 0 72 76" fill="none" xmlns="http://www.w3.org/2000/svg">
<path fill-rule="evenodd" clip-rule="evenodd" d="M39 33C38.4477 33 38 33.4477 38 34V37L35 37C34.4477 37 34 37.4477 34 38C34 38.5523 34.4477 39 35 39H38V42C38 42.5523 38.4477 43 39 43C39.5523 43 40 42.5523 40 42V39H43C43.5523 39 44 38.5523 44 38C44 37.4477 43.5523 37 43 37L40 37V34C40 33.4477 39.5523 33 39 33Z" fill="white"/>
<path d="M71 21.1163C64.892 9.17452 52.3978 1 37.9994 1C17.5662 1 1 17.4509 1 37.7417C1 58.0325 17.5662 74.4834 37.9994 74.4834C52.4124 74.4834 64.892 66.3089 71 54.3671" stroke="white" stroke-width="2" stroke-miterlimit="10"/>
</svg>
