<svg width="29" height="22" viewBox="0 0 29 22" fill="none" xmlns="http://www.w3.org/2000/svg">
<path fill-rule="evenodd" clip-rule="evenodd" d="M2.1748 3.98904V3.8928C2.22553 2.93132 2.94713 2.23926 3.85177 2.23926H25.0877C26.0027 2.23926 26.7647 2.99871 26.7647 3.93574V4.01756L14.4703 10.0125L2.1748 3.98904ZM2.1748 5.65936V18.1253C2.1748 19.0624 2.93681 19.8218 3.85177 19.8218H25.0877C26.0027 19.8218 26.7647 19.0624 26.7647 18.1253V5.68638L14.4687 11.682L2.1748 5.65936ZM3.85177 0.739258C2.09162 0.739258 0.753195 2.11923 0.675566 3.84079L0.674805 3.85768V18.1253C0.674805 19.8794 2.09707 21.3218 3.85177 21.3218H25.0877C26.8424 21.3218 28.2647 19.8794 28.2647 18.1253V3.93574C28.2647 2.18164 26.8424 0.739258 25.0877 0.739258H3.85177Z" fill="white" fill-opacity="0.5"/>
</svg>
