<svg width="10" height="20" viewBox="0 0 10 20" fill="none" xmlns="http://www.w3.org/2000/svg">
<path d="M8.62444 0H6.54119C4.94733 0 3.8025 0.37833 3.10674 1.13473C2.41077 1.89139 2.06309 3.00575 2.06309 4.47828V5.8819C2.06309 6.25284 1.76245 6.55348 1.39151 6.55348H0.671578C0.300637 6.55348 0 6.85412 0 7.22506V9.32842C0 9.69936 0.300637 10 0.671578 10H1.39151C1.76245 10 2.06309 10.3006 2.06309 10.6716V19.3284C2.06309 19.6994 2.36373 20 2.73467 20H5.52976C5.9007 20 6.20134 19.6993 6.20134 19.3284V10.6716C6.20134 10.3006 6.50202 10 6.87292 10H8.28455C8.65553 10 8.98773 9.70097 9.02669 9.33226L9.24963 7.22125C9.28859 6.85236 9.01952 6.55348 8.64854 6.55348H6.8727C6.50176 6.55348 6.20112 6.25284 6.20112 5.8819V4.8302C6.20112 4.57141 6.21323 4.37107 6.23759 4.22937C6.26177 4.08788 6.31638 3.94841 6.40146 3.81073C6.48629 3.6733 6.62397 3.57816 6.81403 3.52553C7.00405 3.47293 7.25703 3.44652 7.57244 3.44652H8.62414C8.99508 3.44652 9.29568 3.14588 9.29568 2.77494V0.671578C9.29598 0.300637 8.99534 0 8.62444 0Z" fill="#C4C4C4"/>
</svg>
