<svg width="42" height="49" viewBox="0 0 42 49" fill="none" xmlns="http://www.w3.org/2000/svg">
<path d="M19.5166 22.1989L23.6184 8.70588C24.057 7.29655 23.2572 5.80892 21.89 5.36525C20.4969 4.94767 19.0264 5.73063 18.6136 7.11386L12.6802 26.5574" stroke="white" stroke-width="2" stroke-miterlimit="10"/>
<path d="M24.5217 23.8952L24.986 22.3293C25.3988 20.92 24.6249 19.4323 23.2576 19.0148C23.0254 18.9365 22.7932 18.8843 22.561 18.8843" stroke="white" stroke-width="2" stroke-miterlimit="10"/>
<path d="M29.3713 25.9049L29.7582 24.6C30.1452 23.3472 29.4487 22.0162 28.2104 21.6247C27.746 21.4681 27.2559 21.4942 26.7915 21.6247" stroke="white" stroke-width="2" stroke-miterlimit="10"/>
<path d="M24.96 47.8278C25.0889 47.4363 25.1921 47.0448 25.3211 46.6533C25.9403 44.5132 28.907 43.7042 29.552 41.7729L33.8602 27.6274C34.2729 26.2181 33.499 24.7304 32.1317 24.3129C31.9253 24.2346 31.719 24.2085 31.5126 24.1824" stroke="white" stroke-width="2" stroke-miterlimit="10"/>
<path d="M12.319 20.2416C11.8546 19.7719 11.2097 19.4587 10.5131 19.4326C9.06845 19.3804 7.85596 20.5548 7.80436 22.0164C7.72697 24.835 7.62378 27.6537 7.54639 30.4462C7.70117 34.3088 12.1384 41.3033 11.545 43.9914C11.1839 45.1659 11.0033 45.74 10.6421 46.9145" stroke="white" stroke-width="2" stroke-miterlimit="10"/>
<path d="M15.5438 9.74994C15.3116 9.12357 15.1826 8.445 15.1826 7.71424C15.2084 4.45191 17.7882 1.84204 20.9871 1.84204C24.186 1.84204 26.7916 4.47801 26.7916 7.71424C26.7916 9.43675 26.0434 11.0027 24.8568 12.0727" stroke="white" stroke-width="2" stroke-miterlimit="10"/>
<path d="M15.2081 7.71411H5.94678" stroke="white" stroke-width="2" stroke-miterlimit="10"/>
<path d="M5.53428 3.2251L2 7.71407L5.53428 12.1769" stroke="white" stroke-width="2" stroke-miterlimit="10"/>
<path d="M26.7915 7.71411H36.0271" stroke="white" stroke-width="2" stroke-miterlimit="10"/>
<path d="M36.4658 3.2251L40.0001 7.71407L36.4658 12.1769" stroke="white" stroke-width="2" stroke-miterlimit="10"/>
</svg>
