<svg width="22" height="22" viewBox="0 0 22 22" fill="none" xmlns="http://www.w3.org/2000/svg">
<path fill-rule="evenodd" clip-rule="evenodd" d="M10.5 2C14.6447 2 18 5.24668 18 9.25729C18 10.3554 17.7533 11.4058 17.3092 12.313C16.273 14.748 13.3125 17.8037 10.5 20C7.6875 17.8037 4.72697 14.748 3.69079 12.313C3.24671 11.3581 3 10.3554 3 9.25729C3 5.24668 6.35526 2 10.5 2ZM10.5 6.58355C12.0296 6.58355 13.2632 7.77719 13.2632 9.25729C13.2632 10.7374 12.0296 11.931 10.5 11.931C8.97039 11.931 7.73684 10.7374 7.73684 9.25729C7.73684 7.77719 8.97039 6.58355 10.5 6.58355Z" stroke="white" stroke-width="1.5"/>
</svg>
