<svg width="46" height="37" viewBox="0 0 46 37" fill="none" xmlns="http://www.w3.org/2000/svg">
<path fill-rule="evenodd" clip-rule="evenodd" d="M24.1311 0.540883L45.4613 21.6374C46.2155 22.3947 46.2155 23.4766 45.4613 24.2339C44.7073 24.9912 43.63 24.9912 42.8759 24.2339L40.3981 21.7456V35.5935C40.3981 36.3508 39.7518 36.9999 38.9977 36.9999H30.0562H15.4051H7.00234C6.24824 36.9999 5.60187 36.3508 5.60187 35.5935V21.7456L3.01639 24.3421C2.26229 24.9912 1.18501 24.9912 0.430909 24.3421C-0.215461 23.6929 -0.32319 22.6111 0.32318 21.9619C3.4473 18.8245 6.57142 15.6871 9.80327 12.4415V5.73387C9.80327 4.65199 10.6651 3.7865 11.7424 3.7865C12.8197 3.7865 13.6815 4.65199 13.6815 5.73387V8.43854C16.267 5.84205 18.9602 3.13737 21.5457 0.540883C22.2998 -0.216427 23.377 -0.216427 24.1311 0.540883ZM15.4051 34.0789V23.8011C15.4051 20.9882 17.6674 18.8245 20.3606 18.8245H24.993C27.7939 18.8245 29.9485 21.0964 29.9485 23.8011V34.1871H37.3817V18.8245L22.9461 4.32743L8.51053 18.8245V34.0789H15.4051ZM27.1475 34.0789V23.8011C27.1475 22.6111 26.178 21.6374 24.993 21.6374H20.3606C19.1756 21.6374 18.2061 22.6111 18.2061 23.8011V34.1871H27.1475V34.0789Z" fill="#73C047"/>
</svg>
