<svg width="80" height="80" viewBox="0 0 80 80" fill="none" xmlns="http://www.w3.org/2000/svg">
<g opacity="0.2">
<path fill-rule="evenodd" clip-rule="evenodd" d="M69.9997 30H48.9663L52.133 14.7667L52.233 13.7C52.233 12.3333 51.6663 11.0667 50.7663 10.1667L47.233 6.66667L25.2997 28.6333C24.0663 29.8333 23.333 31.5 23.333 33.3333V66.6667C23.333 70.3333 26.333 73.3333 29.9997 73.3333H59.9997C62.7663 73.3333 65.133 71.6667 66.133 69.2667L76.1997 45.7667C76.4997 45 76.6663 44.2 76.6663 43.3333V36.6667C76.6663 33 73.6663 30 69.9997 30ZM69.9998 43.3333L59.9998 66.6667H29.9998V33.3333L44.4664 18.8667L40.7664 36.6667H69.9998V43.3333ZM16.6663 33.3333H3.33301V73.3334H16.6663V33.3333Z" fill="#73C047"/>
</g>
</svg>
