<svg width="40" height="41" viewBox="0 0 40 41" fill="none" xmlns="http://www.w3.org/2000/svg">
<g clip-path="url(#clip0)">
<path fill-rule="evenodd" clip-rule="evenodd" d="M20.2264 0L0 11.5111V15.6701H3.09934V29.9723H36.8453V15.6701H40V11.6243L20.2264 0ZM32.9585 26.3287H7.21011V11.9711L20.224 4.33474L32.9561 11.9711V26.3287H32.9585Z" fill="white"/>
<path fill-rule="evenodd" clip-rule="evenodd" d="M13.3029 17.4376V13.9048H26.767V17.4376H13.3029Z" fill="white"/>
<path fill-rule="evenodd" clip-rule="evenodd" d="M13.3029 19.1667H26.767V22.6996H13.3029V19.1667Z" fill="white"/>
<path fill-rule="evenodd" clip-rule="evenodd" d="M23.003 36.4407H20.6357V40.9416H22.9452C24.8043 40.9416 25.876 40.5418 25.876 38.7766C25.876 36.9536 24.6911 36.4407 23.003 36.4407ZM22.8874 39.9711H21.8736V37.4064H23.0006C23.7905 37.4064 24.5226 37.8615 24.5226 38.7742C24.5226 39.8001 23.8459 39.9711 22.8874 39.9711Z" fill="white"/>
<path fill-rule="evenodd" clip-rule="evenodd" d="M36.7586 39.0607C37.6039 38.9476 37.9988 38.6056 37.9988 37.8639C37.9988 36.838 37.4907 36.4382 36.2529 36.4382H32.985V40.9391H34.2252V39.0583H35.4076L36.7032 40.9391H38.0566L36.7586 39.0607ZM36.0217 38.0975H34.218V37.4135H36.0771C36.5852 37.4135 36.8092 37.4713 36.8092 37.7555C36.8092 38.0975 36.6406 38.0975 36.0217 38.0975Z" fill="white"/>
<path fill-rule="evenodd" clip-rule="evenodd" d="M13.8423 36.4407V40.9416H15.0271V38.2059L17.392 40.9416H18.8007V36.4407H17.6183V39.2318L15.2511 36.4407H13.8423Z" fill="white"/>
<path fill-rule="evenodd" clip-rule="evenodd" d="M2.22754 36.4407V40.9416H6.67787V39.9735L3.46776 39.9157V36.4407H2.22754Z" fill="white"/>
<path fill-rule="evenodd" clip-rule="evenodd" d="M7.95178 40.9416H12.2913V39.9735H9.24739V39.0054H11.7832V38.0927H9.24739V37.4088H12.2913V36.4407H7.95178V40.9416Z" fill="white"/>
<path fill-rule="evenodd" clip-rule="evenodd" d="M27.2631 36.4407V40.9416L31.5448 40.8838V39.9735H28.5009V39.0054H31.0921V38.0927H28.5009V37.4088H31.5448V36.4407H27.2631Z" fill="white"/>
<path fill-rule="evenodd" clip-rule="evenodd" d="M13.1415 31.2871H12.1831L11.056 35.3329H11.8772L12.1277 34.4202H13.1415L13.392 35.3329H14.2686L13.1415 31.2871ZM12.3011 33.7483L12.6382 32.1516L13.0332 33.7483H12.3011Z" fill="white"/>
<path fill-rule="evenodd" clip-rule="evenodd" d="M7.25345 34.7622C7.42202 34.4203 7.47982 34.1915 7.47982 33.6786V32.8236C7.47982 31.8556 7.25345 31.1716 6.12883 31.1716C5.11498 31.1716 4.77783 31.7424 4.77783 32.7683V33.8519C4.77783 35.2198 5.56772 35.2776 7.87717 35.2776L7.93256 34.9934L7.25345 34.7622ZM6.63214 33.8495C6.63214 34.5913 6.57675 34.7622 6.12401 34.7622C5.72907 34.7622 5.61588 34.5335 5.61588 33.7941V32.8261C5.61588 32.0843 5.67127 31.858 6.1794 31.858C6.57434 31.858 6.62973 31.9711 6.62973 32.7707V33.8495H6.63214Z" fill="white"/>
<path fill-rule="evenodd" clip-rule="evenodd" d="M27.764 34.2493C27.764 34.8754 28.159 35.3884 29.0596 35.3884C29.7917 35.3884 30.4684 34.8754 30.4684 34.2493C30.4684 33.2812 28.6647 32.8236 28.6647 32.1975C28.6647 31.9687 28.8911 31.8556 29.115 31.8556C29.4522 31.8556 29.6232 32.0843 29.7917 32.4263L30.3552 32.1975C30.2999 31.6268 29.9049 31.1716 29.0596 31.1716C28.3829 31.1716 27.8194 31.5136 27.8194 32.1975C27.8194 33.3366 29.6232 33.6232 29.6232 34.3625C29.6232 34.6466 29.4546 34.7622 29.115 34.7622C28.7779 34.7622 28.5515 34.5335 28.4383 34.1361L27.764 34.2493Z" fill="white"/>
<path fill-rule="evenodd" clip-rule="evenodd" d="M23.0079 31.1716C22.1626 31.1716 21.6569 31.6268 21.6569 32.7105V34.0205C21.6569 34.9886 21.9386 35.3884 23.0079 35.3884C24.0795 35.3884 24.3589 34.9332 24.3589 33.8495V32.5949C24.3589 31.5714 24.0771 31.1716 23.0079 31.1716ZM23.5112 33.8495C23.5112 34.5335 23.3426 34.7622 23.003 34.7622C22.5527 34.7622 22.4949 34.4781 22.4949 33.9073V32.6527C22.4949 32.1397 22.5503 31.7978 23.003 31.7978C23.4534 31.7978 23.5112 32.1975 23.5112 32.6527V33.8495Z" fill="white"/>
<path fill-rule="evenodd" clip-rule="evenodd" d="M35.2944 33.8495C35.2944 35.0464 35.6316 35.3883 36.7586 35.3883C37.6304 35.3883 37.8856 34.9741 37.8856 34.5334V33.2234H36.7032V33.8495H37.0982V34.3047C37.0982 34.6466 36.985 34.8176 36.7032 34.8176C36.1397 34.8176 36.0843 34.4178 36.0843 33.8495V32.9368C36.0843 32.2529 36.1397 31.7977 36.7032 31.7977C37.0982 31.7977 37.3221 32.0819 37.3799 32.4817L37.9434 32.2529C37.8881 31.5689 37.4377 31.1692 36.6478 31.1692C35.5208 31.1692 35.2968 31.7953 35.2968 32.6502V33.8495H35.2944Z" fill="white"/>
<path fill-rule="evenodd" clip-rule="evenodd" d="M24.7104 31.2847V33.6206C24.7104 34.9885 24.9416 35.4243 26.1265 35.4243C27.0271 35.4243 27.3595 34.9307 27.3595 33.7338V31.2847H26.5696V33.6206C26.5696 34.5333 26.5142 34.7597 26.0614 34.7597C25.6111 34.7597 25.5533 34.4177 25.5533 33.5628V31.2847H24.7104Z" fill="white"/>
<path fill-rule="evenodd" clip-rule="evenodd" d="M32.2384 31.2871V35.3329H32.9151V32.5972L33.8712 35.3329H34.8874V31.2871H34.2107V33.794L33.3076 31.2871H32.2384Z" fill="white"/>
<path fill-rule="evenodd" clip-rule="evenodd" d="M8.28894 31.2849V33.734C8.28894 34.8731 8.40213 35.386 9.52916 35.386C10.8248 35.386 10.8802 34.7599 10.8802 33.6184V31.2825H10.0903V33.6762C10.0903 34.4733 9.97708 34.7021 9.58214 34.7021C9.13181 34.7021 9.07401 34.4733 9.07401 33.563V31.2849H8.28894Z" fill="white"/>
<path fill-rule="evenodd" clip-rule="evenodd" d="M18.5358 31.2871V35.3329H19.3256V33.5075H20.2841V35.3329H21.0716V31.2871H20.2841V32.8235H19.3256V31.2871H18.5358Z" fill="white"/>
<path fill-rule="evenodd" clip-rule="evenodd" d="M2.1698 31.2871V35.3329H4.19749V34.7043H2.95969V33.5653H4.08672V32.9945H2.95969V31.9132H4.19749V31.2871H2.1698Z" fill="white"/>
<path fill-rule="evenodd" clip-rule="evenodd" d="M14.6273 31.2871V35.3329H16.4864V34.7043H15.3016V31.2871H14.6273Z" fill="white"/>
<path fill-rule="evenodd" clip-rule="evenodd" d="M30.8802 31.2871V35.3329H31.6147V31.2871H30.8802Z" fill="white"/>
</g>
</svg>