<svg xmlns="http://www.w3.org/2000/svg" width="512" height="512" viewBox="0 0 197.213 197.213"><g xmlns="http://www.w3.org/2000/svg"><path d="M182.213 83.606h-24.011c-8.284 0-15 6.716-15 15s6.716 15 15 15h24.011c8.284 0 15-6.716 15-15s-6.716-15-15-15zM54.011 98.606c0-8.284-6.716-15-15-15H15c-8.284 0-15 6.716-15 15s6.716 15 15 15h24.011c8.284 0 15-6.715 15-15zM98.273 143.2c-8.284 0-15 6.716-15 15v24.012c0 8.284 6.716 15 15 15s15-6.716 15-15V158.2c0-8.284-6.715-15-15-15zM98.272.001c-8.284 0-14.999 6.717-14.999 15.001v24.01c0 8.284 6.717 14.999 15.001 14.999s14.999-6.717 14.999-15.001V15c0-8.284-6.716-14.999-15.001-14.999zM151.352 130.139c-5.857-5.857-15.355-5.857-21.213 0-5.858 5.857-5.858 15.355 0 21.213l16.978 16.979a14.954 14.954 0 0010.607 4.394 14.95 14.95 0 0010.606-4.394c5.858-5.857 5.858-15.355 0-21.213l-16.978-16.979zM50.095 28.881c-5.857-5.859-15.355-5.857-21.213 0-5.858 5.858-5.857 15.356 0 21.213l16.979 16.979a14.95 14.95 0 0010.606 4.394 14.95 14.95 0 0010.606-4.394c5.858-5.858 5.857-15.355 0-21.213L50.095 28.881zM45.858 130.139l-16.979 16.98c-5.857 5.858-5.856 15.356.001 21.214a14.954 14.954 0 0010.606 4.393c3.839 0 7.679-1.465 10.607-4.393l16.979-16.98c5.857-5.858 5.856-15.356-.001-21.214-5.858-5.859-15.355-5.858-21.213 0zM140.744 71.466a14.95 14.95 0 0010.606-4.394l16.979-16.98c5.858-5.858 5.858-15.355 0-21.213-5.857-5.859-15.355-5.858-21.213 0l-16.979 16.98c-5.858 5.858-5.857 15.356 0 21.213a14.95 14.95 0 0010.607 4.394z" fill="#73c047" data-original="#000000"/></g></svg>