<svg width="25" height="26" viewBox="0 0 25 26" fill="none" xmlns="http://www.w3.org/2000/svg">
<path d="M13.2198 0L7.39957 5.59138V2.5584H3.96222V8.78298L0 12.8261V26L25 17.6916V8.49871L13.2198 0Z" fill="#009821"/>
<path d="M17 16.0064C17 17.104 16.5991 18.0453 15.7985 18.8316C14.9712 19.6105 13.9488 20 12.7311 20C11.9997 20 11.2372 19.8572 10.4424 19.5727C9.65327 19.3016 9.19576 19.1661 9.06752 19.1661C8.75327 19.1661 8.55109 19.4445 8.46213 20H8.10629V15.092H8.46213C8.61579 16.4606 9.09063 17.5033 9.88549 18.2224C10.5845 18.8524 11.4591 19.1673 12.5104 19.1673C13.2995 19.1673 13.9534 18.9305 14.4721 18.4556C14.9597 18.0148 15.2035 17.4727 15.2035 16.8293C15.2035 16.159 14.9562 15.5828 14.4629 15.1017C14.0782 14.7355 13.2348 14.1629 11.9339 13.3839C11.1321 12.9102 10.4701 12.478 9.94788 12.0886C9.42567 11.6991 9.03286 11.3414 8.76945 11.0166C8.25648 10.4208 8 9.67239 8 8.77014C8 7.72017 8.35584 6.83257 9.06752 6.10736C9.79191 5.36871 10.7474 5 11.9327 5C12.2401 5 12.5578 5.03419 12.8847 5.10134C13.2117 5.16971 13.5444 5.27104 13.8852 5.40656C14.5842 5.6776 14.9782 5.81312 15.0683 5.81312C15.3629 5.81312 15.5847 5.54208 15.7315 5H16.0965V9.96052H15.7315C15.6032 8.64683 15.1896 7.63349 14.4906 6.9217C14.1383 6.55543 13.7501 6.28317 13.3272 6.1037C12.9044 5.92422 12.4492 5.83388 11.9616 5.83388C11.2881 5.83388 10.7243 6.0512 10.2691 6.48462C9.80116 6.91804 9.56662 7.43692 9.56662 8.03883C9.56662 8.59434 9.79076 9.09246 10.2402 9.53321C10.4643 9.76396 10.7994 10.0277 11.2453 10.3256C11.6913 10.6235 12.2539 10.9653 12.9332 11.3524C13.5421 11.6979 14.0632 12.008 14.4964 12.2827C14.9297 12.5574 15.2797 12.8028 15.5489 13.0189C16.5159 13.7978 17 14.7941 17 16.0064Z" fill="white"/>
</svg>
