<svg width="55" height="44" viewBox="0 0 55 44" fill="none" xmlns="http://www.w3.org/2000/svg">
<path d="M21.3276 0V8.95808C17.2302 11.4347 14.5511 15.018 13.2904 19.6551C20.7498 19.6551 24.4795 23.6599 24.4795 31.6695C24.4795 39.8898 20.382 44 12.1347 44C4.04489 44 0 39.0994 0 29.2982C0 14.0695 7.09169 4.32096 21.3276 0ZM51.8481 0V8.95808C47.7507 11.4347 45.1242 15.018 43.8634 19.6551C51.2703 19.6551 55 23.6599 55 31.6695C55 39.8898 50.9026 44 42.6552 44C34.5654 44 30.5205 39.0994 30.5205 29.2982C30.5205 14.1222 37.6122 4.37365 51.8481 0Z" fill="#ECF8FF"/>
</svg>
