<svg width="148" height="40" viewBox="0 0 148 40" fill="none" xmlns="http://www.w3.org/2000/svg">
<path d="M40.9543 17.446C40.9543 18.3869 40.5927 19.1931 39.8682 19.8677C39.1208 20.535 38.1963 20.8687 37.0959 20.8687C36.4357 20.8687 35.7455 20.747 35.0281 20.5021C34.3151 20.2701 33.9006 20.1541 33.7849 20.1541C33.5005 20.1541 33.319 20.3918 33.2376 20.8687H32.9161V16.6626H33.2376C33.3762 17.8355 33.8049 18.7291 34.5237 19.3449C35.1553 19.8848 35.9456 20.1555 36.8959 20.1555C37.6089 20.1555 38.1991 19.9521 38.6693 19.5454C39.1094 19.1674 39.3295 18.7034 39.3295 18.152C39.3295 17.5777 39.1065 17.0836 38.6607 16.6712C38.3134 16.3576 37.5518 15.8678 36.3757 15.199C35.6512 14.7923 35.0539 14.4228 34.5809 14.0891C34.1093 13.7554 33.7535 13.449 33.5162 13.1697C33.0532 12.6585 32.8203 12.0169 32.8203 11.245C32.8203 10.3456 33.1418 9.58517 33.7849 8.96364C34.4394 8.33065 35.3025 8.01416 36.3743 8.01416C36.6529 8.01416 36.9387 8.0428 37.2345 8.10152C37.5303 8.16023 37.8319 8.24616 38.1377 8.36216C38.7693 8.59416 39.1251 8.71016 39.2066 8.71016C39.4724 8.71016 39.6724 8.47816 39.8068 8.01416H40.1369V12.2646H39.8068C39.691 11.1376 39.3166 10.2697 38.685 9.66107C38.3663 9.34745 38.0162 9.11401 37.6332 8.95935C37.2503 8.80611 36.8387 8.72878 36.3986 8.72878C35.7898 8.72878 35.2811 8.91495 34.8695 9.28586C34.4465 9.65678 34.235 10.1022 34.235 10.6177C34.235 11.0946 34.438 11.5214 34.8438 11.898C35.0467 12.0956 35.3497 12.3219 35.7526 12.5768C36.1556 12.8332 36.6629 13.1253 37.2774 13.4561C37.8276 13.7526 38.2991 14.0175 38.6893 14.2524C39.0808 14.4873 39.3981 14.6978 39.641 14.8839C40.517 15.5527 40.9543 16.4063 40.9543 17.446Z" fill="black"/>
<path d="M55.0944 20.5808H50.2801V20.2414C51.0975 20.2357 51.5047 19.9736 51.5047 19.458C51.5047 19.342 51.4761 19.1802 51.4176 18.9754C51.359 18.7692 51.2704 18.5214 51.1475 18.2307L50.4087 16.4621H45.6629L44.8198 18.4298C44.6169 18.9053 44.5154 19.2404 44.5154 19.4308C44.5154 19.8834 44.9941 20.154 45.9487 20.2414V20.5808H42.0732V20.2414C42.572 20.207 42.9707 20.018 43.2722 19.6757C43.3994 19.5311 43.5308 19.3306 43.668 19.0742C43.8038 18.8193 43.951 18.5086 44.1067 18.1419L48.4166 8.0127H48.7467L52.9966 18.2293C53.171 18.6475 53.3367 18.9897 53.4968 19.2575C53.6554 19.5254 53.8026 19.7215 53.9355 19.8504C54.0627 19.9607 54.2213 20.0495 54.4085 20.1168C54.5971 20.1841 54.8243 20.2256 55.0901 20.2428V20.5808H55.0944ZM50.1657 15.8005L48.0894 10.8182L45.9516 15.8005H50.1657Z" fill="black"/>
<path d="M71.3447 20.5808H66.1131V20.2414H66.5475C67.0691 20.2414 67.4421 20.0824 67.6693 19.7616C67.7965 19.5755 67.8608 19.1344 67.8608 18.4384V10.2439L63.1336 20.5822H62.8207L58.0849 10.2439V18.4398C58.0849 19.1831 58.1721 19.6585 58.345 19.8676C58.5708 20.1168 58.9238 20.2428 59.4053 20.2428H59.8226V20.5822H55.5727V20.2428H55.9986C56.503 20.2428 56.8703 20.0839 57.1018 19.7631C57.1661 19.6643 57.2104 19.5039 57.2361 19.2804C57.2618 19.057 57.2747 18.7763 57.2747 18.4398V10.4172C57.2747 9.64528 57.1475 9.1598 56.8917 8.96217C56.5902 8.73017 56.15 8.61417 55.5713 8.61417V8.30054H59.0295L63.4794 17.9071L67.8594 8.30054H71.3447V8.61417H70.9103C70.3944 8.61417 70.0215 8.77027 69.7885 9.0839C69.6556 9.29871 69.5885 9.74266 69.5885 10.4157V18.4369C69.5885 19.1859 69.6814 19.6628 69.8671 19.8647C70.0758 20.1139 70.423 20.24 70.9103 20.24H71.3447V20.5808Z" fill="black"/>
<path d="M87.8228 20.5808H82.5912V20.2414H83.0256C83.5472 20.2414 83.9202 20.0824 84.1474 19.7616C84.2746 19.5755 84.3389 19.1344 84.3389 18.4384V10.2439L79.6117 20.5822H79.2987L74.563 10.2439V18.4398C74.563 19.1831 74.6502 19.6585 74.8231 19.8676C75.0488 20.1168 75.4018 20.2428 75.8834 20.2428H76.3007V20.5822H72.0508V20.2428H72.4766C72.9811 20.2428 73.3483 20.0839 73.5798 19.7631C73.6441 19.6643 73.6884 19.5039 73.7142 19.2804C73.7399 19.057 73.7542 18.7763 73.7542 18.4398V10.4172C73.7542 9.64528 73.627 9.1598 73.3726 8.96217C73.0711 8.73017 72.631 8.61417 72.0508 8.61417V8.30054H75.509L79.9589 17.9071L84.3389 8.30054H87.8242V8.61417H87.3898C86.8739 8.61417 86.501 8.77027 86.268 9.0839C86.1351 9.29871 86.068 9.74266 86.068 10.4157V18.4369C86.068 19.1859 86.1609 19.6628 86.3466 19.8647C86.5553 20.1139 86.9025 20.24 87.3884 20.24H87.8228V20.5808Z" fill="black"/>
<path d="M101.363 20.5808H96.5488V20.2414C97.3661 20.2357 97.7748 19.9736 97.7748 19.458C97.7748 19.342 97.7463 19.1802 97.6877 18.9754C97.6305 18.7692 97.5405 18.5214 97.419 18.2307L96.6802 16.4621H91.9359L91.0928 18.4298C90.8899 18.9053 90.7884 19.2404 90.7884 19.4308C90.7884 19.8834 91.2671 20.154 92.2231 20.2414V20.5808H88.3477V20.2414C88.8464 20.207 89.2451 20.018 89.5466 19.6757C89.6738 19.5311 89.8053 19.3306 89.9424 19.0742C90.0782 18.8193 90.2254 18.5086 90.3811 18.1419L94.691 8.0127H95.0211L99.271 18.2293C99.4454 18.6475 99.6111 18.9897 99.7712 19.2575C99.9298 19.5254 100.077 19.7215 100.21 19.8504C100.337 19.9607 100.496 20.0495 100.684 20.1168C100.873 20.1841 101.1 20.2256 101.366 20.2428V20.5808H101.363ZM96.4344 15.8005L94.3581 10.8182L92.2203 15.8005H96.4344Z" fill="black"/>
<path d="M117.613 20.5808H112.382V20.2414H112.816C113.338 20.2414 113.712 20.0824 113.938 19.7616C114.065 19.5755 114.129 19.1344 114.129 18.4384V10.2439L109.402 20.5822H109.089L104.353 10.2439V18.4398C104.353 19.1831 104.441 19.6585 104.614 19.8676C104.839 20.1168 105.192 20.2428 105.674 20.2428H106.091V20.5822H101.841V20.2428H102.267C102.772 20.2428 103.139 20.0839 103.37 19.7631C103.435 19.6643 103.479 19.5039 103.505 19.2804C103.53 19.057 103.543 18.7763 103.543 18.4398V10.4172C103.543 9.64528 103.416 9.1598 103.162 8.96217C102.86 8.73017 102.42 8.61417 101.84 8.61417V8.30054H105.299L109.748 17.9071L114.128 8.30054H117.613V8.61417H117.179C116.663 8.61417 116.29 8.77027 116.057 9.0839C115.924 9.29871 115.857 9.74266 115.857 10.4157V18.4369C115.857 19.1859 115.95 19.6628 116.136 19.8647C116.344 20.1139 116.692 20.24 117.179 20.24H117.613V20.5808Z" fill="black"/>
<path d="M123.714 20.5808H118.457V20.2414H118.9C119.387 20.2414 119.752 20.0939 119.995 19.7975C120.139 19.617 120.212 19.153 120.212 18.404V10.453C120.212 10.0692 120.195 9.76561 120.159 9.5379C120.125 9.31163 120.075 9.16126 120.012 9.08536C119.757 8.77173 119.386 8.61563 118.9 8.61563H118.457V8.302H123.714V8.61563H123.263C122.77 8.61563 122.411 8.76314 122.185 9.05958C122.03 9.26867 121.951 9.73267 121.951 10.453V18.404C121.951 19.1301 122.021 19.597 122.16 19.8061C122.241 19.9106 122.391 20.0066 122.611 20.0939C122.721 20.1455 122.831 20.1841 122.941 20.2071C123.051 20.23 123.158 20.2414 123.263 20.2414H123.714V20.5808Z" fill="black"/>
<path d="M133.473 17.446C133.473 18.3869 133.111 19.1931 132.387 19.8677C131.639 20.535 130.715 20.8687 129.614 20.8687C128.954 20.8687 128.264 20.747 127.547 20.5021C126.834 20.2701 126.419 20.1541 126.303 20.1541C126.019 20.1541 125.838 20.3918 125.756 20.8687H125.435V16.6626H125.756C125.895 17.8355 126.323 18.7291 127.042 19.3449C127.674 19.8848 128.464 20.1555 129.414 20.1555C130.127 20.1555 130.718 19.9521 131.188 19.5454C131.628 19.1674 131.848 18.7034 131.848 18.152C131.848 17.5777 131.625 17.0836 131.179 16.6712C130.832 16.3576 130.07 15.8678 128.894 15.199C128.17 14.7923 127.571 14.4228 127.099 14.0891C126.626 13.7554 126.272 13.449 126.035 13.1697C125.572 12.6585 125.339 12.0169 125.339 11.245C125.339 10.3456 125.66 9.58517 126.303 8.96364C126.958 8.33065 127.821 8.01416 128.893 8.01416C129.171 8.01416 129.457 8.0428 129.753 8.10152C130.049 8.16023 130.35 8.24616 130.656 8.36216C131.288 8.59416 131.644 8.71016 131.725 8.71016C131.991 8.71016 132.191 8.47816 132.325 8.01416H132.655V12.2646H132.327C132.211 11.1376 131.837 10.2697 131.205 9.66108C130.886 9.34745 130.536 9.11401 130.153 8.95935C129.77 8.80611 129.359 8.72878 128.919 8.72878C128.31 8.72878 127.801 8.91495 127.39 9.28586C126.967 9.65678 126.755 10.1022 126.755 10.6177C126.755 11.0946 126.958 11.5214 127.364 11.898C127.567 12.0956 127.87 12.3219 128.271 12.5768C128.674 12.8332 129.183 13.1253 129.796 13.4561C130.346 13.7526 130.818 14.0175 131.208 14.2524C131.599 14.4873 131.917 14.6978 132.16 14.8839C133.036 15.5527 133.473 16.4063 133.473 17.446Z" fill="black"/>
<path d="M147.466 20.5808H142.209V20.2414H142.643C143.148 20.2414 143.512 20.0939 143.738 19.7975C143.813 19.6987 143.871 19.534 143.912 19.3005C143.952 19.0685 143.974 18.7692 143.974 18.404V14.6505H138.246V18.404C138.246 19.153 138.325 19.6199 138.48 19.8061C138.718 20.0968 139.089 20.2414 139.592 20.2414H140.035V20.5808H134.778V20.2414H135.229C135.71 20.2414 136.07 20.0939 136.307 19.7975C136.383 19.7101 136.435 19.5512 136.467 19.3192C136.498 19.0872 136.515 18.7821 136.515 18.404V10.453C136.515 10.0878 136.497 9.78709 136.458 9.55223C136.421 9.31736 136.358 9.14121 136.271 9.02521C136.051 8.75168 135.704 8.61563 135.228 8.61563H134.776V8.302H140.034V8.61563H139.591C139.121 8.61563 138.768 8.74882 138.53 9.01662C138.339 9.23716 138.243 9.71692 138.243 10.453V13.9975H143.971V10.453C143.971 9.67539 143.881 9.19563 143.701 9.01662C143.433 8.75025 143.08 8.61563 142.64 8.61563H142.206V8.302H147.463V8.61563H147.02C146.569 8.61563 146.216 8.74882 145.96 9.01662C145.838 9.14981 145.76 9.30161 145.725 9.46916C145.72 9.53934 145.714 9.65534 145.708 9.81716C145.703 9.98042 145.7 10.1909 145.7 10.453V18.404C145.7 18.7692 145.715 19.0685 145.747 19.3005C145.778 19.5325 145.833 19.6987 145.908 19.7975C146.123 20.0939 146.493 20.2414 147.02 20.2414H147.463V20.5808H147.466Z" fill="black"/>
<path d="M80.3002 34.0165H76.2947V33.7558H76.6276C77.0263 33.7558 77.3121 33.6341 77.4851 33.3892C77.5822 33.2474 77.6308 32.9095 77.6308 32.3753V26.1013L74.0126 34.0151H73.7725L70.1471 26.1013V32.3753C70.1471 32.9438 70.2142 33.309 70.3471 33.468C70.5201 33.6599 70.7901 33.7544 71.1588 33.7544H71.4789V34.0151H68.2251V33.7544H68.5509C68.9367 33.7544 69.2182 33.6327 69.3954 33.3878C69.444 33.3119 69.4783 33.1887 69.4983 33.0169C69.5183 32.8465 69.5283 32.6316 69.5283 32.3739V26.2359C69.5283 25.6444 69.4311 25.2735 69.2354 25.1217C69.0053 24.9441 68.6681 24.8553 68.2236 24.8553V24.6147H70.8716L74.2784 31.9686L77.6308 24.6147H80.2988V24.8553H79.9658C79.5714 24.8553 79.2856 24.9756 79.1084 25.2148C79.0055 25.3795 78.9555 25.7189 78.9555 26.2345V32.3753C78.9555 32.9481 79.027 33.3133 79.1684 33.468C79.3285 33.6599 79.5943 33.7544 79.9672 33.7544H80.3002V34.0165Z" fill="black"/>
<path d="M90.2788 29.2564C90.2788 29.9724 90.1687 30.624 89.9501 31.214C89.73 31.8026 89.3985 32.3368 88.9555 32.818C88.5125 33.2892 88.0181 33.6443 87.4722 33.882C86.9263 34.1198 86.3233 34.2386 85.6631 34.2386C84.3727 34.2386 83.2923 33.7832 82.4235 32.8724C81.5318 31.9387 81.0859 30.7457 81.0859 29.2922C81.0859 27.8873 81.5361 26.7215 82.4364 25.7921C83.3323 24.8627 84.4498 24.3987 85.7888 24.3987C87.0306 24.3987 88.0881 24.8584 88.9627 25.7792C89.8401 26.7044 90.2788 27.8644 90.2788 29.2564ZM88.7083 29.4425C88.7254 26.4251 87.7008 24.9042 85.6345 24.8827C84.7071 24.8784 83.9797 25.2622 83.4524 26.0356C83.1952 26.4265 83.0008 26.8891 82.8708 27.4218C82.7407 27.9546 82.675 28.5647 82.675 29.2492C82.675 30.6011 82.9322 31.678 83.4467 32.4829C83.974 33.3092 84.7113 33.7288 85.6559 33.7431C86.1175 33.7474 86.5319 33.6629 86.8992 33.4897C87.2678 33.3164 87.5851 33.0543 87.8509 32.7034C88.4096 31.9559 88.6954 30.8689 88.7083 29.4425Z" fill="black"/>
<path d="M100.425 34.0165H97.9171L94.7361 29.61C94.2302 29.6415 93.8972 29.6415 93.7386 29.61V32.351C93.7386 32.6446 93.7572 32.8823 93.7958 33.0642C93.8329 33.2461 93.8858 33.3735 93.9516 33.4437C94.1059 33.6528 94.3688 33.7573 94.7361 33.7573H95.1091V34.018H91.085V33.7573H91.4379C91.8366 33.7573 92.1181 33.6313 92.2825 33.3778C92.3711 33.236 92.4154 32.8938 92.4154 32.351V26.2631C92.4154 25.6717 92.3596 25.3051 92.2496 25.1633C92.0453 24.9585 91.7752 24.8568 91.4379 24.8568H91.085V24.6162H94.4917C95.0105 24.6162 95.4534 24.6348 95.8221 24.6692C96.1908 24.705 96.4895 24.7609 96.721 24.8368C96.9696 24.917 97.194 25.0229 97.3969 25.1575C97.5984 25.2907 97.7756 25.4511 97.9256 25.6373C98.25 26.0326 98.4115 26.4923 98.4115 27.0178C98.4115 28.281 97.6413 29.0887 96.1022 29.4453L98.0314 32.1519C98.24 32.4455 98.4372 32.6904 98.623 32.888C98.8088 33.0857 98.9817 33.2403 99.1417 33.352C99.4661 33.5697 99.8934 33.7058 100.426 33.7587V34.0165H100.425ZM96.8525 27.1224C96.8525 26.5266 96.6681 26.0512 96.2994 25.696C95.9307 25.3323 95.4434 25.1418 94.8361 25.1289C94.7204 25.1289 94.5718 25.1389 94.3903 25.159C94.2088 25.179 93.9916 25.212 93.7386 25.2564V29.1832H94.1373C95.0247 29.1832 95.7078 28.9899 96.1865 28.6032C96.631 28.238 96.8525 27.7439 96.8525 27.1224Z" fill="black"/>
<path d="M108.607 26.8089H108.314C108.283 26.5426 108.233 26.3134 108.162 26.123C108.09 25.9311 107.996 25.7764 107.876 25.6561C107.579 25.3453 107.15 25.1892 106.591 25.1892H105.266V32.3769C105.266 32.6662 105.282 32.9011 105.314 33.083C105.345 33.2648 105.394 33.3937 105.461 33.4696C105.621 33.6615 105.887 33.7561 106.26 33.7561H106.593V34.0167H102.607V33.7561H102.953C103.339 33.7561 103.62 33.6343 103.797 33.3894C103.846 33.3135 103.88 33.1904 103.9 33.0185C103.92 32.8481 103.93 32.6333 103.93 32.3755V25.1878H102.819C102.188 25.1878 101.762 25.2852 101.541 25.4814C101.372 25.606 101.241 25.7793 101.145 26.0012C101.049 26.2232 100.989 26.4924 100.962 26.8075H100.644L100.744 24.6135H108.527L108.607 26.8089Z" fill="black"/>
<path d="M118.974 29.136H118.808C118.443 29.136 118.2 29.2606 118.076 29.5098C118.023 29.5814 117.985 29.7003 117.959 29.8692C117.935 30.0382 117.923 30.2545 117.923 30.5165V33.3908C117.43 33.67 116.913 33.882 116.37 34.0238C115.827 34.1655 115.244 34.2371 114.624 34.2371C113.04 34.2371 111.764 33.7731 110.798 32.8437C109.885 31.9544 109.428 30.823 109.428 29.4496C109.428 28.1736 109.851 27.0451 110.698 26.0627C111.647 24.9514 112.883 24.3958 114.404 24.3958C114.724 24.3958 115.029 24.4187 115.322 24.4659C115.615 24.5132 115.905 24.5877 116.194 24.6893C116.474 24.791 116.684 24.8683 116.826 24.9199C116.967 24.9715 117.043 24.9958 117.052 24.9958C117.229 24.9958 117.342 24.7953 117.392 24.3958H117.65L117.876 27.3631H117.65C117.1 25.7047 116.063 24.8755 114.536 24.8755C113.436 24.8755 112.567 25.2851 111.929 26.1028C111.334 26.8719 111.03 27.8901 111.017 29.1561C111.008 30.4936 111.347 31.5964 112.034 32.4628C112.722 33.3249 113.589 33.756 114.635 33.756C115.362 33.756 116.008 33.5827 116.571 33.2361V30.5165C116.571 29.9437 116.496 29.5742 116.346 29.4095C116.19 29.2448 115.858 29.1546 115.348 29.136V28.8897H118.974V29.136Z" fill="black"/>
<path d="M129.253 34.0166H125.567V33.756C126.193 33.7517 126.505 33.5512 126.505 33.1559C126.505 33.0671 126.482 32.944 126.437 32.7864C126.393 32.6289 126.324 32.4384 126.232 32.2165L125.666 30.8631H122.033L121.387 32.3697C121.231 32.7334 121.154 32.9898 121.154 33.1359C121.154 33.4824 121.52 33.6887 122.252 33.756V34.0166H119.285V33.756C119.667 33.7288 119.973 33.5855 120.204 33.3235C120.301 33.2118 120.403 33.0585 120.507 32.8638C120.611 32.6676 120.723 32.4298 120.843 32.1506L124.142 24.3958H124.395L127.649 32.2165C127.782 32.5372 127.909 32.7993 128.032 33.0027C128.155 33.206 128.267 33.3578 128.368 33.4566C128.465 33.5411 128.587 33.6085 128.731 33.66C128.875 33.7116 129.05 33.7431 129.254 33.756V34.0166H129.253ZM125.48 30.3562L123.889 26.5425L122.253 30.3562H125.48Z" fill="black"/>
<path d="M139.413 29.136H139.247C138.883 29.136 138.64 29.2606 138.516 29.5098C138.463 29.5814 138.424 29.7003 138.398 29.8692C138.374 30.0382 138.363 30.2545 138.363 30.5165V33.3908C137.87 33.67 137.352 33.882 136.809 34.0238C136.266 34.1655 135.683 34.2371 135.063 34.2371C133.48 34.2371 132.204 33.7731 131.238 32.8437C130.324 31.9544 129.867 30.823 129.867 29.4496C129.867 28.1736 130.29 27.0451 131.138 26.0627C132.086 24.9514 133.323 24.3958 134.843 24.3958C135.163 24.3958 135.469 24.4187 135.76 24.4659C136.053 24.5132 136.343 24.5877 136.632 24.6893C136.912 24.791 137.122 24.8683 137.264 24.9199C137.405 24.9715 137.481 24.9958 137.49 24.9958C137.667 24.9958 137.78 24.7953 137.83 24.3958H138.088L138.314 27.3631H138.088C137.538 25.7047 136.501 24.8755 134.974 24.8755C133.874 24.8755 133.005 25.2851 132.367 26.1028C131.772 26.8719 131.468 27.8901 131.455 29.1561C131.446 30.4936 131.785 31.5964 132.472 32.4628C133.16 33.3249 134.027 33.756 135.073 33.756C135.8 33.756 136.446 33.5827 137.009 33.2361V30.5165C137.009 29.9437 136.934 29.5742 136.784 29.4095C136.628 29.2448 136.296 29.1546 135.786 29.136V28.8897H139.412V29.136H139.413Z" fill="black"/>
<path d="M147.962 31.6492L147.143 34.0165H139.925V33.7558H140.243C140.564 33.7558 140.811 33.6799 140.989 33.5296C141.167 33.3792 141.255 32.9854 141.255 32.3495V26.2359C141.255 25.6401 141.195 25.2778 141.075 25.1489C140.987 25.0558 140.875 24.9828 140.739 24.9327C140.604 24.8811 140.439 24.8553 140.243 24.8553H139.925V24.6147H147.143L147.256 26.6612H146.983C146.907 26.359 146.841 26.117 146.783 25.938C146.725 25.7576 146.674 25.6373 146.63 25.5743C146.39 25.2721 145.902 25.1203 145.166 25.1203H142.578V28.8409H144.641C145.226 28.8409 145.617 28.7349 145.811 28.5215C145.948 28.3654 146.052 28.0188 146.124 27.4818H146.383V30.7484H146.124C146.052 30.1971 145.948 29.8433 145.811 29.6887C145.615 29.4667 145.225 29.355 144.641 29.355H142.578V32.4627C142.578 32.8665 142.601 33.1143 142.646 33.2031C142.739 33.4078 142.979 33.5095 143.364 33.5095H144.955C145.691 33.5095 146.228 33.3921 146.565 33.1558C146.858 32.9467 147.228 32.4455 147.676 31.6492H147.962Z" fill="black"/>
<path d="M147.999 21.6819H29.8809V22.6915H147.999V21.6819Z" fill="url(#paint0_linear)"/>
<path d="M15.8006 0L8.84416 6.56332V3.00311H4.73575V10.3097L0 15.0557V30.5195L29.8807 20.7669V9.97601L15.8006 0Z" fill="url(#paint1_linear)"/>
<path d="M20.6535 19.9807C20.6535 21.2682 20.1576 22.3723 19.1673 23.2946C18.1442 24.2083 16.8795 24.6651 15.3733 24.6651C14.4687 24.6651 13.5256 24.4975 12.5424 24.1639C11.5664 23.8459 11.0005 23.687 10.8419 23.687C10.4532 23.687 10.2031 24.0135 10.0931 24.6651H9.65295V18.9081H10.0931C10.2831 20.5134 10.8705 21.7365 11.8536 22.58C12.7182 23.3189 13.8 23.6884 15.1004 23.6884C16.0764 23.6884 16.8852 23.4106 17.5268 22.8535C18.1299 22.3365 18.4314 21.7007 18.4314 20.9459C18.4314 20.1597 18.1256 19.4838 17.5154 18.9195C17.0395 18.4899 15.9963 17.8182 14.3873 16.9045C13.3955 16.3489 12.5767 15.8419 11.9308 15.3851C11.2849 14.9282 10.799 14.5086 10.4732 14.1277C9.83873 13.4288 9.52148 12.551 9.52148 11.4926C9.52148 10.261 9.96162 9.2199 10.8419 8.36923C11.7379 7.50281 12.9197 7.07031 14.3858 7.07031C14.766 7.07031 15.1589 7.11041 15.5634 7.18918C15.9678 7.26937 16.3793 7.38824 16.8009 7.5472C17.6654 7.86513 18.1527 8.02409 18.2642 8.02409C18.6286 8.02409 18.903 7.70617 19.0844 7.07031H19.536V12.8889H19.0844C18.9258 11.348 18.4142 10.1594 17.5497 9.32444C17.1138 8.89481 16.6337 8.57545 16.1107 8.36493C15.5876 8.15441 15.0246 8.04844 14.4216 8.04844C13.5885 8.04844 12.8911 8.30335 12.3281 8.81175C11.7493 9.32014 11.4592 9.92879 11.4592 10.6348C11.4592 11.2864 11.7365 11.8707 12.2923 12.3877C12.5696 12.6584 12.984 12.9677 13.5356 13.3171C14.0872 13.6666 14.7831 14.0676 15.6234 14.5215C16.3765 14.9268 17.0209 15.2906 17.5568 15.6128C18.0927 15.935 18.5257 16.2229 18.8587 16.4763C20.0547 17.39 20.6535 18.5586 20.6535 19.9807Z" fill="black"/>
<path d="M22.8513 24.8211C23.3772 26.1271 23.4215 27.3716 22.9857 28.5531C22.7742 29.1875 22.3812 29.948 21.8096 30.8359C21.238 31.7238 20.4778 32.7592 19.5303 33.9421C19.0416 34.5579 18.6186 35.1078 18.2471 35.6048L35.0408 29.1718L29.8807 20.7539L21.9925 23.3288C22.3398 23.7656 22.6256 24.2626 22.8513 24.8211Z" fill="url(#paint2_linear)"/>
<path d="M13.7885 35.6463C14.0743 35.1652 14.4673 34.5923 14.9689 33.9278C15.4705 33.2633 16.0864 32.4914 16.8152 31.6135C17.6283 30.634 18.2899 29.7905 18.7958 29.083C19.3031 28.3756 19.6618 27.7855 19.869 27.3129C20.2977 26.3978 20.3506 25.5371 20.0262 24.7309C19.9319 24.496 19.8133 24.2826 19.6746 24.0864L11.6322 26.7115C11.1935 28.049 11.2235 29.5871 11.7236 31.3257L11.1649 31.552L9.49722 27.4089L0 30.5065L6.77209 39.9999L12.9983 37.6155C13.1369 36.9567 13.4013 36.3008 13.7885 35.6463Z" fill="url(#paint3_linear)"/>
<defs>
<linearGradient id="paint0_linear" x1="29.8815" y1="22.1866" x2="148" y2="22.1866" gradientUnits="userSpaceOnUse">
<stop stop-color="#041711"/>
<stop offset="1" stop-color="#81BE47"/>
</linearGradient>
<linearGradient id="paint1_linear" x1="14.9407" y1="30.5196" x2="14.9407" y2="0" gradientUnits="userSpaceOnUse">
<stop stop-color="#77C64A"/>
<stop offset="1" stop-color="#35672F"/>
</linearGradient>
<linearGradient id="paint2_linear" x1="26.6944" y1="32.5238" x2="23.1822" y2="22.8951" gradientUnits="userSpaceOnUse">
<stop offset="0.00124199" stop-color="white" stop-opacity="0"/>
<stop offset="1" stop-color="#77C64A" stop-opacity="0.1"/>
</linearGradient>
<linearGradient id="paint3_linear" x1="13.6065" y1="37.5074" x2="9.75518" y2="26.9488" gradientUnits="userSpaceOnUse">
<stop offset="0.00124199" stop-color="white" stop-opacity="0"/>
<stop offset="1" stop-color="#77C64A" stop-opacity="0.1"/>
</linearGradient>
</defs>
</svg>
