<svg width="19" height="19" viewBox="0 0 19 19" fill="none" xmlns="http://www.w3.org/2000/svg">
<path fill-rule="evenodd" clip-rule="evenodd" d="M15 8.5C15 12.0899 12.0899 15 8.5 15C4.91015 15 2 12.0899 2 8.5C2 4.91015 4.91015 2 8.5 2C12.0899 2 15 4.91015 15 8.5ZM13.7618 15.176C12.3145 16.3183 10.4869 17 8.5 17C3.80558 17 0 13.1944 0 8.5C0 3.80558 3.80558 0 8.5 0C13.1944 0 17 3.80558 17 8.5C17 10.4869 16.3183 12.3145 15.176 13.7618L18.7071 17.2929C19.0976 17.6834 19.0976 18.3166 18.7071 18.7071C18.3166 19.0976 17.6834 19.0976 17.2929 18.7071L13.7618 15.176Z" fill="white"/>
</svg>
