<svg width="80" height="80" viewBox="0 0 80 80" fill="none" xmlns="http://www.w3.org/2000/svg">
<g opacity="0.2">
<path d="M7.50014 57.5C7.99269 57.5006 8.48052 57.4039 8.93559 57.2155C9.39065 57.027 9.80399 56.7504 10.1519 56.4017L31.2501 35.3033L39.8484 43.9017C40.1966 44.25 40.61 44.5262 41.065 44.7147C41.52 44.9031 42.0077 45.0001 42.5001 45.0001C42.9926 45.0001 43.4803 44.9031 43.9352 44.7147C44.3902 44.5262 44.8036 44.25 45.1519 43.9017L68.7487 20.3048L68.7473 28.75C68.7473 29.7446 69.1424 30.6984 69.8457 31.4017C70.5489 32.1049 71.5028 32.5 72.4973 32.5C73.4919 32.5 74.4457 32.1049 75.149 31.4017C75.8522 30.6984 76.2473 29.7446 76.2473 28.75L76.2501 11.25C76.2501 10.2554 75.855 9.30161 75.1518 8.59835C74.4485 7.89509 73.4947 7.5 72.5001 7.5H55.0001C54.0056 7.5 53.0518 7.89509 52.3485 8.59835C51.6452 9.30161 51.2501 10.2554 51.2501 11.25C51.2501 12.2446 51.6452 13.1984 52.3485 13.9017C53.0518 14.6049 54.0056 15 55.0001 15H63.4469L42.5001 35.9467L33.9019 27.3483C33.5536 27 33.1402 26.7238 32.6852 26.5353C32.2303 26.3469 31.7426 26.2499 31.2501 26.2499C30.7577 26.2499 30.27 26.3469 29.815 26.5353C29.36 26.7238 28.9466 27 28.5984 27.3483L4.84842 51.0983C4.32394 51.6227 3.96677 52.2909 3.82206 53.0184C3.67736 53.7458 3.75162 54.4998 4.03546 55.1851C4.3193 55.8703 4.79997 56.456 5.41668 56.8681C6.03339 57.2801 6.75844 57.5 7.50014 57.5Z" fill="#73C047"/>
<path d="M72.5 65H7.5C6.50544 65 5.55161 65.3951 4.84835 66.0984C4.14509 66.8016 3.75 67.7554 3.75 68.75C3.75 69.7446 4.14509 70.6984 4.84835 71.4016C5.55161 72.1049 6.50544 72.5 7.5 72.5H72.5C73.4946 72.5 74.4484 72.1049 75.1516 71.4016C75.8549 70.6984 76.25 69.7446 76.25 68.75C76.25 67.7554 75.8549 66.8016 75.1516 66.0984C74.4484 65.3951 73.4946 65 72.5 65Z" fill="#73C047"/>
</g>
</svg>
