<svg width="179" height="159" viewBox="0 0 179 159" fill="none" xmlns="http://www.w3.org/2000/svg">
<path fill-rule="evenodd" clip-rule="evenodd" d="M1.07302 75.9892C-0.788871 119.264 33.1907 155.559 76.0142 157.42C108.597 158.816 136.991 140.203 150.024 112.284L136.991 102.978C127.216 126.244 103.477 142.53 76.4797 141.134C42.0347 139.738 15.0372 110.888 16.4336 75.9892C17.8301 41.5557 46.6894 14.5672 81.5999 15.9632C110.925 17.3591 134.664 38.2984 140.25 65.7522L124.423 55.5152L116.045 68.5441L152.352 92.2753L177.022 54.1192L163.989 45.7435L154.679 60.1684C147.232 27.5961 117.907 2.46895 82.5308 1.073C39.2418 -0.788275 2.93491 33.1799 1.07302 75.9892Z" stroke="#73C047" stroke-width="2" stroke-miterlimit="10"/>
</svg>
