<svg width="80" height="80" viewBox="0 0 80 80" fill="none" xmlns="http://www.w3.org/2000/svg">
<g opacity="0.2">
<path fill-rule="evenodd" clip-rule="evenodd" d="M49.3615 29.582L65.4949 30.982C68.4282 31.2154 69.5949 34.882 67.3615 36.8154L55.1282 47.4154L58.7949 63.182C59.4615 66.0487 56.3615 68.3154 53.8282 66.782L39.9949 58.4154L26.1615 66.7487C23.6282 68.282 20.5282 66.0154 21.1949 63.1487L24.8615 47.4154L12.6282 36.8154C10.3949 34.882 11.5949 31.2154 14.5282 30.982L30.6282 29.6154L36.9282 14.7487C38.0615 12.0487 41.9282 12.0487 43.0615 14.7487L49.3615 29.582ZM27.4618 59.7487L39.9951 52.182L52.5618 59.782L49.2284 45.5154L60.2951 35.9154L45.6951 34.6487L39.9951 21.182L34.3284 34.6154L19.7284 35.882L30.7951 45.482L27.4618 59.7487Z" fill="#73C047"/>
</g>
</svg>
