<svg width="44" height="44" viewBox="0 0 44 44" fill="none" xmlns="http://www.w3.org/2000/svg">
<g clip-path="url(#clip0)">
<path fill-rule="evenodd" clip-rule="evenodd" d="M5.2 0H38.85C41.7 0 44 2.35535 44 5.21184V38.8383C44 41.6948 41.65 44.0501 38.8 44.0501H5.2C2.35 44 0 41.6948 0 38.8383V5.21184C0 2.35535 2.35 0 5.2 0ZM38.85 2.1549H5.2C4.35 2.1549 3.6 2.50569 3.05 3.05695C2.5 3.6082 2.15 4.35991 2.15 5.21184V38.8383C2.15 39.6902 2.5 40.4419 3.05 40.9932C3.6 41.5444 4.35 41.8952 5.2 41.8952H38.85C39.7 41.8952 40.45 41.5444 41 40.9932C41.55 40.4419 41.9 39.6902 41.9 38.8383V5.21184C41.9 4.35991 41.55 3.6082 41 3.05695C40.45 2.50569 39.65 2.1549 38.85 2.1549Z" fill="#E7EAF3"/>
<path d="M21.7492 11.877H11.2492C10.6492 11.877 10.1992 11.3759 10.1992 10.8246C10.1992 10.2734 10.6992 9.77222 11.2492 9.77222H21.7992C22.3992 9.77222 22.8492 10.2734 22.8492 10.8246C22.8492 11.3759 22.3492 11.877 21.7492 11.877Z" fill="#E7EAF3"/>
<path d="M32.7992 17.2894H11.2492C10.6492 17.2894 10.1992 16.7882 10.1992 16.237C10.1992 15.6857 10.6992 15.1846 11.2492 15.1846H32.7992C33.3992 15.1846 33.8492 15.6857 33.8492 16.237C33.8492 16.7882 33.3992 17.2894 32.7992 17.2894Z" fill="#E7EAF3"/>
<path d="M37.1008 22C36.7008 21.5489 36.0508 21.5489 35.6008 21.9498L27.9508 28.9658L24.4508 26.2596C23.7508 25.7084 22.7508 25.4077 21.8008 25.4578C20.8508 25.4077 19.8508 25.7084 19.1508 26.2596L15.6508 28.9658L8.00078 21.8997C7.55078 21.4988 6.90078 21.5489 6.50078 21.9498C6.10078 22.4009 6.15078 23.0523 6.55078 23.4533L13.9008 30.2186L7.60078 35.0797C7.15078 35.4305 7.05078 36.1321 7.40078 36.5831C7.75078 37.0341 8.40078 37.1343 8.90078 36.7835L16.0508 31.271C16.1508 31.2209 16.2508 31.1207 16.3508 31.0205C16.3508 31.0205 16.3508 31.0204 16.3508 30.9703L20.4008 27.8132C20.7508 27.5626 21.2008 27.4123 21.7008 27.4624H21.7508H21.8008C22.2508 27.4123 22.7508 27.5626 23.1008 27.8132L27.2008 30.9703C27.3008 31.0706 27.3508 31.1207 27.4508 31.1708L34.6508 36.7334C34.8508 36.8838 35.0508 36.9339 35.3008 36.9339C35.6008 36.9339 35.9508 36.7835 36.1508 36.533C36.5008 36.082 36.4008 35.3804 35.9508 35.0296L29.6508 30.1685L37.0008 23.4031C37.5008 23.1025 37.5008 22.4009 37.1008 22Z" fill="#E7EAF3"/>
</g>
<defs>
<clipPath id="clip0">
<rect width="44" height="44" fill="white"/>
</clipPath>
</defs>
</svg>
