<svg width="32" height="19" viewBox="0 0 32 19" fill="none" xmlns="http://www.w3.org/2000/svg">
<path fill-rule="evenodd" clip-rule="evenodd" d="M10.6354 0.537897C11.4429 -0.215771 12.7085 -0.17213 13.4621 0.635371L21.7358 9.50001L13.4621 18.3646C12.7085 19.1721 11.4429 19.2158 10.6354 18.4621C9.82787 17.7085 9.78423 16.4429 10.5379 15.6354L16.2642 9.50001L10.5379 3.36464C9.78423 2.55714 9.82787 1.29156 10.6354 0.537897Z" fill="#CACDDC"/>
<path fill-rule="evenodd" clip-rule="evenodd" d="M20.6354 0.537897C21.4429 -0.215771 22.7085 -0.17213 23.4621 0.635371L31.7358 9.50001L23.4621 18.3646C22.7085 19.1721 21.4429 19.2158 20.6354 18.4621C19.8279 17.7085 19.7842 16.4429 20.5379 15.6354L26.2642 9.50001L20.5379 3.36464C19.7842 2.55714 19.8279 1.29156 20.6354 0.537897Z" fill="white"/>
<path fill-rule="evenodd" clip-rule="evenodd" d="M0.635371 0.537897C1.44287 -0.215771 2.70845 -0.17213 3.46212 0.635371L11.7358 9.50001L3.46212 18.3646C2.70845 19.1721 1.44287 19.2158 0.635371 18.4621C-0.17213 17.7085 -0.215771 16.4429 0.537897 15.6354L6.26424 9.50001L0.537897 3.36464C-0.215771 2.55714 -0.17213 1.29156 0.635371 0.537897Z" fill="#959CB8"/>
</svg>
