<svg width="1920" height="430" viewBox="0 0 1920 430" fill="none" xmlns="http://www.w3.org/2000/svg">
<path fill-rule="evenodd" clip-rule="evenodd" d="M1509.39 300.971C1509.37 301.085 1509.37 301.204 1509.39 301.318C1510.09 303.527 1508.7 304.694 1508.7 306.146V306.43V306.714C1506.71 312.741 1504.91 318.326 1497.15 316.811C1492.45 316.243 1487.68 314.382 1482.89 314.95C1478.09 315.518 1475.91 320.062 1473.42 323.722C1472.17 326.058 1470.45 328.111 1468.37 329.749C1469.22 332.829 1469.62 336.02 1469.54 339.215C1469.88 343.57 1471.75 354.015 1466.57 355.971C1465.26 356.449 1463.84 356.569 1462.47 356.318C1461.7 356.068 1460.91 355.93 1460.1 355.908C1459.74 355.947 1459.39 356.067 1459.08 356.258C1458.77 356.449 1458.5 356.706 1458.3 357.012C1458.2 357.2 1458.09 357.379 1457.96 357.549C1457.96 357.706 1457.96 357.77 1457.96 357.896C1457.96 357.896 1457.96 358.243 1457.77 358.369C1457.58 358.495 1457.77 358.653 1457.77 358.779L1457.48 359.6C1469.03 359.6 1480.64 359.095 1492.19 358.748C1505.76 358.39 1519.32 357.98 1532.87 357.517L1533.63 342.497V340.762H1535.36C1542.08 340.762 1548.71 340.762 1555.37 340.572C1557.07 340.572 1558.87 340.572 1560.6 340.414L1566.22 340.225C1568.02 340.225 1569.82 340.067 1571.52 339.941C1577.42 339.72 1583.23 339.373 1589.1 339.058C1590.9 338.9 1592.76 338.774 1594.65 338.71C1595.88 338.71 1597.11 338.49 1598.38 338.426C1600.17 338.269 1601.97 338.206 1603.77 338.079C1609.29 337.669 1614.91 337.164 1620.5 336.754C1622.29 336.754 1624.03 336.47 1625.83 336.281C1630.69 335.934 1635.52 335.46 1640.34 335.019L1645.9 334.482H1646.84L1656.31 333.567C1656.51 333.536 1656.71 333.536 1656.91 333.567L1663.22 332.936C1676.92 331.484 1690.59 329.97 1704.24 328.392L1708.25 327.95L1715.32 327.13L1719.74 326.593C1720.65 326.593 1721.6 326.373 1722.51 326.246C1725.48 325.899 1728.44 325.552 1731.44 325.142L1742.83 323.754L1743.18 323.343L1744.03 322.302C1744.01 322.23 1744.01 322.153 1744.03 322.081L1744.25 321.892L1744.51 321.608C1744.73 321.324 1745.01 321.103 1745.2 320.851C1745.4 320.677 1745.6 320.487 1745.77 320.283C1746.03 320.089 1746.29 319.879 1746.53 319.651C1746.8 319.395 1747.1 319.163 1747.41 318.957C1747.58 318.775 1747.77 318.616 1747.98 318.484C1748.73 317.948 1749.49 317.443 1750.31 316.969C1750.94 316.573 1751.59 316.225 1752.27 315.928C1753.37 315.391 1754.41 314.95 1755.42 314.54C1755.82 314.447 1756.21 314.331 1756.59 314.192C1757.57 313.908 1758.45 313.656 1759.49 313.246C1759.64 313.221 1759.78 313.168 1759.9 313.088C1760.44 312.944 1760.94 312.732 1761.42 312.457L1761.77 312.268C1763.1 311.607 1764.36 310.803 1765.52 309.869C1765.98 309.459 1766.49 309.109 1767.04 308.828C1768.06 308.23 1769.11 307.693 1770.19 307.219C1770.95 306.966 1771.77 306.619 1772.62 306.272L1773.03 306.051H1773.25C1773.83 305.831 1774.38 305.545 1774.89 305.199C1775.01 305.23 1775.13 305.23 1775.24 305.199C1775.35 305.119 1775.47 305.045 1775.59 304.978H1775.78C1775.93 304.978 1776 304.758 1776.12 304.694C1776.12 304.694 1776.12 304.694 1776.31 304.694C1776.5 304.694 1776.53 304.474 1776.6 304.41C1777.51 303.59 1778.11 302.675 1778.96 301.855L1779.37 301.381C1779.65 301.128 1779.95 300.896 1780.26 300.687C1780.39 300.636 1780.5 300.561 1780.6 300.466C1780.71 300.426 1780.81 300.362 1780.89 300.277C1781.11 300.158 1781.34 300.063 1781.58 299.993H1781.87L1782.97 299.74C1783.19 299.64 1783.43 299.586 1783.67 299.583H1783.95H1784.36C1785.34 299.583 1786.38 299.583 1787.52 299.299C1788.01 299.247 1788.49 299.152 1788.97 299.015C1789.12 299.043 1789.28 299.043 1789.44 299.015C1789.51 299.039 1789.59 299.039 1789.66 299.015L1790.42 298.604L1790.77 298.447L1791.05 298.163C1791.33 297.973 1791.55 297.752 1791.84 297.532L1792.31 297.058C1792.79 296.49 1793.29 295.859 1793.7 295.26C1796.86 290.053 1797.77 283.553 1801.71 278.567C1802.69 277.336 1803.8 276.169 1804.87 274.97C1804.87 274.97 1805.22 274.717 1805.28 274.56L1806.67 273.266C1806.86 273.032 1807.07 272.821 1807.3 272.635C1807.87 272.067 1808.4 271.467 1808.97 270.836C1809.54 270.205 1809.86 269.858 1810.27 269.385C1810.27 269.385 1810.27 269.227 1810.49 269.227C1810.56 269.095 1810.66 268.977 1810.77 268.88C1811.12 268.533 1811.53 268.186 1811.94 267.838C1812.87 267.177 1813.84 266.576 1814.84 266.04C1815.32 265.85 1815.88 265.567 1816.45 265.283L1817.08 264.872C1819.57 262.916 1821.25 259.54 1823.93 257.331C1822.73 253.551 1820.8 250.044 1818.25 247.012C1816.26 244.614 1814.18 242.184 1812.16 239.692C1810.93 238.114 1809.67 236.536 1808.5 234.927C1807.87 234.075 1807.33 233.254 1806.76 232.434C1805.61 230.575 1804.56 228.658 1803.61 226.691L1802.03 223.725C1798.15 216.72 1793.26 209.178 1791.87 201.226C1791.55 199.28 1791.08 197.361 1790.48 195.483C1790.48 195.483 1790.48 195.231 1790.48 195.073C1790.36 194.736 1790.21 194.409 1790.04 194.095C1789.98 193.864 1789.9 193.642 1789.79 193.432C1787.01 187.405 1781.05 185.607 1775.24 183.524C1766.06 180.369 1757.6 183.335 1748.26 183.524C1742.74 183.524 1738.79 185.165 1733.05 183.524C1728.05 182.029 1723.22 179.987 1718.66 177.434C1714.72 175.509 1710.24 171.628 1706.04 170.523C1703.74 169.987 1700.64 170.934 1697.93 170.523C1695.22 170.113 1694.46 168.094 1692.41 168.094C1690.41 168.319 1688.46 168.907 1686.67 169.829C1685.5 170.46 1682.78 171.975 1682.37 173.363C1680.86 177.497 1687.71 180.337 1681.68 186.9C1680.29 188.506 1678.42 189.614 1676.35 190.056C1673.19 190.75 1669.56 190.056 1666.66 191.097C1664.86 191.791 1663.92 194.063 1661.61 194.978C1659.31 195.894 1656.56 194.978 1654.51 195.641C1653.13 195.922 1653.5 195.488 1652.59 196.556C1651.87 198.702 1650.95 202.183 1650.98 204.445C1650.15 209.665 1648 214.773 1646.62 219.875L1646.4 220.759L1645.52 221.106C1638.92 223.82 1637.28 223.63 1636.81 231.267C1636.81 234.422 1636.65 239.218 1634.85 242.279C1633.88 243.92 1634.29 244.109 1632.08 243.888C1629.87 243.668 1629.14 242.153 1627.34 242.311C1624.72 242.311 1621.35 245.75 1617.88 245.466C1614.41 245.182 1611.41 242.626 1608.92 240.796C1606.42 238.966 1608.22 235.463 1605.25 236C1604.33 236.208 1602.46 236.948 1601.76 237.577C1600.52 239.155 1601.56 239.953 1601.25 240.846C1601.42 240.877 1601.59 240.877 1601.76 240.846H1603.33V242.361C1604.19 251.827 1594.46 261.18 1584.43 259.729C1580.42 259.098 1578.4 257.236 1574.33 258.877C1572.47 259.634 1573.01 261.591 1569 262.222C1565.84 262.695 1564.58 261.37 1561.9 260.739C1554.65 258.562 1546.98 258.183 1539.56 259.634C1536.21 260.265 1530.69 260.549 1527.91 262.411C1527.04 263.101 1526.31 263.958 1525.76 264.933C1525.22 265.908 1524.88 266.982 1524.76 268.091C1524.57 269.185 1524.5 270.295 1524.54 271.404C1524.76 273.636 1524.17 275.872 1522.9 277.715C1521.29 280.05 1519.87 280.303 1518.48 281.754C1519.5 280.95 1520.06 284.117 1520.06 283.332C1520.06 285.825 1521.1 288.318 1521.63 291.221L1520.59 294.016L1520.06 294.376C1513.75 297.532 1505.86 294.376 1505.86 297.532C1506.14 298.415 1506.71 297.374 1507.44 299.109L1509.39 300.971Z" fill="#F7F7FB"/>
<path fill-rule="evenodd" clip-rule="evenodd" d="M1183.56 341.929C1141.62 342.402 1099.72 341.929 1057.87 341.487C968.511 340.267 879.169 337.322 789.848 332.652C773.313 331.737 756.778 330.853 740.244 329.875L738.382 362.377C790.384 364.333 842.397 366.247 894.42 368.12H896.156L892.117 496.358V496.579C894.135 496.607 896.102 497.218 897.781 498.338C899.461 499.457 900.781 501.038 901.583 502.89C902.12 504.342 903.445 504.563 904.739 505.793C905.537 506.69 906.091 507.776 906.348 508.949C906.414 509.156 906.528 509.344 906.682 509.498C906.836 509.652 907.024 509.766 907.232 509.832C908.62 510.526 910.008 509.643 911.523 509.422C916.509 508.665 917.834 512.577 921.337 512.798C926.322 513.24 929.635 510.179 934.779 513.556C938.976 516.332 940.238 521.444 942.384 525.736C942.624 526.322 943.036 526.822 943.565 527.171C944.094 527.52 944.716 527.702 945.35 527.692C947.559 527.945 949.704 528.45 951.85 528.797C953.707 528.913 955.552 529.166 957.372 529.554C960.528 530.532 964.093 528.576 967.627 530.595C968.795 530.437 969.489 529.617 971.509 530.248C973.528 530.879 973.844 532.11 975.169 533.404C976.494 534.697 979.176 536.559 980.565 535.96L981.259 535.676L981.953 535.96C983.121 536.433 985.109 535.392 987.475 536.37C988.58 536.843 989.495 537.821 990.631 537.348C992.84 536.37 993.597 534.855 996.563 536.149C999.529 537.443 999.719 540.251 1001.55 542.239C1003.38 544.227 1005.68 550.601 1007.86 551.358C1010.04 552.116 1014.17 547.572 1015.72 546.183C1016.37 545.37 1017.23 544.744 1018.21 544.368C1019.18 543.991 1020.24 543.877 1021.27 544.038C1023.26 544.606 1024.65 546.878 1026.04 548.392C1027.38 549.703 1028.63 551.117 1029.76 552.62C1031.21 554.64 1035.6 554.135 1037.65 553.662C1040.8 552.905 1042.7 549.086 1046.86 548.329C1049.13 547.919 1050.24 548.897 1052.32 549.37C1054.11 549.67 1055.93 549.67 1057.72 549.37C1061.38 548.96 1061.72 551.705 1063.24 551.769C1064.75 551.832 1067.12 550.254 1068.79 549.844C1070.8 549.167 1072.93 548.922 1075.04 549.123C1077.15 549.324 1079.19 549.967 1081.04 551.011C1082.4 551.954 1083.96 552.581 1085.59 552.849C1087.23 553.116 1088.91 553.017 1090.5 552.557C1094.74 551.863 1099.03 551.578 1103.31 551.705C1107.27 551.774 1111.22 551.382 1115.08 550.538C1121.39 549.37 1127.7 547.856 1134.24 547.225C1138.59 546.814 1140.93 550.664 1143.7 550.128C1145.34 549.717 1146.86 547.635 1149.1 546.972C1151.23 546.338 1153.48 546.219 1155.66 546.625C1159.01 547.315 1162.21 548.575 1165.13 550.349C1166.36 551.363 1167.68 552.27 1169.07 553.062C1170.27 553.252 1171.91 552.084 1174.12 552.652C1177.72 553.536 1179.17 557.701 1181.82 557.701C1183.98 557.357 1186.2 557.722 1188.13 558.742C1189.31 559.499 1190.37 560.424 1191.29 561.487L1184.57 376.324L1183.56 341.929Z" fill="#F7F7FB"/>
<path fill-rule="evenodd" clip-rule="evenodd" d="M1004.73 -60.8356C1003.03 -61.8769 1002.34 -63.8017 1001.01 -64.6537C999.702 -65.5113 998.279 -66.1805 996.783 -66.6417C994.822 -67.1463 992.902 -67.8004 991.04 -68.598C990.882 -68.598 990.472 -68.8189 990.283 -68.598H989.936C982.047 -68.1247 974.158 -68.1247 966.27 -68.1878C955.541 -68.3456 944.844 -68.598 934.115 -68.9451C907.956 -69.7971 881.734 -71.0909 855.607 -72.5424C809.074 -75.0878 762.52 -78.0855 715.945 -81.5355L706.479 52.7932C724.118 53.9608 741.82 54.9074 759.523 55.3492C773.912 55.6963 788.584 55.7594 803.037 54.7812H804.961L801.585 126.284C864.947 130.45 928.498 133.763 991.987 135.751C1019.82 136.666 1047.68 137.234 1075.48 137.297C1098.04 137.297 1120.86 137.076 1143.42 135.625L1142.98 134.173C1142.36 131.297 1141.13 128.586 1139.38 126.221C1136.07 121.456 1129.63 119.721 1127.23 113.599C1125.31 107.662 1123.86 101.586 1122.88 95.4238C1122.81 95.1951 1122.76 94.9634 1122.72 94.7296C1122.05 90.7838 1119.93 87.2288 1116.79 84.7583C1110.48 79.5833 1113.63 77.4375 1113.13 71.1266C1112.7 69.0378 1112.07 66.9974 1111.23 65.0365C1109.78 60.2717 1112.56 54.8758 1110.06 51.0893C1108.49 48.5964 1106.06 47.3343 1105.43 44.021C1105.31 41.2725 1105.41 38.5195 1105.71 35.7852C1105.49 30.2631 1102.55 29.4743 1098.74 26.3188L1097.63 25.4037L1098.23 24.173C1099.62 21.3962 1098.93 16.2843 1098.74 13.2235C1098.84 11.5938 1098.47 9.96918 1097.68 8.53897C1096.9 7.10877 1095.72 5.9319 1094.29 5.14549L1093.81 4.79839V4.23043C1092.96 1.54827 1094 -0.313469 1093.66 -2.68008C1093.47 -4.47871 1092.55 -4.2578 1091.26 -5.51999C1087.09 -9.87455 1091.45 -12.6199 1090.91 -16.154C1090.34 -19.3095 1086.62 -21.2658 1085.7 -24.9578C1085.09 -27.9875 1084.68 -31.0553 1084.47 -34.1402C1084.07 -36.3109 1083.25 -38.3808 1082.04 -40.2303C1081.58 -41.0295 1081.23 -41.8899 1081 -42.7862C1079.3 -43.0585 1077.61 -43.4272 1075.95 -43.8906C1073.93 -44.4852 1071.97 -45.256 1070.08 -46.1941C1067.6 -47.331 1065.49 -49.1469 1063.99 -51.4322C1062.67 -53.0415 1062.39 -53.4517 1060.4 -53.7042C1058.64 -53.5779 1056.88 -53.5779 1055.13 -53.7042C1051.5 -53.9745 1047.96 -54.9161 1044.68 -56.481C1043.46 -57.2768 1042.06 -57.7542 1040.61 -57.8694C1039.16 -57.8694 1037.65 -58.2165 1036.2 -58.2165C1032.72 -58.2165 1029.35 -57.8694 1025.88 -57.8694C1022.41 -57.8694 1019.19 -57.2383 1015.78 -57.5223C1014.04 -57.8063 1012.31 -58.1534 1010.6 -58.5005C1008.66 -58.702 1006.78 -59.3383 1005.11 -60.3622L1004.73 -60.8356Z" fill="#F7F7FB"/>
<path fill-rule="evenodd" clip-rule="evenodd" d="M2159.36 336.786C2159.31 336.031 2159.49 335.279 2159.87 334.627C2160.25 333.974 2160.82 333.451 2161.5 333.125C2161.95 332.876 2162.45 332.746 2162.95 332.746C2163.46 332.746 2163.96 332.876 2164.41 333.125C2165.1 333.684 2165.64 334.406 2165.99 335.226C2166.34 336.046 2166.48 336.94 2166.39 337.827C2173.4 336.533 2174.16 324.542 2179.74 319.998C2184.25 316.401 2184.32 315.644 2184.32 309.838C2184.32 306.146 2184.6 301.255 2182.58 298.005C2178.86 292.041 2166.8 295.354 2161.69 297.5C2157.3 299.012 2152.8 300.152 2148.22 300.908C2143.64 301.886 2138.31 299.866 2134.43 301.318C2133.03 302.176 2131.69 303.125 2130.42 304.158C2127.27 306.588 2122.88 308.449 2120.42 303.811C2118.46 300.15 2122.97 294.691 2122.47 291.441L2122.22 289.643L2123.32 289.485C2123.04 288.63 2122.96 287.718 2123.11 286.829C2123.25 285.939 2123.6 285.097 2124.14 284.373L2124.77 283.458L2125.88 283.679C2126.82 283.776 2127.72 284.096 2128.51 284.612C2129.3 285.128 2129.95 285.825 2130.42 286.645C2131.4 288.38 2131.27 291.094 2132.44 292.451C2134.11 294.25 2138.18 293.366 2140.39 293.019C2141.76 292.865 2143.09 292.492 2144.34 291.915C2143.52 290.787 2142.62 289.731 2141.62 288.759C2139.57 286.55 2137.49 283.647 2139.41 280.618L2140.17 279.419L2141.5 279.924C2144.68 280.703 2147.7 282.039 2150.43 283.868C2152.7 285.446 2153.33 287.308 2155.6 286.55C2155.76 282.259 2155.6 274.307 2161.15 274.37C2162.45 274.37 2164.75 277.526 2166.46 278.819C2166.7 278.349 2167.09 277.964 2167.56 277.715C2170.56 275.822 2175.1 278.472 2178.51 279.703C2177.58 278.446 2176.8 277.079 2176.21 275.632C2175.83 274.088 2175.57 272.516 2175.45 270.931C2175.45 270.52 2175.45 269.826 2175.2 269.069C2175.19 270.854 2174.88 272.625 2174.28 274.307L2173.65 276.043L2172.01 275.348C2166.27 272.919 2165.35 268.438 2165.7 263.105H2164.88V261.717V261.243L2061.19 279.387L2060.02 279.577C2033.45 284.078 2006.86 288.465 1980.25 292.735C1979.43 292.735 1978.58 292.956 1977.82 293.082C1955.2 296.742 1932.51 300.277 1909.92 303.811L1905.97 304.347C1895.87 305.957 1885.84 307.503 1875.74 309.112C1866.46 310.5 1857.12 311.7 1847.78 313.056H1847.59C1847.39 313.124 1847.18 313.176 1846.96 313.214L1851.38 343.033L1850.34 343.57C1849.93 343.795 1849.61 344.166 1849.46 344.611C1849.33 345.933 1848.85 347.196 1848.07 348.271C1846.62 350.291 1843.59 350.985 1841.44 352.153C1839.67 353.154 1838.18 354.573 1837.09 356.286C1836.01 358.034 1834.73 359.645 1833.27 361.083C1832.45 361.682 1831.6 362.313 1830.71 362.881L1829.39 363.639L1828.16 364.175L1827.31 364.585L1826.83 364.806C1826.47 364.951 1826.1 365.067 1825.73 365.153C1824.87 365.439 1823.95 365.494 1823.06 365.311C1822.18 365.128 1821.35 364.714 1820.68 364.112C1820.41 363.812 1820.18 363.484 1819.98 363.134C1819.79 362.603 1819.65 362.053 1819.57 361.493C1819.54 361.241 1819.54 360.987 1819.57 360.736V359.063C1819.57 358.874 1819.57 358.59 1819.57 358.369V357.675C1819.57 357.485 1819.57 357.201 1819.57 356.981C1819.57 356.981 1819.57 356.981 1819.57 356.791V356.634C1819.57 356.634 1819.57 356.286 1819.57 356.097V355.813C1819.54 355.53 1819.54 355.244 1819.57 354.961V354.614C1819.57 354.614 1819.57 354.362 1819.57 354.204V353.51C1818.33 353.976 1817.24 354.772 1816.42 355.813C1816.13 356.066 1815.95 356.35 1815.66 356.634C1815.56 356.8 1815.44 356.958 1815.31 357.107C1814.8 357.776 1814.36 358.495 1813.99 359.253C1813.64 360.01 1813.36 360.862 1813.01 361.619C1812.13 363.963 1811.43 366.368 1810.9 368.814C1810.75 369.547 1810.54 370.265 1810.27 370.959C1810.04 371.433 1809.86 371.906 1809.57 372.411C1809.29 372.916 1809 373.294 1808.75 373.799C1808.5 374.304 1807.77 375.03 1807.14 375.661C1805.98 376.849 1804.52 377.709 1802.91 378.154C1801.34 378.627 1799.76 379.101 1798.21 379.668C1797.83 379.788 1797.46 379.946 1797.11 380.142L1796.76 380.3C1796.51 380.37 1796.27 380.488 1796.07 380.647C1795.72 380.801 1795.38 380.98 1795.06 381.183C1794.75 381.339 1794.47 381.53 1794.2 381.751C1792.92 382.599 1791.8 383.667 1790.89 384.907C1790.75 385.045 1790.63 385.204 1790.54 385.38C1790.2 386.155 1789.77 386.895 1789.28 387.589L1788.87 387.999C1788.78 388.023 1788.68 388.023 1788.59 387.999L1787.8 388.441L1787.26 388.693C1787.1 388.796 1786.94 388.912 1786.79 389.04C1784.99 390.44 1782.75 391.146 1780.48 391.028C1779.15 391.012 1777.83 391.247 1776.6 391.722L1776.41 391.943H1775.9H1775.21L1773.82 392.164C1772.69 392.377 1771.53 392.493 1770.38 392.511C1769.04 392.929 1767.78 393.58 1766.66 394.436C1765.24 395.516 1764 396.803 1762.96 398.254C1762.09 399.385 1761.3 400.588 1760.63 401.852C1760.35 402.267 1760.1 402.699 1759.87 403.145C1758.51 405.852 1756.91 408.429 1755.08 410.845C1754.95 411.046 1754.79 411.227 1754.6 411.381L1754.19 411.791C1751.83 414.158 1747.88 414.947 1746.94 418.102C1746.95 418.131 1746.96 418.164 1746.96 418.197C1746.96 418.23 1746.95 418.263 1746.94 418.292C1746.94 418.292 1746.94 418.292 1746.94 418.481C1746.94 419.396 1747.5 420.974 1747.5 422.236C1747.52 423.092 1747.34 423.94 1746.98 424.716C1746.62 425.492 1746.08 426.176 1745.42 426.717C1745.42 426.938 1745.14 427.064 1745.01 427.285L1744.82 427.726C1744.79 428.02 1744.79 428.316 1744.82 428.61C1744.74 429.924 1744.74 431.241 1744.82 432.554V434.164C1766.47 431.166 1788.59 427.853 1809.92 423.025C1810.75 422.062 1811.67 421.175 1812.66 420.374C1815.32 418.273 1818.41 416.806 1821.72 416.083H1822.13C1823.4 416.213 1824.69 416.051 1825.89 415.609L1826.23 415.42H1826.14C1827.24 414.943 1828.3 414.362 1829.29 413.685C1832.45 412.422 1835.6 413.937 1838 412.58C1841 411.065 1842.1 408.099 1846.11 407.342C1849.23 406.722 1852.41 406.489 1855.58 406.648C1858.29 406.68 1860.9 405.636 1862.84 403.745L1863.25 403.461L1913.73 400.148L1914.21 401.189C1914.62 401.993 1914.9 402.855 1915.06 403.745C1915.06 404.344 1915.47 406.9 1916.16 407.279C1917.96 407.279 1919.76 406.648 1921.62 406.648H1922.51L1932.7 419.932L1989.06 410.718V407.563L2062.8 459.502C2066.9 455.841 2071.67 453.002 2076.84 451.14C2079.41 450.18 2081.5 448.24 2082.65 445.744C2082.85 445.328 2082.99 444.88 2083.06 444.419C2083.91 441.106 2084.16 438.266 2088.26 437.445L2090.12 437.098L2090.31 438.96C2090.55 442.211 2090.46 445.476 2090.06 448.71C2092.15 445.68 2094.03 442.518 2095.71 439.244C2100.63 429.146 2103.54 418.071 2111.49 409.646C2114.96 406.344 2118.73 403.375 2122.75 400.779C2125.59 398.633 2129.41 397.623 2132.38 395.667L2133.13 395.193L2133.95 395.477C2133.95 395.477 2134.18 395.477 2134.24 395.477C2138.75 396.708 2146.48 393.963 2151.12 393.269C2157.9 392.164 2162.32 391.817 2166.27 385.601C2169.74 380.11 2176.3 372.379 2176.65 365.721C2177 359.063 2172.48 358.117 2166.74 358.274C2164.43 358.596 2162.17 359.178 2159.99 360.01C2157.34 360.83 2152.7 362.282 2150.21 360.673C2149.45 360.285 2148.81 359.704 2148.35 358.989C2147.89 358.274 2147.63 357.451 2147.59 356.602C2147.59 353.226 2151.94 351.206 2152.35 349.565C2153.05 347.072 2149.73 343.664 2148.28 341.929L2146.89 340.414L2148.63 339.31C2150.55 338.079 2149.1 332.746 2154.5 332.589C2155.64 332.558 2156.75 332.94 2157.63 333.664C2158.51 334.389 2159.1 335.408 2159.29 336.533L2159.36 336.786Z" fill="#F7F7FB"/>
<path fill-rule="evenodd" clip-rule="evenodd" d="M117.003 447.826C115.331 448.489 114.763 449.404 112.554 449.751C109.728 450.183 107.021 451.193 104.602 452.717C102.456 454.169 104.602 458.05 102.046 461.079C101.3 461.966 100.403 462.714 99.3955 463.288C99.0456 463.47 98.6747 463.608 98.2911 463.699C98.6089 463.89 98.9145 464.1 99.2062 464.33L99.3955 464.519V464.803C99.8902 465.785 100.17 466.86 100.216 467.958C100.216 469.757 99.2378 470.451 98.8276 471.903C98.1965 473.575 99.7426 476.478 99.9319 478.403C100.023 479.581 99.8398 480.764 99.3963 481.859C98.9528 482.954 98.2612 483.932 97.376 484.714C95.5774 487.27 92.3904 486.639 91.0651 487.87C90.5917 488.69 91.0651 491.877 90.434 493.328V493.486V493.676C89.6971 494.94 88.6356 495.983 87.3595 496.699C86.0834 497.415 84.6392 497.776 83.1764 497.746C82.1351 497.746 80.3364 500.586 79.5791 501.627C79.4405 501.861 79.3444 502.118 79.2951 502.385C79.2951 502.606 79.5791 503.142 79.6422 503.363C79.9098 504.402 80.1205 505.456 80.2733 506.518C80.8098 508.254 81.3146 511.63 82.6084 512.829C83.516 513.137 84.4015 513.506 85.259 513.934H85.4483C86.1425 514.565 87.1838 515.606 87.9411 516.174C88.6985 516.742 89.8344 516.174 90.718 516.931C90.9155 517.071 91.0776 517.255 91.1913 517.468C91.8855 518.509 91.1913 519.424 90.5286 520.182L89.6135 521.065C89.5187 521.255 89.3777 521.418 89.2033 521.538C89.3694 524.215 88.9938 526.899 88.0989 529.427C85.8901 532.583 82.2297 531.352 79.2636 531.762C78.7115 531.91 78.2098 532.204 77.8121 532.614C77.2756 533.435 76.8023 534.697 76.3605 535.517C75.5401 537.442 74.6566 539.304 73.8046 541.26C72.6371 543.816 71.5326 546.372 70.4282 548.865L265.058 658.644L370.672 671.487L417.215 300.75C331.67 290.463 246.094 277.651 161.622 260.864L152.344 314.886L152.06 315.233C151.24 316.338 150.893 317.221 149.631 317.915C147.422 319.146 144.645 318.262 143.32 319.588C141.994 320.913 141.458 322.27 140.007 322.743C138.555 323.217 136.851 321.513 135.778 320.314C133.916 318.105 134.043 316.811 130.919 316.653C127.712 316.673 124.575 315.716 121.926 313.908C120.758 313.277 118.77 312.425 117.918 313.908C116.056 318.042 121.074 324.763 119.117 330.79C118.202 333.283 116.277 334.576 115.078 336.785C113.879 338.994 115.078 341.834 114.889 344.421C114.262 346.694 113.351 348.878 112.175 350.922C111.639 352.089 109.84 355.75 111.765 356.444L112.68 356.791L112.869 357.769C113.458 359.579 113.657 361.492 113.456 363.384C113.255 365.276 112.657 367.105 111.702 368.75C111.292 369.507 109.84 370.833 109.777 371.59C109.714 372.347 110.881 374.146 110.818 376.071C110.755 377.996 109.777 379.069 109.777 380.362C110.042 381.77 110.39 383.161 110.818 384.528C110.977 385.647 110.977 386.784 110.818 387.904C110.428 389.676 110.238 391.486 110.25 393.3C110.771 395.964 110.706 398.709 110.061 401.346C109.84 402.104 111.229 404.312 111.513 405.133C111.954 406.605 111.954 408.173 111.513 409.645C111.102 411.444 111.513 412.611 110.345 414.41C109.988 414.813 109.68 415.258 109.43 415.735C109.43 415.735 109.43 416.209 109.43 416.335C109.586 417.283 110.007 418.167 110.643 418.887C111.279 419.607 112.106 420.133 113.027 420.405C115.772 421.036 116.877 424.507 118.139 426.716C119.023 428.01 119.938 429.178 120.821 430.44C121.273 431.03 121.644 431.677 121.926 432.365C122.367 432.87 122.904 433.343 123.314 433.753L123.472 433.911C124.576 435.646 123.756 438.139 123.756 440.001C123.756 443.156 122.494 442.904 121.389 444.482C121.426 445.018 121.273 445.549 120.955 445.983C120.637 446.416 120.176 446.723 119.654 446.848H119.401H118.139C117.562 446.938 117.007 447.13 116.498 447.416L117.003 447.826Z" fill="#F7F7FB"/>
<path fill-rule="evenodd" clip-rule="evenodd" d="M454.862 28.8742L420.972 298.415C526.523 311.037 632.642 319.936 738.729 326.278C755.264 327.256 771.735 328.14 788.27 329.055L797.737 127.42L801.05 57.9992C787.166 58.8197 773.029 58.7566 759.145 58.4726C740.875 57.9993 722.542 57.0211 704.24 55.7904C667.699 53.2976 631.19 49.7634 594.808 45.8191C548.044 40.7703 501.374 34.9643 454.799 28.748L454.862 28.8742Z" fill="#F7F7FB"/>
<path fill-rule="evenodd" clip-rule="evenodd" d="M1447.83 394.057C1447.83 393.521 1447.83 392.953 1447.83 392.417C1447.49 385.768 1447.63 379.103 1448.24 372.474C1448.96 369.443 1450.3 366.596 1452.18 364.112C1452.44 363.734 1452.63 363.319 1452.75 362.881C1452.78 362.714 1452.78 362.543 1452.75 362.376C1452.89 362.021 1452.99 361.65 1453.03 361.272C1453.26 360.515 1453.38 359.694 1453.57 358.937C1453.59 358.748 1453.59 358.558 1453.57 358.369V358.117C1453.57 357.896 1453.79 357.612 1453.86 357.328C1453.94 357.101 1454.03 356.88 1454.14 356.665C1454.21 356.433 1454.33 356.218 1454.49 356.034C1454.64 355.661 1454.84 355.311 1455.09 354.993C1458.84 350.228 1461.68 353.951 1464.84 352.784C1467.14 351.869 1465.75 341.487 1465.59 339.562C1465.4 336.785 1465.59 332.431 1464.14 330.096C1463.56 329.173 1462.64 328.507 1461.59 328.234C1457.04 326.972 1456.29 327.95 1453.63 323.185C1451.78 320.616 1449.67 318.247 1447.32 316.117C1443.25 311.005 1445.87 301.318 1445.24 295.165C1445.25 292.115 1444.36 289.13 1442.68 286.582C1440.41 283.426 1437.57 282.511 1435.9 278.63C1435.08 276.768 1434.95 271.435 1433.57 270.489C1432.18 269.542 1427 271.499 1423.75 270.205C1418.07 268.059 1412.68 260.044 1408.57 255.532C1407.56 254.46 1406.43 253.507 1405.2 252.692C1400.56 249.536 1396.77 246.76 1397.88 240.449C1398.22 238.114 1399.39 237.546 1400.09 235.81C1400.47 234.384 1400.72 232.927 1400.84 231.456C1401.28 228.169 1402.24 224.973 1403.68 221.989C1405.1 219.135 1405.82 215.984 1405.78 212.796C1405.75 209.608 1404.95 206.475 1403.46 203.656C1403.01 202.51 1402.26 201.508 1401.29 200.756C1400.31 200.005 1399.15 199.532 1397.93 199.39C1396.71 199.247 1395.47 199.44 1394.35 199.947C1393.23 200.453 1392.27 201.256 1391.57 202.267C1387.78 206.496 1386.17 206.085 1382.1 202.425C1379.21 199.926 1377.24 196.542 1376.48 192.801C1375.47 187.752 1375.03 180.179 1371.31 176.203C1369.57 174.405 1365.85 173.71 1363.48 171.975C1360.89 169.727 1358.69 167.061 1356.98 164.086C1355.85 162.426 1354.39 161.019 1352.69 159.952C1349.26 158.008 1346.15 155.562 1343.45 152.695C1339.14 147.92 1336.21 142.062 1334.99 135.75C1333.95 129.439 1330.35 123.759 1330.85 117.196C1331.6 114.209 1332.03 111.153 1332.15 108.076C1331.8 104.921 1329.66 101.923 1329.94 98.3259C1326.22 96.3095 1322.99 93.4975 1320.47 90.0901L1126.25 96.401C1127.03 101.7 1128.29 106.918 1130.01 111.989C1131.87 116.596 1138.65 119.247 1141.84 123.791C1143.8 126.538 1145.18 129.65 1145.91 132.942C1146.2 134.046 1146.54 135.15 1146.89 136.255C1147.01 136.512 1147.07 136.792 1147.08 137.075C1147.18 137.729 1147.42 138.352 1147.79 138.899C1148.16 139.445 1148.65 139.9 1149.23 140.231H1149.38C1151.34 141.203 1153.57 141.47 1155.69 140.988H1155.91C1157.18 141.012 1158.43 141.307 1159.57 141.851C1160.71 142.395 1161.72 143.176 1162.54 144.143C1166.33 149.95 1162.54 155.219 1160.24 160.552V160.773V160.962V161.183V161.404V161.688V163.36V163.834V165.632V166.263V166.61V166.958V167.242V167.778V168.251L1160.08 170.208V170.681V171.943V172.196V172.89V173.111H1160.24V173.3L1160.4 173.458H1160.62L1160.77 173.679L1161.06 173.9L1161.31 174.089L1161.59 174.31L1162.16 174.657L1163.68 175.761L1164.15 176.045L1164.66 176.361L1165.07 176.708L1165.41 176.992L1165.76 177.339L1166.36 177.97L1167.15 178.664L1168.03 179.643L1169.96 181.631L1170.71 182.388L1171.22 182.893L1171.76 183.366L1171.98 183.555L1172.26 183.776L1172.67 184.186L1173.14 184.597L1174.6 185.701L1175.35 186.332L1175.7 186.616L1176.05 186.963L1176.46 187.31L1176.8 187.658L1177.03 187.847L1177.37 188.194V188.352L1177.59 188.541V188.762L1177.81 188.951V189.109L1178.03 189.298V189.519L1178.19 189.74V189.929V190.15L1178.35 190.403L1178.54 190.624V190.845L1178.7 191.034V191.318C1178.7 191.318 1178.7 191.318 1178.86 191.539C1179.01 191.76 1178.86 191.539 1178.86 191.791V192.012C1178.94 192.159 1178.99 192.319 1179.01 192.485C1179.01 192.643 1179.01 192.706 1179.01 192.769C1178.98 192.862 1178.98 192.961 1179.01 193.053V193.337C1179.01 193.337 1179.01 193.337 1179.01 193.59C1179.01 193.842 1179.01 193.59 1179.01 193.874V194.158C1179.01 194.158 1179.01 194.158 1179.01 194.442V195.609L1186.93 340.13L1188.16 374.304C1202.9 374.304 1217.86 373.421 1232.59 372.79C1255.19 371.748 1277.87 370.518 1300.5 369.255C1340.01 367.152 1379.5 364.848 1418.99 362.345L1422.14 361.524C1422.45 361.52 1422.75 361.585 1423.03 361.714L1424.29 363.26C1425.98 365.504 1427.07 368.144 1427.44 370.928V371.117C1427.54 372.837 1427.27 374.558 1426.66 376.166C1426.07 377.842 1425.36 379.467 1424.51 381.025C1423.4 383.518 1422.24 385.79 1421.35 388.283C1420.82 389.671 1419.24 394.152 1420.34 395.54C1420.75 396.045 1421.86 396.045 1422.4 396.045C1430.85 395.414 1439.43 395.477 1447.86 394.152L1447.83 394.057Z" fill="#F7F7FB"/>
<path fill-rule="evenodd" clip-rule="evenodd" d="M1743.78 -23.6331C1739.42 -22.6549 1737.47 -24.7375 1733.21 -25.9682C1730.3 -26.8201 1726.58 -25.9681 1724.15 -28.2716C1714.68 -26.5361 1705.22 -25.3686 1695.94 -24.1064C1684.87 -22.6549 1673.85 -21.2665 1662.65 -19.9727L1689.09 163.96C1690.7 163.285 1692.41 162.879 1694.14 162.761C1697.93 162.761 1698.21 164.781 1700.45 165.254C1702.69 165.727 1705.85 164.654 1708.75 165.254C1713.52 166.485 1717.52 170.24 1721.91 172.448C1726.3 174.817 1730.91 176.761 1735.67 178.254C1740.65 179.58 1745.14 178.034 1749.96 177.971C1760.06 177.971 1767.95 174.815 1778.14 178.254C1784.45 180.526 1790.76 182.609 1793.92 188.762C1797.25 188.829 1800.58 188.554 1803.86 187.942C1805.66 186.616 1804.62 182.609 1807.74 180.242H1807.96H1808.21C1810.11 179.548 1810.58 180.242 1812.03 178.728C1812.38 178.381 1813.42 177.276 1813.42 176.708V176.487C1813.77 174.563 1810.26 171.439 1809.6 169.009C1808.15 164.717 1809.41 163.361 1810.93 159.543C1812.88 155.661 1811.21 149.508 1815.16 146.195C1815.68 145.594 1816.35 145.133 1817.1 144.852C1817.85 144.572 1818.65 144.48 1819.45 144.586C1821.66 145.09 1822.41 146.952 1824.09 147.741C1825.66 148.003 1827.28 147.862 1828.79 147.331C1829.83 146.069 1829.32 145.248 1829.32 143.67C1828.83 140.169 1829.12 136.601 1830.18 133.226C1832.38 130.452 1835.11 128.128 1838.19 126.378C1841.35 122.939 1845.86 122.655 1849.11 120.067C1850.55 118.89 1851.88 117.569 1853.05 116.123C1853.94 113.977 1856.21 112.4 1856.71 110.727C1857.53 108.455 1857.41 105.836 1859.27 104.038C1859.49 102.87 1860.09 102.649 1860.66 101.545C1862.06 98.7085 1864.37 96.4212 1867.22 95.0445C1868.8 94.3183 1870.28 93.4073 1871.64 92.3308C1871.92 90.7804 1872.04 89.2042 1871.99 87.6291C1871.99 83.9688 1870.12 80.5924 1870.12 76.7112C1869.87 72.4597 1870.32 68.1962 1871.45 64.0893C1872.92 60.6118 1874.18 57.0504 1875.24 53.4237C1876.43 48.7666 1875.94 43.8378 1873.85 39.508C1873.35 38.3522 1872.8 37.225 1872.17 36.1317L1871.64 35.2166L1872.24 34.3331C1873.09 33.0709 1872.74 29.4736 1873.28 27.675V27.4857V27.2648C1873.97 26.3026 1874.86 25.5051 1875.9 24.9297C1876.37 24.6458 1878.04 23.7307 1878.17 23.1942L1878.74 21.7427H1879.5L1863.72 -72.5115C1862.91 -72.1442 1862.15 -71.6891 1861.45 -71.1546C1858.29 -68.788 1856.11 -65.2538 1853.21 -62.5717C1850.31 -59.8895 1846.3 -57.9331 1843.3 -55.0932C1840.3 -52.2533 1839.86 -48.5929 1836.2 -46.321C1832.54 -44.049 1828.16 -43.6704 1825.95 -40.01C1823.04 -35.3084 1823.39 -30.5436 1818.85 -26.2521C1817.05 -24.6272 1814.9 -23.4332 1812.57 -22.7607C1810.24 -22.0882 1807.79 -21.9549 1805.4 -22.3709C1801.97 -22.8127 1796.98 -23.7593 1793.73 -22.3709C1790.48 -20.9825 1789.37 -16.0599 1785.43 -14.2298C1781.49 -12.3996 1777.13 -14.8293 1773.12 -14.7662C1769.12 -14.7031 1765.87 -14.5769 1762.17 -14.5769C1760.42 -14.25 1758.69 -13.8072 1757 -13.2516C1754.98 -12.6836 1750.69 -11.3267 1748.98 -13.2516C1747.28 -15.1764 1748.98 -17.6061 1751.32 -19.3416C1749.76 -19.2471 1748.2 -19.5239 1746.77 -20.1492C1745.34 -20.7746 1744.07 -21.7306 1743.08 -22.9389L1743.78 -23.6331Z" fill="#F7F7FB"/>
<path fill-rule="evenodd" clip-rule="evenodd" d="M-272.254 -186.298C-272.254 -181.187 -273.453 -176.138 -273.169 -171.089C-272.57 -167.504 -272.379 -163.862 -272.601 -160.234C-273.389 -157.638 -274.446 -155.131 -275.757 -152.756C-277.839 -147.36 -276.672 -141.617 -279.417 -136.032C-281.015 -133.562 -282.188 -130.842 -282.888 -127.985C-283.361 -124.609 -282.541 -122.337 -285.507 -119.623C-285.713 -119.43 -285.947 -119.271 -286.201 -119.15C-286.516 -118.89 -286.867 -118.677 -287.243 -118.519C-288 -118.172 -289.736 -117.825 -289.736 -116.878C-289.736 -115.931 -285.602 -113.722 -287.306 -109.936C-289.672 -104.761 -298.666 -106.78 -301.222 -103.436C-304.188 -99.1178 -306.151 -94.1904 -306.964 -89.0151C-307.438 -84.5974 -303.02 -78.6651 -301.348 -74.563C-299.076 -68.6307 -298.95 -61.5624 -295.952 -56.0403C-292.512 -49.7294 -290.651 -46.0059 -291.124 -38.5905C-291.217 -32.2086 -291.903 -25.8491 -293.175 -19.5945C-294.279 -15.0506 -298.823 -8.89742 -297.877 -4.38509C-296.551 1.29478 -294.059 6.46974 -294.122 12.4967C-294.122 17.1353 -297.277 18.2397 -298.287 21.6792C-298.918 23.888 -297.656 25.5604 -296.678 27.4852C-293.145 34.4223 -289.985 41.5428 -287.211 48.8163C-285.66 52.2809 -283.779 55.5883 -281.594 58.6929C-279.199 62.3043 -278.087 66.6167 -278.439 70.9362C-278.172 73.0227 -278.324 75.1417 -278.888 77.1684C-279.451 79.1951 -280.415 81.0887 -281.721 82.7376C-282.964 83.965 -284.113 85.2834 -285.16 86.682C-285.16 87.0291 -284.182 87.5971 -283.929 87.7233C-280.048 89.9322 -277.839 89.6797 -274.936 93.8134C-274.526 94.3814 -273.201 96.9689 -272.57 97.2213C-271.939 97.4738 -269.73 94.9178 -267.332 97.6946C-265.659 99.4933 -266.827 102.396 -266.29 103.091C-265.754 103.785 -263.135 103.438 -261.778 105.299C-261.456 105.687 -261.219 106.139 -261.084 106.625C-260.725 108.733 -261.152 110.9 -262.283 112.715C-262.904 113.828 -263.412 115.002 -263.798 116.217C-264.082 118.868 -263.324 120.572 -265.375 122.812C-266.637 124.106 -268.531 124.169 -268.909 125.021C-269.73 127.167 -265.249 130.007 -265.123 133.667C-265.074 136.286 -265.329 138.901 -265.88 141.461C-266.314 143.543 -266.609 145.651 -266.764 147.772C-266.847 150.771 -265.838 153.698 -263.924 156.008C-262.274 158.943 -260.328 161.703 -258.118 164.244C-254.962 166.863 -251.554 167.967 -248.651 171.28C-247.213 172.662 -246.13 174.37 -245.493 176.26C-244.855 178.15 -244.683 180.165 -244.991 182.135C-245.075 183.416 -245.233 184.691 -245.464 185.953C-246.095 189.109 -247.957 192.454 -251.775 191.002L-252.659 190.655L-252.88 189.74C-253.043 188.717 -253.34 187.719 -253.763 186.774C-253.926 190.686 -254.562 194.564 -255.656 198.323C-256.761 202.078 -259.033 205.107 -258.055 209.178C-256.003 217.698 -249.756 223.914 -246.158 231.739C-244.518 235.463 -241.962 238.65 -242.214 242.941C-242.354 244.317 -242.607 245.678 -242.971 247.012C-243.21 247.821 -243.327 248.661 -243.318 249.505C-243.176 250.01 -242.931 250.48 -242.6 250.887C-242.269 251.294 -241.859 251.629 -241.394 251.871C-236.629 255.027 -237.102 256.068 -235.524 261.054C-234.546 264.209 -231.012 264.809 -229.718 268.943C-229.277 270.394 -229.277 272.256 -228.109 273.297C-226.942 274.338 -225.143 274.149 -223.565 275.601C-219.463 279.198 -215.045 290.999 -217.664 296.143C-218.232 297.247 -218.832 297.152 -219.526 297.72C-219.592 297.83 -219.644 297.946 -219.684 298.068C-219.13 297.973 -218.565 297.973 -218.012 298.068L-216.371 298.415L-216.623 300.087C-216.623 300.087 -216.623 300.087 -216.623 300.276C-215.591 300.423 -214.6 300.779 -213.711 301.321C-212.821 301.864 -212.051 302.582 -211.448 303.432C-210.554 304.726 -210.11 306.278 -210.186 307.85C-210.344 311.668 -213.341 314.697 -213.341 317.947C-213.09 320.343 -213.154 322.762 -213.531 325.142C-214.004 327.161 -215.266 329.023 -215.55 331.042C-215.96 333.598 -215.266 335.807 -216.844 338.363C-218.422 340.919 -221.009 341.266 -221.703 342.654C-222.997 345.053 -216.15 348.461 -214.635 349.628C-211.319 352.643 -207.235 354.685 -202.834 355.529C-197.911 356.444 -192.578 355.813 -188.034 358.306C-184.216 360.451 -182.071 364.617 -177.527 365.027C-172.523 365.656 -167.602 366.83 -162.854 368.529C-155.943 370.517 -155.312 374.462 -151.431 379.574C-149.979 381.467 -147.928 382.729 -146.477 384.843C-144.584 387.399 -144.11 390.302 -142.532 392.858C-140.576 396.014 -134.549 398.128 -131.299 399.8C-126.944 402.135 -122.401 399.169 -117.478 403.461C-113.471 406.9 -108.548 410.718 -109.242 416.587C-109.652 420.058 -110.347 425.581 -105.519 425.707C-102.742 425.707 -100.407 423.498 -97.5038 423.719C-96.4891 423.848 -95.5243 424.235 -94.7014 424.843C-93.8784 425.45 -93.2246 426.258 -92.8021 427.19C-90.4986 431.039 -89.6466 435.489 -86.144 438.644C-82.0735 442.336 -77.1509 444.135 -74.1217 449.026C-70.3224 454.933 -67.2799 461.294 -65.0654 467.959C-62.227 478.836 -61.4458 490.148 -62.7619 501.312C-62.2672 500.782 -61.6649 500.365 -60.9955 500.087C-60.3261 499.81 -59.605 499.679 -58.8807 499.703C-54.3368 499.513 -50.1716 503.458 -53.8319 507.686C-56.1985 510.305 -59.7327 509.138 -60.49 511.473C-60.628 513.327 -60.4682 515.191 -60.0167 516.995C-60.0167 517.216 -60.0167 517.626 -59.7327 517.91C-59.4487 518.194 -58.8176 517.91 -58.4705 517.91C-56.976 517.883 -55.4861 518.085 -54.0528 518.509C-50.0688 519.099 -46.0552 519.468 -42.0305 519.614C-30.3867 520.813 -18.7115 521.917 -7.0993 522.769C6.05905 523.747 19.1227 525.199 32.1864 526.43L64.2145 529.585C68.0327 529.995 71.8192 530.342 75.6374 530.69C76.4991 529.869 77.6092 529.358 78.7928 529.238C80.2759 529.238 84.1887 529.585 85.1038 528.481C85.6979 526.433 85.9328 524.298 85.798 522.17C85.8025 521.37 86.0685 520.595 86.5553 519.961L85.5771 519.488V519.077L85.1038 518.667C84.553 518.151 83.9736 517.666 83.3683 517.216C82.4847 516.648 81.4435 516.805 80.4022 515.827C77.9724 513.808 77.9093 510.778 76.9942 508.002C76.87 506.941 76.6909 505.888 76.4578 504.846C76.0614 504.166 75.8526 503.393 75.8526 502.606C75.8526 501.819 76.0614 501.045 76.4578 500.365V500.144L76.6787 499.955C78.3826 497.809 79.8341 494.496 83.179 494.496C83.996 494.535 84.8087 494.357 85.5346 493.98C86.2606 493.603 86.874 493.041 87.3126 492.35C87.8806 490.331 86.6815 488.122 88.4802 485.85C90.2157 484.146 93.7183 484.146 94.3494 483.231C95.2644 482.127 96.4951 481.022 96.2111 479.413C95.864 476.447 94.2231 474.49 95.3907 471.335C95.6115 470.42 96.5582 468.905 96.5582 468.337C96.5031 467.933 96.386 467.539 96.2111 467.17L95.6747 466.823C95.1646 466.514 94.7427 466.078 94.4497 465.559C94.1568 465.039 94.0027 464.453 94.0023 463.856C93.9793 463.11 94.2514 462.384 94.7596 461.837C95.6747 460.953 96.5582 461.143 97.5364 460.669C98.1607 460.22 98.7417 459.712 99.2719 459.155C100.85 457.293 98.4515 453.065 102.427 450.225C105.226 448.376 108.41 447.189 111.736 446.754C113.073 446.325 114.346 445.72 115.523 444.955C116.334 444.524 117.226 444.266 118.142 444.198C118.171 444.105 118.171 444.006 118.142 443.914C118.931 442.683 120.161 442.178 120.161 440.948C120.161 439.717 120.571 437.792 120.445 436.846C119.86 436.428 119.302 435.975 118.773 435.489L118.236 434.984V434.447C118.116 434.211 118.041 433.954 118.015 433.69C117.037 432.239 115.933 430.85 115.049 429.462C114.608 428.768 112.904 424.949 111.894 424.823C110.387 424.219 109.076 423.209 108.107 421.906C107.138 420.602 106.548 419.057 106.403 417.439C105.52 414.883 106.403 414.536 107.508 412.548C107.863 411.402 108.065 410.214 108.107 409.014C108.312 408.206 108.312 407.361 108.107 406.553C107.35 404.596 105.962 403.082 106.435 400.81C107.026 398.595 107.102 396.274 106.656 394.026C106.506 392.102 106.644 390.166 107.066 388.283L-124.199 65.1932L-118.172 46.6705L-73.9955 -131.519C-116.069 -141.68 -157.942 -152.703 -199.615 -164.589C-223.891 -171.489 -248.083 -178.767 -272.191 -186.425L-272.254 -186.298Z" fill="#F7F7FB"/>
<path fill-rule="evenodd" clip-rule="evenodd" d="M518.98 654.605L521.63 654.889L521.977 655.868C522.403 657.098 522.909 658.3 523.492 659.465C524.715 661.473 526.431 663.135 528.478 664.293C532.327 666.659 531.034 668.805 532.485 671.897C534.694 676.41 541.257 677.451 541.668 684.141C541.573 685.025 541.793 685.915 542.29 686.654C542.786 687.392 543.526 687.932 544.381 688.18C547.448 689.783 550.205 691.92 552.522 694.491C555.884 698.233 558.815 702.339 561.263 706.734C562.47 708.364 564.094 709.64 565.965 710.426C567.426 711.192 568.687 712.291 569.646 713.634C570.605 714.977 571.236 716.526 571.487 718.157C571.577 720.265 572.403 722.274 573.822 723.837C576.125 725.572 579.091 726.456 580.764 728.948C582.436 731.441 582.815 733.871 584.361 735.859C585.907 737.847 587.517 736.9 589.315 736.49C590.075 736.292 590.871 736.269 591.641 736.422C592.412 736.575 593.138 736.9 593.765 737.374C595.626 738.825 595.752 741.129 597.141 742.422C598.939 744.221 601.558 744.316 602.947 747.124C604.335 749.932 603.294 753.845 603.231 757.158C602.925 760.076 603.063 763.023 603.641 765.899C605.597 771.768 610.141 776.47 612.161 782.623C614.307 789.344 615.001 796.854 618.472 803.102C621.627 808.498 625.256 813.389 628.569 818.596C632.427 823.94 636.967 828.756 642.075 832.922C644.66 835.445 647.505 837.687 650.563 839.611C653.679 841.123 656.894 842.42 660.187 843.492C663.881 844.822 667.302 846.81 670.285 849.362C672.841 851.665 674.86 854.41 677.353 856.714C680.095 859.006 683.335 860.625 686.814 861.441C690.293 862.258 693.915 862.249 697.39 861.415C698.426 861.035 699.372 860.444 700.167 859.68C703.544 856.367 704.522 849.772 707.583 845.638C709.697 842.672 712.537 840.368 714.903 837.528C716.903 834.948 718.402 832.015 719.321 828.883C721.282 822.045 725.625 816.135 731.564 812.221C736.875 808.732 742.946 806.568 749.266 805.911C749.666 805.577 750.13 805.329 750.629 805.182C751.129 805.035 751.653 804.993 752.169 805.059C754.599 805.627 755.325 808.467 756.051 808.751C756.777 809.035 759.869 807.899 761.51 807.962C763.243 808.344 765.006 808.576 766.779 808.656C768.988 808.309 770.503 807.204 772.869 808.656C774.163 809.35 775.362 811.086 776.404 811.496C777.712 811.799 779.082 811.678 780.316 811.149C782.55 809.963 785.114 809.553 787.606 809.981C789.404 810.518 790.288 812.127 791.55 812.537C792.812 812.947 794.705 812.537 796.725 813.358C798.413 814.288 799.802 815.677 800.732 817.365C801.075 817.923 801.38 818.503 801.647 819.1C802.657 821.309 803.162 824.78 806.128 825.127C808.266 825.092 810.378 825.601 812.266 826.605C814.153 827.61 815.755 829.077 816.92 830.87C818.544 833.658 820.623 836.154 823.073 838.254C824.745 839.359 826.229 839.863 827.238 841.725C828.248 843.587 827.996 845.102 828.69 846.616C829.51 848.293 830.834 849.672 832.476 850.561C834.496 851.665 836.358 851.318 838.377 853.211C840.397 855.104 840.144 857.913 840.428 860.816C840.428 862.047 844.025 862.267 844.657 865.991C844.709 866.91 845.103 867.777 845.761 868.421C846.621 869.636 847.124 871.068 847.212 872.554C847.424 875.031 847.954 877.471 848.79 879.812C850.052 882.967 853.713 885.839 855.732 888.742C857.406 891.288 858.484 894.179 858.888 897.199C859.456 899.944 860.97 902.594 861.791 905.34C863.054 907.797 864.635 910.078 866.492 912.124C867.471 913.639 867.187 914.68 867.692 916.131C868.196 917.583 869.9 918.687 870.847 919.729C873.056 922.221 876.306 922.884 878.357 926.04C879.176 927.368 879.613 928.897 879.619 930.457C879.665 930.794 879.781 931.117 879.96 931.405C880.14 931.694 880.378 931.941 880.661 932.13C881.828 933.013 882.743 933.076 883.816 934.528C884.49 935.753 885.009 937.056 885.362 938.409C886.12 940.429 888.518 942.227 889.717 944.373C890.909 946.762 891.881 949.254 892.62 951.82C893.44 954.534 894.418 954.975 896.627 956.458C899.234 957.776 901.577 959.563 903.538 961.728C905.185 963.98 906.642 966.365 907.892 968.859C909.497 971.053 910.822 973.438 911.837 975.959C912.435 978.685 912.742 981.467 912.752 984.258C912.641 986.203 912.641 988.152 912.752 990.096C913.168 991.377 913.443 992.7 913.572 994.04C913.49 995.126 913.234 996.191 912.815 997.196C912.529 997.682 912.337 998.217 912.247 998.773C912.247 999.247 912.878 999.878 913.225 1000.16C915.592 1002.31 914.393 1004.17 915.371 1005.62C916.349 1007.07 918.337 1008.05 919.599 1009.79C920.667 1011.72 921.211 1013.89 921.177 1016.1C921.398 1017.55 923.26 1018.18 924.332 1018.87C926.363 1020.41 927.938 1022.47 928.889 1024.83C929.839 1027.19 930.129 1029.77 929.728 1032.28C929.571 1034.15 928.813 1035.72 928.624 1037.52C928.516 1038.46 928.704 1039.41 929.16 1040.24L930.359 1040.71C932.076 1041.21 933.736 1041.89 935.313 1042.73C936.765 1043.71 937.901 1045 939.353 1046.11C940.821 1047.04 942.338 1047.89 943.896 1048.66C945.159 1049.51 946.105 1050.62 947.304 1051.44C950.902 1053.8 955.256 1054.59 958.159 1058.22C958.916 1059.11 959.043 1059.67 960.147 1059.33C961.475 1058.89 962.771 1058.36 964.028 1057.75C965.47 1056.72 967.083 1055.96 968.793 1055.51C970.878 1055.11 973.02 1055.11 975.104 1055.51C976.958 1055.7 978.694 1056.51 980.027 1057.81C980.784 1058.63 981.383 1059.67 982.425 1060.15C984.223 1060.97 985.138 1061.19 986.18 1063.3C986.513 1064.38 987.049 1065.39 987.758 1066.27C990.01 1067.28 992.425 1067.89 994.889 1068.07C996.359 1067.96 997.836 1067.96 999.307 1068.07C1000.82 1068.48 1001.52 1069.46 1002.78 1069.99C1006.97 1071.73 1012.24 1067.25 1017.01 1072.55C1019.09 1074.98 1021.87 1075.04 1024.77 1075.7C1026.39 1076.05 1027.89 1076.81 1029.13 1077.91C1029.76 1078.48 1030.99 1080 1031.81 1080.22C1032.09 1080.22 1033.83 1079.36 1034.52 1079.3C1035.85 1079.3 1036.79 1079.87 1037.68 1079.87C1038.61 1078.88 1039.3 1077.69 1039.7 1076.4C1039.56 1074.88 1039.08 1073.42 1038.31 1072.11C1037.65 1070.04 1037.12 1067.93 1036.73 1065.8C1036.1 1062.45 1035.53 1059.14 1035 1055.82C1033.61 1047.18 1032.38 1038.47 1031.18 1029.76C1030.7 1026.16 1025.43 986.656 1026 985.268C1026.84 982.983 1027.56 980.655 1028.15 978.294C1035.53 949.169 1048.12 920.044 1076.43 905.939C1085.89 901.576 1095.85 898.396 1106.09 896.473C1115.66 894.646 1125.08 892.05 1134.23 888.71C1137.15 887.537 1139.98 886.156 1142.69 884.577C1148.23 880.818 1153.15 876.219 1157.27 870.945C1162.51 864.723 1168.28 858.96 1174.5 853.716C1183.29 846.723 1193.14 841.183 1203.69 837.308C1210.94 834.625 1218.3 832.07 1225.55 829.45C1229.26 828.092 1233.07 827.036 1236.95 826.295C1236.95 826.295 1236.95 826.074 1237.17 826.011C1237.86 825.191 1238.62 824.433 1239.25 823.581C1239.88 822.729 1239.79 822.761 1240.01 822.287V822.003L1241.39 820.615C1242.02 818.867 1242.23 817 1242.03 815.156C1241.9 814.108 1241.9 813.049 1242.03 812.001C1242.31 810.044 1243.54 809.571 1244.36 808.182C1245.3 806.448 1245.67 804.458 1245.4 802.503C1245.21 800.641 1242.78 798.211 1241.81 796.633C1240.18 794.452 1239.28 791.812 1239.25 789.092C1239.53 785.936 1242.4 784.737 1243.41 782.529C1243.41 780.521 1243.03 778.532 1242.31 776.659C1241.54 773.807 1241.78 770.778 1242.97 768.076C1243.43 766.732 1243.97 765.415 1244.58 764.132C1245.3 763.104 1245.88 761.991 1246.32 760.819C1246.66 758.572 1246.87 756.306 1246.95 754.035C1247.3 751.952 1248.53 751.889 1249.28 750.721C1249.52 749.907 1249.52 749.042 1249.28 748.228C1248.73 746.015 1247.87 743.891 1246.73 741.917C1246.15 740.69 1245.68 739.412 1245.34 738.099C1245.13 736.722 1245.2 735.318 1245.53 733.966C1245.88 730.81 1247.33 726.897 1246.63 723.71C1246.16 721.541 1245.24 719.49 1243.95 717.683C1242.69 715.601 1240.8 714.086 1239.44 711.94C1238.81 710.836 1238.27 709.668 1237.58 708.627C1236.88 707.586 1236.06 706.829 1235.43 705.787C1234.44 703.908 1233.68 701.916 1233.16 699.855C1233.08 698.29 1232.85 696.736 1232.46 695.216C1230.13 692.408 1228.68 691.84 1228.27 687.706C1228.05 685.277 1227.51 685.687 1225.78 683.951C1222.49 680.902 1220.47 676.739 1220.1 672.276L1216.72 566.915C1214.35 566.915 1211.61 569.06 1209.71 570.07C1208.11 570.984 1206.32 571.533 1204.48 571.679C1203.87 571.807 1203.3 572.066 1202.8 572.437C1202.12 573.002 1201.31 573.396 1200.44 573.588C1199.58 573.78 1198.68 573.764 1197.82 573.541C1195.2 572.721 1194.91 570.922 1193.4 569.06C1193.12 568.713 1192.77 568.366 1192.52 568.019C1192.26 567.672 1191.25 566.757 1190.72 566.126C1189.6 564.713 1188.29 563.46 1186.84 562.402C1184.97 561.424 1184.12 561.866 1182.14 561.866C1177.34 561.866 1176.39 557.353 1173.62 556.659C1172.29 556.375 1170.46 557.417 1168.79 557.164C1166.48 556.722 1165.44 555.082 1163.64 554.009C1161.07 552.505 1158.27 551.438 1155.35 550.853C1153.72 550.536 1152.05 550.601 1150.45 551.042C1148.37 551.737 1147.49 553.693 1144.71 554.198C1140.14 555.239 1137.99 551.043 1134.9 551.453C1128.54 552.176 1122.22 553.229 1115.96 554.608C1111.82 555.482 1107.58 555.895 1103.34 555.839C1099.28 555.701 1095.21 555.976 1091.19 556.659C1089.15 557.193 1087.01 557.277 1084.93 556.907C1082.85 556.536 1080.88 555.72 1079.14 554.514C1076.2 553.039 1072.8 552.79 1069.67 553.819C1067.46 554.387 1066.01 555.965 1063.36 555.902C1060.21 555.902 1059.92 553.283 1058.25 553.409C1056.08 553.835 1053.85 553.835 1051.69 553.409C1050.41 552.871 1049.06 552.551 1047.68 552.463C1044.52 552.999 1042.54 556.817 1038.69 557.764C1034.84 558.71 1029.6 558.742 1027.14 555.302C1026.1 553.914 1024.83 552.715 1023.67 551.421C1023.1 550.853 1021.11 548.266 1020.51 548.108C1019.91 547.95 1018.65 549.118 1018.3 549.402C1015.4 552.115 1011.39 556.943 1006.88 555.365C1002.37 553.788 1001.58 548.171 998.991 545.173C998.044 544.006 996.435 540.566 995.268 539.998C994.1 539.43 993.185 540.756 992.112 541.26C989.493 542.365 988.452 541.26 986.243 540.282C985.012 539.714 983.277 540.472 981.415 540.061C979.809 540.171 978.199 539.91 976.711 539.297C975.222 538.684 973.895 537.736 972.832 536.527C972.264 535.928 971.381 534.476 970.623 534.192C969.866 533.908 968.257 534.729 967.152 534.666H966.679L966.269 534.413C964.249 533.025 959.611 534.413 956.518 533.561C954.909 533.088 953.047 533.214 951.375 532.867C949.702 532.52 947.241 532.047 945.064 531.826C943.837 531.776 942.647 531.39 941.623 530.712C940.6 530.033 939.782 529.087 939.258 527.976C937.585 524.568 936.102 519.267 932.947 517.121C929.791 514.975 925.216 517.31 921.208 516.963C917.201 516.616 915.182 513.019 912.215 513.524C909.249 514.029 908.618 514.975 905.904 513.524C903.191 512.072 903.696 510.211 902.37 508.822C901.045 507.434 899.814 507.718 898.647 504.878C898.2 503.496 897.328 502.291 896.155 501.435C894.981 500.579 893.567 500.116 892.115 500.113C891.293 500.217 890.462 500.014 889.78 499.545C889.449 499.325 889.174 499.031 888.977 498.685C888.78 498.34 888.666 497.954 888.644 497.557L888.455 497.273L892.557 371.685C841.091 369.886 789.625 367.867 738.191 365.942L721.151 663.22L514.846 650.913V651.103C515.16 651.193 515.458 651.331 515.729 651.513C516.124 651.764 516.503 652.038 516.865 652.333C517.749 652.965 518.727 653.596 518.917 654.605H518.98Z" fill="#F7F7FB"/>
<path fill-rule="evenodd" clip-rule="evenodd" d="M1156.01 144.49C1153.18 145.098 1150.22 144.577 1147.77 143.039C1146.04 142.101 1144.74 140.512 1144.18 138.621C1121.36 140.073 1098.2 140.325 1075.29 140.325C1047.43 140.325 1019.53 139.663 991.672 138.811C928.247 136.823 864.601 133.478 801.27 129.344L791.804 329.086C877.801 333.588 963.872 336.47 1050.02 337.732C1094.48 338.426 1138.97 338.773 1183.43 338.363L1178.26 197.345C1178.73 193.558 1173.14 190.245 1170.71 187.878C1168.28 185.512 1166.58 183.461 1164.4 181.567C1162.23 179.674 1159.29 178.633 1157.71 175.603C1156.14 172.574 1157.27 170.208 1157.15 167.305C1156.52 164.669 1156.66 161.91 1157.56 159.353C1159.29 155.408 1162.89 150.423 1160.17 146.352C1159.65 145.796 1159.02 145.355 1158.32 145.056C1157.62 144.757 1156.87 144.608 1156.1 144.617L1156.01 144.49Z" fill="#F7F7FB"/>
<path fill-rule="evenodd" clip-rule="evenodd" d="M1390.27 513.682C1392.07 510.779 1397.12 508.381 1399.27 510.937C1402.86 508.16 1401.13 495.632 1405.29 491.499L1405.7 491.089H1406.33C1407.27 491.079 1408.17 490.744 1408.89 490.142C1410.02 488.698 1410.74 486.975 1410.97 485.156C1411.51 482.316 1411.92 479.413 1412.61 476.573C1413.45 472.632 1415.22 468.948 1417.77 465.83C1420.33 462.711 1423.59 460.25 1427.29 458.65C1431.86 452.087 1422.11 439.717 1432.21 432.933C1434.26 430.314 1433.09 426.37 1433.57 423.12C1436.47 413.874 1445.3 407.027 1447.26 397.876C1444.5 398.046 1441.75 398.362 1439.03 398.822C1433.69 399.517 1421.92 401.978 1417.91 397.308C1413.91 392.638 1418.89 383.96 1421.32 379.732C1422.77 377.767 1423.57 375.408 1423.64 372.97C1423.7 370.533 1423.01 368.135 1421.67 366.1C1381.28 368.467 1340.95 370.96 1300.56 373.168C1277.94 374.431 1255.25 375.598 1232.63 376.639C1217.89 377.334 1202.96 378.091 1188.16 378.217L1195.04 565.337C1197.73 569.187 1198.2 570.386 1202.77 567.546L1203.18 567.262H1203.75C1208.39 567.262 1212.46 560.478 1218.61 562.907L1219.72 563.381L1221.17 608.062L1378.19 601.751C1377.86 599.219 1378.26 596.644 1379.35 594.336C1380.14 592.981 1380.78 591.541 1381.25 590.044C1381.25 588.656 1376.1 586.889 1375.16 586.668L1373.96 586.321V585.059C1373.96 579.474 1382.48 575.371 1380.05 571.017C1379.94 570.735 1379.78 570.477 1379.58 570.26C1378.41 570.26 1374.24 576.35 1372.92 577.517L1371.75 578.495L1370.58 577.454C1369.53 576.516 1368.78 575.285 1368.44 573.92C1368.11 570.979 1368.72 568.01 1370.17 565.432C1371.17 563.573 1372.01 561.63 1372.67 559.626C1373.61 554.766 1374.4 555.113 1377.43 551.8C1381.78 547.445 1379.58 540.03 1380.27 534.445V534.287C1380.37 533.391 1380.69 532.532 1381.18 531.776C1381.67 531.021 1382.33 530.39 1383.11 529.933C1384.3 529.654 1385.44 529.197 1386.49 528.576C1389.26 526.272 1384.4 515.133 1390.15 513.745L1390.27 513.682Z" fill="#F7F7FB"/>
<path fill-rule="evenodd" clip-rule="evenodd" d="M702.788 52.3195C709.099 -37.7379 715.41 -127.774 721.721 -217.79L394.087 -251.332L390.679 -228.707C378.857 -148.769 367.013 -68.8299 355.149 11.1089C382.033 15.2426 409.013 18.9977 435.929 22.658C471.46 27.4964 507.075 32.0403 542.773 36.2897C571.783 39.7187 600.792 42.9478 629.802 45.977C654.067 48.3752 678.491 50.6156 702.819 52.288L702.788 52.3195Z" fill="#F7F7FB"/>
<path fill-rule="evenodd" clip-rule="evenodd" d="M148.242 314.603C148.242 313.215 149.631 309.901 149.978 307.693C171.498 180.211 193.06 52.7298 214.665 -74.7516C167.606 -81.7357 120.779 -89.8032 74.183 -98.9541C25.6728 -108.421 -22.564 -118.939 -70.5273 -130.509L-114.704 47.8072L-120.226 64.6891L106.4 380.71V380.426V380.142C107.237 377.558 107.237 374.775 106.4 372.191L106.148 371.433L106.558 370.739C108.546 367.079 110.913 363.765 109.714 359.474C108.953 359.061 108.328 358.436 107.915 357.675C107.477 356.336 107.342 354.916 107.523 353.519C107.703 352.121 108.193 350.781 108.956 349.597C109.822 347.902 110.602 346.165 111.291 344.391C110.124 338.364 112.333 334.293 115.804 329.529C117.255 324.543 111.986 318.39 114.668 312.583V312.363C119.78 305.515 125.87 314.224 130.445 313.341H130.635H130.919C135.62 313.562 135.62 315.234 138.239 318.263C138.542 318.572 138.827 318.899 139.091 319.242C139.565 318.674 140.133 317.853 140.606 317.38C141.862 316.498 143.313 315.935 144.834 315.739C145.911 315.644 146.972 315.41 147.99 315.045L148.242 314.603Z" fill="#F7F7FB"/>
<path fill-rule="evenodd" clip-rule="evenodd" d="M1082.14 -100.28C1082.33 -98.9123 1082.27 -97.5217 1081.95 -96.1776C1081.73 -95.01 1081.26 -94.0319 1080.97 -93.0221C1080.4 -90.7502 1083.06 -87.5 1084.35 -85.8907L1084.85 -85.1965L1084.63 -84.3761C1083.18 -78.0651 1080.22 -72.827 1083.24 -66.3267L1083.4 -66.0427V-65.6956C1083.81 -59.3847 1080.97 -52.916 1083.59 -47.1099L1083.75 -46.7628V-46.3525H1084V-44.8379C1084.09 -43.985 1084.34 -43.1583 1084.76 -42.4082C1086.2 -40.2011 1087.14 -37.7008 1087.5 -35.0875C1087.73 -32.163 1088.13 -29.2547 1088.7 -26.3783C1089.52 -23.2229 1093.18 -21.6767 1093.94 -17.3221C1094.17 -15.7972 1093.99 -14.2376 1093.41 -12.8098C1093.03 -11.9921 1092.74 -11.1348 1092.55 -10.2539C1092.57 -9.93459 1092.65 -9.62212 1092.8 -9.33854C1092.94 -9.05497 1093.15 -8.80727 1093.41 -8.61304C1095.27 -6.65664 1096.21 -7.28771 1096.78 -3.75357C1097.07 -1.82873 1096.37 0.380104 1096.78 2.11562C1098.48 3.22119 1099.85 4.74701 1100.78 6.54435C1101.71 8.34168 1102.16 10.3492 1102.08 12.3709C1102.68 16.1775 1102.56 20.0618 1101.74 23.8253C1105.96 27.1701 1108.8 28.6847 1109.09 35.185C1108.8 37.7516 1108.69 40.3341 1108.74 42.9159C1109.09 44.8723 1111.9 46.955 1112.87 48.6589C1116.41 54.2126 1112.87 58.6934 1114.42 63.5528C1115.37 65.7086 1116.04 67.9783 1116.41 70.3055C1116.63 71.8438 1116.63 73.4058 1116.41 74.9441C1116.3 75.8876 1116.3 76.8405 1116.41 77.784C1116.78 79.3526 1117.74 80.7188 1119.09 81.6021C1122.66 84.3623 1125.11 88.3173 1126 92.741L1322.93 86.43L1323.41 87.3136C1325.52 90.4642 1328.37 93.0527 1331.71 94.8551C1336.91 83.6532 1352.6 81.4443 1351.55 69.138C1351.56 66.9038 1351.77 64.6747 1352.19 62.4799C1352.58 60.8499 1352.7 59.1638 1352.53 57.4942C1352.33 56.4577 1351.9 55.4783 1351.28 54.6231C1350.66 53.7679 1349.86 53.0573 1348.94 52.5402L1348.02 51.8459L1348.24 50.8046C1352.53 23.352 1384.15 34.1122 1389.55 5.01865C1388.57 -1.82874 1388.69 -8.77078 1388.35 -15.6813C1383.99 -20.5092 1379.23 -24.0433 1377.65 -30.8276C1373.71 -35.4661 1367.62 -36.9808 1366.01 -44.0175C1365.77 -44.987 1365.33 -45.8935 1364.71 -46.6732C1364.09 -47.4528 1363.3 -48.0866 1362.41 -48.5298C1360.98 -49.1712 1359.48 -49.617 1357.93 -49.8551C1355.16 -50.1051 1352.46 -50.8759 1349.98 -52.1271C1348.49 -53.1936 1347.3 -54.6246 1346.53 -56.2824C1345.76 -57.9402 1345.42 -59.7692 1345.56 -61.5935C1338.27 -73.8999 1334.55 -72.9848 1342.97 -86.8373C1342.56 -93.6847 1337.32 -99.2384 1336.66 -106.559C1329.81 -105.581 1322.75 -104.981 1315.83 -104.476C1305.45 -103.719 1295.01 -103.183 1284.56 -102.741C1258.91 -101.637 1233.26 -101.163 1207.6 -100.753C1165.82 -100.185 1124.11 -100.185 1082.33 -100.28H1082.14Z" fill="#F7F7FB"/>
<path fill-rule="evenodd" clip-rule="evenodd" d="M1899.13 717.084C1902.88 717.904 1903.42 713.928 1903.86 710.994C1903.42 706.418 1902.53 696.478 1907.64 694.049C1910.8 692.534 1916.42 694.743 1920.01 695.153C1922.35 695.526 1924.75 695.183 1926.89 694.17C1929.03 693.156 1930.81 691.519 1932.01 689.473C1929.89 684.099 1929.89 678.123 1932.01 672.749C1929.17 672.528 1925.35 671.834 1924.87 669.436C1924.18 665.397 1933.65 661.8 1933.71 657.035C1933.35 655.099 1932.63 653.248 1931.59 651.576C1930.44 649.998 1929.74 648.131 1929.58 646.18C1929.8 643.025 1933.46 640.91 1936.3 639.68C1935.62 638.073 1935.1 636.403 1934.75 634.694V633.653L1935.67 633.116C1938.28 631.602 1941.25 625.859 1939.8 623.019C1939.33 621.977 1937.81 621.63 1937.12 620.463C1936.73 619.7 1936.58 618.845 1936.66 617.996C1936.74 617.147 1937.07 616.34 1937.59 615.667C1937.95 614.863 1938.49 614.157 1939.18 613.608C1939.86 613.059 1940.67 612.683 1941.53 612.511C1943.21 612.29 1944.69 612.921 1946.24 612.795H1946.46C1950.46 612.795 1951.51 611.06 1952.45 607.462V607.115L1952.71 606.768C1953.35 606.158 1954.11 605.685 1954.95 605.38C1950.02 601.088 1944.85 595.629 1938.95 593.484C1938.16 593.292 1937.42 592.926 1936.78 592.413C1936.15 591.9 1935.64 591.252 1935.29 590.517C1934.89 588.742 1934.64 586.937 1934.53 585.122V584.711C1934.75 581.556 1931.69 580.01 1929.54 578.558L1929.01 578.211V577.643C1928.58 576.203 1927.86 574.865 1926.9 573.71C1925.94 572.555 1924.76 571.606 1923.42 570.922L1922.92 570.669L1922.73 570.228C1920.92 566.819 1919.41 563.261 1918.22 559.594C1917.36 556.664 1916.31 553.796 1915.06 551.011C1912.62 546.209 1908.6 542.397 1903.67 540.219C1885.78 529.08 1871.17 514.218 1854.85 501.06C1847.38 496.421 1846.49 497.904 1843.65 488.69C1842.92 486.523 1841.66 484.571 1839.99 483.01C1837.28 480.67 1834.98 477.885 1833.21 474.774C1831.95 471.961 1830.11 469.445 1827.81 467.39C1826.38 467.311 1824.98 466.892 1823.74 466.168C1822.5 465.444 1821.45 464.435 1820.68 463.225C1820.14 462.378 1819.34 461.726 1818.41 461.364C1816.06 460.776 1813.61 460.658 1811.21 461.016H1810.71L1810.24 460.764C1797.61 454.169 1800.55 438.676 1806.7 428.231C1780.51 433.911 1753.44 437.698 1726.9 441.042C1709.67 443.251 1692.38 445.176 1675.15 447.132L1711 587.867V588.214C1710.59 591.054 1710.11 595.566 1713.14 597.144C1716.17 598.722 1720.97 598.122 1722.61 602.824L1722.77 603.234V603.644C1722.45 605.601 1722.01 607.873 1723.9 608.977C1725.79 610.081 1727.4 610.996 1727.91 613.805C1728.6 618.033 1726.11 625.291 1724.75 629.298C1724.53 635.262 1727.44 640.658 1726.68 646.937C1727.25 653.248 1722.13 658.234 1722.73 663.756C1725.45 670.067 1726.49 677.041 1729.04 683.478V683.825V684.298C1728.63 688.306 1726.62 692.534 1730.37 695.563H1730.53C1734.6 700.959 1734.31 710.71 1737.97 716.737C1738.77 718.019 1739.43 719.384 1739.93 720.807C1740.05 721.123 1740.14 721.451 1740.18 721.785H1740.75C1741.86 721.628 1742.9 721.564 1743.91 721.501C1766 720.176 1788.46 718.093 1810.65 716.295L1860.19 712.161L1876.91 710.773C1878.93 710.773 1881.83 710.299 1883.88 710.299C1885.33 709.822 1886.86 709.668 1888.37 709.848C1889.88 710.028 1891.33 710.537 1892.62 711.341C1895.18 713.139 1896.29 715.348 1899.38 716.8L1899.13 717.084Z" fill="#F7F7FB"/>
<path fill-rule="evenodd" clip-rule="evenodd" d="M2143.42 31.0834C2148.56 26.3817 2153.39 21.3961 2158.16 16.4104C2158.27 13.9616 2159.26 11.6341 2160.93 9.84702C2161.17 8.9367 2161.2 7.98545 2161.02 7.06282C2160.84 6.14019 2160.45 5.26947 2159.89 4.51426C2158.09 0.727684 2158.91 -4.47886 2157.21 -8.10766C2155.72 -8.35545 2154.36 -9.08756 2153.33 -10.1903C2151.12 -12.5569 2150.9 -15.8701 2149.16 -18.079C2137.55 -24.1059 2144.21 -36.7594 2141.02 -46.1627C2140.51 -47.5126 2140.41 -48.9882 2140.76 -50.3923C2141.1 -51.7963 2141.87 -53.0619 2142.95 -54.0199C2145.63 -57.4278 2145.5 -61.4984 2149.26 -64.4645C2150.58 -69.6711 2151.06 -74.3096 2155 -78.2539C2154.24 -82.0405 2150.24 -82.6716 2146.77 -83.145L2146.23 -83.3027L2145.88 -83.6498C2143.8 -85.4485 2141.72 -89.235 2138.69 -88.6039C2137.62 -88.2772 2136.47 -88.3278 2135.44 -88.7473C2134.4 -89.1667 2133.55 -89.9296 2133.01 -90.9075C2131.79 -91.9435 2130.79 -93.2101 2130.06 -94.6344C2129.34 -96.0587 2128.9 -97.6125 2128.78 -99.2063C2128.81 -101.325 2128.6 -103.441 2128.18 -105.517C2127.2 -107.947 2123.04 -108.42 2120.89 -108.673H2120.29L2119.88 -109.083C2117.33 -111.539 2113.95 -112.947 2110.41 -113.027C2096.88 -109.556 2083.09 -106.464 2069.39 -103.34C2049.96 -98.9854 2030.52 -94.694 2011.08 -90.4657C1974.62 -82.5139 1938.13 -74.6988 1901.58 -67.0205L1899.72 -66.6102L1896.13 -93.8736C1884.99 -90.5288 1881.52 -75.1931 1867.98 -74.0256C1876.75 -21.6447 1885.53 30.6942 1894.33 82.991L2113.07 43.516C2114.23 41.3703 2116.03 40.8023 2117.36 39.0037C2117.56 38.7682 2117.71 38.49 2117.79 38.1896C2117.87 37.8893 2117.89 37.5744 2117.83 37.2681V36.4477L2118.46 35.9113C2121.77 32.8767 2125.85 30.8119 2130.25 29.9435C2134.65 29.0751 2139.21 29.4368 2143.42 30.9887V31.0834Z" fill="#F7F7FB"/>
<path fill-rule="evenodd" clip-rule="evenodd" d="M736.805 329.685C631.192 323.374 525.641 314.444 420.563 301.886L374.02 672.591L415.041 677.577C415.041 676.409 415.262 675.084 415.262 674.137C415.451 670.319 415.735 666.501 415.925 662.715C416.209 657.193 416.714 651.513 416.903 646.054V643.908L512.924 654.005C512.453 653.717 512.049 653.331 511.739 652.874C511.429 652.417 511.22 651.899 511.126 651.355C510.819 650.706 510.546 650.043 510.305 649.367L509.895 647.158L717.81 659.559C724.121 549.664 730.431 439.759 736.742 329.843L736.805 329.685Z" fill="#F7F7FB"/>
<path fill-rule="evenodd" clip-rule="evenodd" d="M1424.73 464.488C1461.12 462.174 1497.51 459.544 1533.88 456.599C1580.14 452.939 1626.33 448.837 1672.47 443.977C1695.31 441.548 1718.13 438.929 1740.81 435.805V433.722C1740.73 432.293 1740.73 430.86 1740.81 429.431L1741 428.137V427.947C1741.02 427.914 1741.03 427.876 1741.03 427.837C1741.03 427.798 1741.02 427.76 1741 427.727L1741.54 426.685C1741.51 426.604 1741.51 426.515 1741.54 426.433C1741.75 426.109 1741.98 425.803 1742.23 425.518C1742.9 424.697 1743.46 424.413 1743.46 423.246C1743.23 421.921 1743.07 420.583 1742.99 419.238C1742.96 418.913 1742.96 418.585 1742.99 418.26C1742.99 418.26 1742.99 418.039 1742.99 417.913C1743.51 416.106 1744.62 414.527 1746.15 413.432C1747.83 412.486 1749.46 411.432 1751.01 410.277L1751.42 409.867C1751.58 409.789 1751.72 409.669 1751.83 409.519C1753.45 407.239 1754.88 404.833 1756.12 402.325C1756.4 401.915 1756.62 401.505 1756.88 401.094C1757.65 399.708 1758.5 398.37 1759.43 397.087C1760.7 395.327 1762.25 393.782 1764.01 392.511C1765.47 391.307 1767.2 390.473 1769.06 390.082C1770.11 390.102 1771.17 390.007 1772.21 389.798L1773.6 389.608H1774.07C1775.76 388.909 1777.58 388.555 1779.41 388.567C1780.82 388.675 1782.22 388.26 1783.35 387.4L1784.45 386.579C1784.72 386.49 1784.97 386.374 1785.21 386.232C1785.37 386.074 1785.57 385.955 1785.78 385.885C1786.06 385.538 1786.47 384.433 1786.76 384.023L1787.17 383.55C1788.31 381.991 1789.71 380.636 1791.3 379.542C1791.66 379.258 1792.04 379.004 1792.44 378.785C1792.85 378.564 1793.19 378.28 1793.6 378.091C1794.03 377.928 1794.44 377.738 1794.84 377.523H1795.18C1795.49 377.354 1795.82 377.237 1796.16 377.176C1797.74 376.545 1799.32 376.071 1801.15 375.503C1802.19 375.201 1803.13 374.636 1803.89 373.863C1804.3 373.459 1804.67 373.015 1805 372.537C1805.26 372.227 1805.48 371.876 1805.63 371.496C1805.82 371.162 1805.99 370.814 1806.13 370.455C1806.35 369.948 1806.51 369.419 1806.61 368.877C1807.18 366.232 1807.96 363.636 1808.94 361.114C1809.22 360.294 1809.57 359.474 1809.92 358.622C1810.42 357.661 1810.97 356.733 1811.59 355.845C1811.74 355.701 1811.88 355.542 1812 355.371C1812.29 355.009 1812.59 354.661 1812.92 354.33C1814.2 352.908 1815.82 351.825 1817.62 351.175C1818.06 351.016 1818.53 350.951 1818.99 350.984C1819.46 351.017 1819.92 351.146 1820.33 351.364C1820.6 351.506 1820.83 351.699 1821.03 351.932C1821.75 352.818 1822.11 353.946 1822.04 355.087C1822.04 355.371 1822.04 355.656 1822.04 355.845C1822.04 356.034 1822.04 356.129 1822.04 356.255C1822.04 356.381 1822.04 356.949 1822.04 357.296C1822 357.469 1821.94 357.638 1821.88 357.801C1821.88 357.801 1821.88 358.148 1821.88 358.338C1821.88 358.527 1821.88 358.558 1821.88 358.622C1821.88 358.685 1821.88 359.032 1821.88 359.253C1821.86 359.282 1821.86 359.315 1821.86 359.347C1821.86 359.38 1821.86 359.412 1821.88 359.442V360.357C1821.83 360.766 1821.83 361.179 1821.88 361.588V362.093C1821.88 362.282 1821.88 362.503 1821.88 362.692C1821.88 362.882 1823.2 362.85 1823.61 362.692L1824.31 362.408H1824.56C1824.78 362.25 1825 362.187 1825.19 362.061H1825.35L1826.39 361.588C1826.77 361.423 1827.14 361.234 1827.49 361.02C1828.25 360.546 1828.95 359.978 1829.7 359.442C1830.87 358.141 1831.92 356.748 1832.86 355.277C1834.22 353.179 1836.07 351.446 1838.26 350.228C1840.23 349.485 1842.1 348.511 1843.84 347.325C1845.04 345.684 1843.84 344.17 1846.14 342.371L1842.04 314.824C1830.02 316.496 1818 317.979 1806.01 319.872C1785.05 322.775 1764.04 325.836 1743.09 328.455H1742.68C1738.64 328.929 1734.57 329.497 1730.5 329.97C1727.53 330.317 1724.53 330.664 1721.57 331.074L1718.88 331.358L1715.7 330.664L1708.63 331.485L1704.62 331.958C1690.86 333.567 1677.17 335.113 1663.41 336.47L1657.1 337.101H1656.5C1653.34 337.448 1650.19 337.732 1647.03 337.985C1646.78 337.985 1646.43 337.985 1646.09 338.143C1644.22 338.143 1642.43 338.49 1640.53 338.616C1635.7 339.089 1630.88 339.499 1626.02 339.941L1620.62 340.351C1615.04 340.825 1609.42 341.298 1603.8 341.645L1598.41 342.087L1594.68 342.276C1592.82 342.434 1591.02 342.56 1589.16 342.623C1583.26 343.034 1577.39 343.318 1571.59 343.602C1569.79 343.602 1567.99 343.791 1566.19 343.791C1564.39 343.791 1562.47 344.012 1560.57 344.075C1558.68 344.138 1557.07 344.075 1555.27 344.233C1549.18 344.233 1543.03 344.485 1536.88 344.422L1536.02 361.02H1534.45C1520.34 361.525 1506.24 361.935 1492.19 362.345C1480.3 362.692 1468.31 363.102 1456.51 363.165C1456.42 363.349 1456.34 363.539 1456.28 363.734C1456.09 364.375 1455.83 364.998 1455.53 365.595C1453.84 367.71 1452.64 370.164 1451.99 372.79C1451.35 379.227 1451.19 385.703 1451.52 392.164C1451.52 393.315 1451.45 394.464 1451.3 395.604C1449.61 403.241 1446.08 410.349 1441.01 416.304C1439.12 418.256 1437.8 420.69 1437.19 423.34C1436.5 427.695 1438.3 431.166 1434.86 435.11C1432.71 437.603 1431.17 437.793 1431.04 441.421C1431.14 444.642 1431.42 447.855 1431.86 451.046C1432.27 455.116 1433.06 457.83 1429.81 461.08C1428.33 462.369 1426.67 463.432 1424.89 464.235L1424.73 464.488Z" fill="#F7F7FB"/>
<path fill-rule="evenodd" clip-rule="evenodd" d="M451.358 28.4007C418.477 23.9515 385.629 19.4076 352.907 14.4219L351.203 14.1379L361.71 -56.8919C313.705 -61.4148 265.836 -67.1998 218.105 -74.2471L161.937 258.088C246.472 274.907 331.954 287.686 417.531 298.005L451.358 28.4007Z" fill="#F7F7FB"/>
<path fill-rule="evenodd" clip-rule="evenodd" d="M1538.77 193.685C1538.77 192.644 1538.99 191.539 1539.05 190.53C1539.12 189.52 1539.05 188.794 1539.27 187.753C1537.67 184.439 1533.37 183.177 1531.73 178.476C1529.3 171.628 1532.62 170.871 1534.07 165.191C1537.07 153.453 1533.18 136.792 1532.08 124.675C1527.57 76.459 1522.87 28.338 1518.39 -19.8778C1518.04 -20.6351 1517.69 -21.4871 1517.34 -22.2444C1515.2 -27.0091 1512.48 -31.4268 1510.28 -36.1285C1507.6 -42.2901 1506.23 -48.9423 1506.27 -55.6609L1369.89 -43.039C1372.03 -38.8737 1377.43 -36.4441 1380.4 -32.7206L1380.68 -32.4366V-32.0264C1381.97 -25.7154 1387.18 -22.0551 1391.12 -17.5743L1391.54 -17.101V-16.4698C1391.95 -9.46468 1391.76 -2.2071 1392.77 4.7034V4.98738V5.23982C1387.24 36.3844 1356.19 26.5709 1351.56 50.2685C1352.66 51.0403 1353.6 52.0284 1354.31 53.173C1355.02 54.3175 1355.49 55.5946 1355.69 56.9266C1356.32 60.8078 1354.68 64.9415 1354.81 68.949C1356.04 84.5055 1337.86 85.957 1333.98 97.8531C1333.98 98.074 1333.98 98.358 1333.98 98.642C1333.98 101.04 1335.9 104.953 1336.19 107.761C1336.6 111.548 1335.21 114.072 1334.96 117.512C1334.52 123.034 1338.11 129.629 1339.03 135.151C1340.1 140.9 1342.78 146.228 1346.76 150.518C1350.7 155.409 1356.73 156.577 1360.55 162.13C1361.99 164.824 1363.91 167.239 1366.2 169.262C1368.69 171.123 1371.94 171.25 1374.37 173.742C1379.01 178.507 1379.29 186.049 1380.68 192.139C1381.28 195.131 1382.87 197.834 1385.19 199.807C1385.93 200.609 1386.8 201.291 1387.75 201.826C1388.16 201.826 1389.39 200.248 1389.74 199.964C1390.81 198.543 1392.24 197.426 1393.88 196.723C1395.52 196.021 1397.32 195.757 1399.09 195.957C1400.86 196.158 1402.55 196.816 1403.99 197.867C1405.44 198.918 1406.58 200.326 1407.31 201.952C1409.07 205.284 1410 208.985 1410.04 212.749C1410.08 216.513 1409.22 220.233 1407.53 223.599C1406.24 226.26 1405.4 229.118 1405.04 232.056C1404.92 233.772 1404.59 235.467 1404.06 237.104C1403.59 238.398 1402.26 239.787 1402.04 241.049C1401.73 242.585 1402 244.182 1402.8 245.53C1404.76 248.433 1409.4 250.389 1411.95 253.229C1415.33 257.016 1421.07 265.188 1425.71 266.987C1428.61 268.091 1432.78 265.314 1436.22 267.586C1439.66 269.858 1438.49 274.308 1439.81 277.211C1441.14 280.114 1444.33 281.975 1446.12 284.563C1448.2 287.592 1449.3 291.18 1449.28 294.85C1449.75 299.551 1447.77 310.406 1450.61 314.003C1453.06 316.274 1455.26 318.803 1457.17 321.545C1459.03 324.953 1459.25 323.849 1462.98 324.858C1464.2 325.253 1465.33 325.898 1466.29 326.752C1467.98 325.482 1469.35 323.841 1470.3 321.955C1473.67 317.19 1475.82 312.331 1482.38 311.574C1487.78 310.943 1492.29 312.899 1497.53 313.499H1497.97C1498.63 313.715 1499.33 313.79 1500.02 313.719C1500.71 313.649 1501.37 313.434 1501.98 313.088C1503.71 311.007 1504.93 308.54 1505.51 305.894C1505.51 304.789 1506.39 302.928 1506.27 302.581C1505.64 300.782 1502.92 299.835 1502.92 296.932C1502.91 296.4 1503 295.869 1503.19 295.37C1503.38 294.872 1503.66 294.416 1504.03 294.029C1507.63 290.148 1518.29 295.418 1518.98 290.558C1518.23 287.403 1515.83 285.226 1515.83 281.565C1515.8 280.868 1515.91 280.171 1516.16 279.52C1516.41 278.868 1516.79 278.275 1517.28 277.779C1518.54 276.39 1520.94 275.696 1521.79 274.371C1522.64 273.235 1523.05 271.838 1522.96 270.426C1520.4 265.659 1519.76 260.095 1521.16 254.87C1521.79 252.251 1524.32 247.802 1524 245.403C1523.43 241.743 1520.25 241.932 1521.79 236.347C1522.74 232.687 1526.27 230.257 1527.6 226.881C1528.92 223.504 1529.33 220.57 1530.75 217.256C1534.19 211.677 1536.07 205.283 1536.21 198.734V197.219H1537.7L1538.71 197.03C1538.86 196.241 1538.52 195.137 1538.71 193.874L1538.77 193.685Z" fill="#F7F7FB"/>
<path fill-rule="evenodd" clip-rule="evenodd" d="M1992.72 111.327C1992.72 111.327 1992.72 111.106 1992.72 111.043L1992.94 110.633C1992.94 110.412 1992.94 110.222 1992.94 110.065L1993.57 108.203C1993.57 108.045 1993.57 107.982 1993.57 107.856C1993.57 107.73 1993.79 107.225 1993.92 106.941L1994.42 105.71C1994.68 105.242 1994.92 104.757 1995.11 104.258V104.006C1995.51 102.832 1995.82 101.63 1996.03 100.409L1996.22 98.7364C1996.22 98.1684 1996.22 97.632 1996.22 97.064C1996.38 92.6463 1995.87 86.714 1998.02 82.4226H1997.77C1997.32 82.4226 1996.91 82.4226 1996.5 82.2648H1995.68L1994.07 82.0755L1991.33 81.7284C1991.33 81.7284 1990.98 81.7284 1990.76 81.7284H1989.94C1989.75 81.7627 1989.56 81.7627 1989.37 81.7284H1988.68C1983.58 81.4849 1978.56 83 1974.45 86.0198C1972.22 87.1152 1970.15 88.5056 1968.29 90.1535C1966.91 92.1112 1965.76 94.2304 1964.89 96.4644C1961.51 102.271 1955.89 97.5058 1953.56 101.419C1952.58 103.091 1952.8 106.278 1951.88 108.424C1950.89 110.544 1949.39 112.395 1947.53 113.82C1947.12 115.208 1945.61 115.555 1944.37 116.092L1941.82 117.417V114.577C1941.58 111.631 1941.17 108.702 1940.59 105.805C1939.89 101.86 1939.61 97.8529 1939.26 93.9085C1938.92 89.9642 1938.63 86.43 1938.28 82.675C1938.28 81.5706 1938.1 80.4031 1937.97 79.2356L1890.92 87.7238L1880.54 26.0342C1879.25 27.2333 1877.38 27.7066 1876.59 28.8741C1876.06 30.8936 1876.75 32.8816 1875.77 35.1851C1876.25 36.1001 1876.75 37.0783 1877.16 38.025C1879.55 43.0544 1880.08 48.7638 1878.68 54.1495C1877.6 57.914 1876.31 61.6123 1874.8 65.2252C1873.77 69.0061 1873.36 72.9259 1873.57 76.8374C1873.57 80.4977 1875.49 83.811 1875.49 87.7553C1875.64 89.9547 1875.36 92.1616 1874.67 94.2556V94.5396L1874.48 94.7605C1872.84 96.2158 1870.97 97.3984 1868.96 98.2631C1866.79 99.3279 1865.04 101.081 1863.97 103.249C1862.5 106.049 1861.24 108.961 1860.22 111.958C1857.85 116.138 1854.81 119.901 1851.22 123.097C1848.07 125.463 1842.8 126.568 1840.65 129.187L1840.43 129.471L1840.12 129.692C1837.43 131.099 1835.06 133.056 1833.18 135.435C1832.49 138.285 1832.33 141.236 1832.7 144.144C1832.7 146.889 1833.33 148.151 1830.97 150.455L1830.78 150.676H1830.49C1828.07 151.523 1825.44 151.567 1822.98 150.802C1822.38 150.516 1821.81 150.144 1821.31 149.697C1820.9 149.287 1819.51 147.899 1819.04 147.836C1818.57 147.773 1818.06 148.372 1817.93 148.53L1817.59 148.877C1815.79 151.023 1816.23 157.334 1814.62 160.71C1813.45 163.55 1812.35 164.591 1813.39 167.778C1813.88 168.916 1814.53 169.979 1815.32 170.934C1816.02 171.717 1816.56 172.636 1816.89 173.635C1817.23 174.633 1817.36 175.69 1817.27 176.74C1817 178.416 1816.14 179.939 1814.84 181.031C1812.63 183.24 1812.07 182.609 1809.92 183.24C1808.41 184.755 1809.32 188.541 1806.32 190.782C1803.92 192.58 1798.02 191.634 1794.55 191.823C1796.84 202.622 1802.24 213.55 1807.17 223.378C1811.19 230.507 1815.83 236.295 1821.37 242.311C1823.16 244.445 1826.23 247.452 1827.24 250.042C1827.52 250.993 1827.87 251.921 1828.28 252.818C1828.6 253.229 1830.9 253.355 1831.44 253.45C1831.93 253.464 1832.42 253.549 1832.89 253.702C1835.27 254.92 1837.16 256.928 1838.22 259.382C1839.03 261.083 1840.09 262.647 1841.38 264.02C1841.84 264.488 1842.21 265.033 1842.48 265.63C1842.55 266.038 1842.55 266.452 1842.48 266.86C1842.45 266.95 1842.43 267.047 1842.43 267.144C1842.43 267.242 1842.45 267.338 1842.48 267.428V267.618V267.839C1842.52 268.489 1842.79 269.104 1843.24 269.574C1843.94 270.331 1846.4 270.268 1847.38 269.984C1849.4 268.943 1851.51 268.088 1853.69 267.428C1855.83 267.018 1858.04 266.923 1860 266.513C1862.21 265.873 1864.48 265.44 1866.78 265.22C1868.37 265.464 1869.99 265.389 1871.55 264.999C1874.04 263.768 1876.12 261.622 1878.74 260.297C1881.6 258.778 1884.3 256.97 1886.79 254.901C1888.02 253.86 1889.19 252.882 1890.45 251.935C1891.01 251.609 1891.59 251.314 1892.18 251.051C1894.2 250.073 1896.47 249.663 1898.49 248.748C1898.85 248.522 1899.22 248.321 1899.6 248.148L1899.79 247.927C1900.16 247.706 1900.51 247.453 1900.83 247.17C1901.21 246.877 1901.55 246.55 1901.87 246.192C1901.87 246.192 1902.03 245.971 1902.09 245.908C1902.32 245.691 1902.53 245.459 1902.72 245.214C1902.75 245.143 1902.75 245.064 1902.72 244.993C1902.93 244.806 1903.11 244.594 1903.26 244.362C1904.6 242.959 1905.79 241.414 1906.79 239.755V239.534C1907.13 239.03 1907.61 238.644 1908.18 238.429C1908.74 238.214 1909.36 238.181 1909.95 238.335H1910.17C1910.17 238.335 1910.17 238.114 1910.36 238.114L1910.86 237.42L1911.05 237.167C1911.18 236.903 1911.33 236.65 1911.49 236.41C1911.49 236.189 1911.68 236.063 1911.75 235.842C1912.25 235.022 1912.66 234.264 1913.14 233.507C1914.87 230.351 1916.29 226.975 1917.77 223.82L1918.18 222.778C1918.48 222.143 1918.73 221.489 1918.94 220.822V220.569C1919.19 219.812 1919.48 219.023 1919.7 218.266C1920.93 214.606 1921.97 210.882 1923.01 207.064C1923.01 206.717 1923.23 206.37 1923.3 206.023C1923.49 205.139 1923.99 203.972 1924.24 203.12C1924.63 202.176 1925.23 201.331 1925.99 200.648C1926.75 199.966 1927.65 199.462 1928.63 199.175C1928.63 199.175 1928.82 199.175 1928.94 199.175C1930.15 198.972 1931.26 198.385 1932.1 197.503C1932.33 197.22 1932.54 196.925 1932.73 196.619C1932.95 196.272 1933.14 195.925 1933.36 195.641C1933.49 195.424 1933.58 195.19 1933.65 194.947C1933.65 194.663 1933.65 194.474 1933.65 194.19C1933.65 193.211 1933.65 192.265 1933.65 191.287C1933.52 190.375 1933.58 189.448 1933.82 188.56C1934.06 187.671 1934.47 186.839 1935.03 186.112C1935.65 185.469 1936.18 184.747 1936.61 183.966C1936.7 183.815 1936.77 183.656 1936.83 183.493L1937.05 182.988C1937.05 182.988 1937.05 182.735 1937.05 182.577C1937.22 181.715 1937.43 180.862 1937.68 180.022C1938.16 177.75 1938.51 175.478 1939.04 173.174C1939.26 172.354 1939.48 171.596 1939.67 170.839C1940.42 168.359 1941.73 166.082 1943.49 164.181L1943.96 163.771C1944.1 163.59 1944.26 163.431 1944.44 163.298L1945.54 162.382C1945.72 162.314 1945.89 162.218 1946.05 162.098L1946.33 161.909C1946.61 161.75 1946.9 161.632 1947.21 161.562C1947.21 161.562 1947.37 161.562 1947.44 161.562H1947.72L1949.01 161.152L1951.51 160.584L1952.77 160.394H1953.4C1953.95 160.363 1954.49 160.363 1955.04 160.394H1955.32H1955.61C1956.36 160.664 1957.08 161.013 1957.75 161.436C1958.39 161.693 1959 162.033 1959.55 162.446C1959.73 162.476 1959.91 162.476 1960.09 162.446H1961.82L1962.52 161.751C1962.52 161.751 1962.52 161.751 1962.74 161.751C1962.87 161.616 1963.02 161.5 1963.18 161.404C1964.06 160.491 1964.75 159.42 1965.23 158.249V158.091C1965.58 157.586 1965.99 157.113 1966.34 156.639C1967.09 155.661 1967.79 154.62 1968.48 153.673L1968.89 153.042L1969.87 151.654C1971.03 149.701 1972.08 147.69 1973.03 145.627C1973.37 144.806 1973.66 143.891 1973.97 143.008C1973.97 142.598 1974.26 142.187 1974.41 141.84C1974.41 141.84 1974.41 141.682 1974.41 141.619V141.146C1974.41 140.799 1974.64 140.452 1974.76 140.105C1974.89 139.758 1975.17 139.063 1975.39 138.59C1975.52 138.178 1975.68 137.777 1975.87 137.391C1975.95 137.32 1976.01 137.218 1976.02 137.107C1976.25 136.634 1976.43 136.16 1976.72 135.655C1977 135.151 1977.25 134.772 1977.6 134.267L1978.01 133.857C1978.34 133.535 1978.68 133.24 1979.05 132.973H1979.27C1979.59 132.77 1979.94 132.63 1980.32 132.563L1981.07 132.342H1981.61H1982.37C1982.65 132.279 1982.92 132.161 1983.16 131.995L1983.57 131.427C1983.71 131.11 1983.82 130.783 1983.91 130.449C1983.95 130.219 1983.95 129.985 1983.91 129.755C1983.95 129.641 1983.95 129.521 1983.91 129.408C1983.95 129.156 1983.95 128.902 1983.91 128.65C1983.96 127.936 1983.96 127.219 1983.91 126.505C1983.88 126.327 1983.88 126.146 1983.91 125.968C1984.48 123.882 1985.22 121.846 1986.12 119.878C1987.39 117.97 1988.8 116.165 1990.35 114.482L1990.76 113.946L1992.72 111.327Z" fill="#F7F7FB"/>
<path fill-rule="evenodd" clip-rule="evenodd" d="M2032.22 512.199C2037.68 508.602 2039.7 498.914 2042.16 493.518C2044.94 487.649 2047.3 481.622 2049.92 475.69C2052.5 470.519 2056.05 465.892 2060.37 462.058L1991.89 414.726L1931.15 424.603L1920.8 411.097C1919.19 411.097 1917.65 411.697 1915.88 411.697H1915.66H1915.47C1912 410.876 1912.31 407.342 1911.52 404.786L1864.63 407.942C1862.1 410.022 1858.92 411.14 1855.64 411.097C1852.79 410.991 1849.93 411.203 1847.12 411.728C1844.69 412.202 1842.33 415.483 1839.99 416.714C1836.17 418.923 1833.68 416.935 1830.87 418.039C1829.64 419.013 1828.22 419.712 1826.71 420.09C1825.2 420.619 1823.6 420.833 1822 420.722C1819.37 421.324 1816.9 422.475 1814.75 424.098C1813.73 424.893 1812.8 425.792 1811.97 426.78C1810.1 428.96 1808.63 431.448 1807.61 434.132C1807.11 436.057 1806.92 438.045 1806.29 439.938V440.128V440.349C1805.45 441.242 1804.9 442.358 1804.68 443.563C1804.47 444.767 1804.61 446.008 1805.09 447.133C1806.19 450.509 1807.36 456.599 1811.4 457.514C1814.56 458.114 1817.02 456.726 1820.68 458.209C1822.48 459.464 1823.95 461.13 1824.97 463.068C1825.17 463.326 1825.47 463.496 1825.79 463.541C1826.74 463.433 1827.7 463.497 1828.63 463.731C1831.84 466.003 1834.34 469.145 1835.82 472.787C1838.73 478.593 1844.34 480.265 1846.49 487.239C1848.98 495.254 1849.46 493.55 1856.3 497.747C1860.25 500.177 1862.61 504.058 1866.12 506.551C1870.41 509.296 1874.35 512.546 1878.46 515.607C1885.49 520.94 1888.39 528.229 1897.1 531.574C1900.03 532.948 1902.74 534.744 1905.15 536.906C1907.8 539.09 1910.71 540.954 1913.8 542.46C1916.26 544.101 1917.52 548.771 1918.85 551.453C1919.45 553.189 1919.9 554.973 1920.2 556.786V557.038V557.859C1920.69 558.959 1921.27 560.015 1921.94 561.014C1922.88 563.065 1923.39 566.883 1924.75 568.272C1925.6 568.848 1926.48 569.375 1927.4 569.849C1928.07 570.316 1928.59 570.961 1928.91 571.711C1930.06 573.029 1930.93 574.564 1931.47 576.224C1932.7 577.265 1934.37 577.864 1935.7 579.127L1935.89 579.316V579.6C1936.67 581.202 1937.17 582.934 1937.34 584.712C1937.39 586.225 1937.55 587.732 1937.81 589.224C1938.03 589.761 1938.79 590.045 1939.32 590.265C1942.95 591.476 1946.21 593.594 1948.79 596.419L1949.01 596.608V596.892C1949.63 597.717 1950.47 598.343 1951.44 598.691C1953.23 599.952 1954.92 601.356 1956.49 602.887C1957.62 601.439 1958.48 599.805 1959.05 598.059C1959.18 597.395 1959.23 596.717 1959.2 596.04C1959.2 593.642 1959.49 591.401 1961.48 590.171C1961.13 587.015 1952.96 580.704 1958.92 576.602L1961.19 575.025L1961.7 577.707C1962.04 579.726 1965.99 583.797 1967.79 581.178C1969.59 578.559 1962.8 576.823 1964.95 571.49C1967.09 566.158 1972.39 568.871 1974.76 566.915C1977.13 564.959 1977.54 560.225 1978.23 557.859L1978.7 556.344L1981.86 556.912V558.427C1981.86 559.197 1981.98 559.963 1982.21 560.699C1986.5 560.068 1992.3 556.754 1992.24 552.337C1992.24 550.475 1990.98 548.676 1991.55 546.72C1991.89 545.881 1992.44 545.146 1993.16 544.592C1993.87 544.038 1994.72 543.683 1995.62 543.564C1997.32 543.218 1999.09 543.42 2000.67 544.139C2002.25 544.859 2003.56 546.061 2004.42 547.572C2009.6 544.795 2010.51 539.683 2011.96 534.224C2014.3 525.294 2018.59 526.272 2025.22 526.272C2024.68 524.379 2023.92 522.391 2023.42 520.656C2021.97 515.733 2021.21 509.864 2026.83 507.245L2028.06 506.677L2028.97 507.781C2029.89 509.104 2030.61 510.548 2031.12 512.073L2032.22 512.199Z" fill="#F7F7FB"/>
<path fill-rule="evenodd" clip-rule="evenodd" d="M1645.17 216.309C1646.54 211.684 1647.59 206.971 1648.33 202.204C1648.96 195.893 1648.33 192.58 1655.3 190.434C1657.73 189.614 1660.44 190.434 1662.3 189.835C1664.17 189.235 1664.86 186.837 1667.42 185.954C1670.95 184.565 1674.14 185.449 1677.51 184.691C1678.85 184.455 1680.08 183.778 1680.99 182.767C1685.34 178.002 1678.78 176.613 1680.99 170.397C1682 168.257 1683.73 166.538 1685.88 165.538L1659.21 -19.5942L1658.11 -24.5483C1652.02 -23.6648 1645.71 -23.0337 1639.55 -22.3395C1629.39 -21.2982 1619.23 -20.2568 1608.98 -19.184C1595.22 -17.8587 1581.41 -16.607 1567.55 -15.429C1566.65 -14.4628 1565.68 -13.5662 1564.64 -12.7468C1562.37 -10.9482 1560.1 -9.21271 1557.67 -7.63497C1547.92 -1.32401 1533.47 3.03056 1524.82 -7.47719C1524.07 -8.38188 1523.38 -9.33017 1522.74 -10.3171C1527.03 34.5538 1531.38 79.5194 1535.36 124.485C1536.56 137.265 1540.5 153.736 1537.32 166.2C1536.94 167.583 1536.44 168.925 1535.8 170.208C1535.36 171.028 1534.89 171.943 1534.54 172.764C1534.11 174.324 1534.23 175.985 1534.89 177.465C1536.21 181.284 1540.85 182.577 1542.55 186.932L1543.53 189.362H1542.49C1542.49 190.876 1542.21 192.517 1542.14 193.937V194.221C1541.86 195.389 1542.55 196.493 1541.92 198.039C1541.71 198.528 1541.38 198.959 1540.96 199.294C1540.54 199.628 1540.05 199.858 1539.52 199.964C1539.1 206.544 1537.11 212.928 1533.72 218.581C1532.27 221.548 1531.76 224.892 1530.56 227.89C1529.36 230.888 1525.58 234.201 1524.88 236.82C1524.68 237.277 1524.57 237.771 1524.57 238.272C1524.57 238.772 1524.68 239.266 1524.88 239.723C1525.96 241.096 1526.7 242.708 1527.03 244.425C1527.6 248.306 1524.98 251.619 1524.13 255.216C1523.53 257.544 1523.39 259.967 1523.72 262.348C1526.56 255.437 1533.18 255.721 1540.53 254.333C1548.44 252.809 1556.6 253.209 1564.33 255.5C1566.19 255.911 1568.21 257.173 1570.07 256.889C1572.47 256.542 1572.06 254.806 1574.61 253.733C1580.01 251.525 1581.62 253.733 1586.6 254.365C1588.25 254.504 1589.9 254.293 1591.45 253.747C1593.01 253.2 1594.43 252.33 1595.62 251.194C1596.81 250.057 1597.75 248.681 1598.37 247.155C1599 245.629 1599.29 243.989 1599.23 242.342H1597.02L1596.86 240.733C1596.83 238.648 1597.52 236.618 1598.82 234.989C1600.13 233.361 1601.95 232.234 1603.99 231.803C1608.98 231.046 1609.32 233.601 1612.42 235.905C1614.03 237.009 1618.57 241.49 1620.24 241.648C1620.52 241.65 1620.8 241.597 1621.06 241.49C1621.87 241.162 1622.64 240.75 1623.37 240.259C1624.58 239.57 1625.95 239.191 1627.34 239.155C1628.59 239.091 1629.84 239.375 1630.94 239.976C1631.32 240.232 1631.72 240.464 1632.14 240.67C1632.68 240.091 1633.15 239.444 1633.53 238.745C1634.54 236.946 1633.94 232.181 1634.06 229.941C1634.54 220.979 1637.79 219.433 1645.08 216.467L1645.17 216.309Z" fill="#F7F7FB"/>
<path fill-rule="evenodd" clip-rule="evenodd" d="M1839.71 273.234C1839.07 272.288 1838.44 271.025 1838.44 269.763C1838.44 269.763 1838.44 269.448 1838.44 269.132C1838.44 268.817 1838.44 268.501 1838.44 268.501C1836.23 266.608 1834.97 263.768 1833.39 261.243C1833.39 260.928 1833.08 260.928 1833.08 260.612C1833.08 260.612 1832.76 260.297 1832.76 259.981L1832.45 259.35C1832.45 259.35 1832.45 259.35 1832.13 259.035C1831.82 259.035 1831.82 258.719 1831.5 258.719C1831.19 258.719 1830.87 258.403 1830.56 258.403C1829.92 258.403 1829.29 258.403 1828.66 258.719L1825.51 265.03V261.874C1824.88 262.821 1824.24 263.768 1823.3 264.399C1822.35 265.345 1821.4 266.292 1820.46 267.239C1820.14 267.554 1819.83 267.87 1819.51 267.87H1819.2C1818.56 268.185 1818.25 268.501 1817.62 268.501C1816.99 268.817 1816.04 269.448 1815.41 269.763C1815.41 269.763 1815.41 269.763 1815.09 269.763C1814.78 270.079 1814.78 270.079 1814.46 270.394L1814.15 270.71C1813.83 271.025 1813.2 271.656 1812.88 271.972C1812.25 272.603 1811.62 273.234 1810.99 273.865L1810.68 274.181C1810.04 274.496 1809.73 275.127 1809.41 275.443C1809.1 275.759 1809.1 275.759 1808.78 276.074C1807.84 277.021 1806.89 278.283 1805.94 279.23C1802.47 283.647 1801.21 290.589 1798.05 295.638C1797.42 296.269 1797.11 297.216 1796.48 297.847C1796.48 297.847 1796.16 298.162 1795.84 298.478C1795.53 298.478 1795.53 298.794 1795.21 298.794L1794.9 299.109C1794.9 299.109 1794.9 299.109 1794.58 299.109L1794.27 299.425C1794.27 299.425 1793.95 299.425 1793.95 299.74C1793.95 299.74 1793.64 299.74 1793.64 300.056C1793 300.371 1792.69 300.687 1792.37 300.687H1792.06C1792.06 300.687 1792.06 300.687 1791.74 300.687C1791.74 300.687 1791.74 300.687 1791.43 300.687H1791.11C1790.48 300.687 1789.85 301.002 1789.22 301.002C1788.27 301.002 1787.32 301.318 1786.06 301.318C1786.06 301.318 1786.06 301.318 1785.75 301.318C1785.43 301.318 1785.43 301.318 1785.12 301.318H1784.8H1784.49H1784.17H1783.85C1783.85 301.318 1783.85 301.318 1783.54 301.634C1783.54 301.634 1783.54 301.634 1783.22 301.949C1783.22 301.949 1783.22 301.949 1782.91 302.265C1781.96 303.211 1781.33 304.158 1780.38 305.105C1780.38 305.105 1780.07 305.42 1779.75 305.736L1779.44 306.051L1779.12 306.367C1779.12 306.682 1778.81 306.682 1778.49 306.682L1778.17 306.998C1777.86 306.998 1777.86 307.313 1777.54 307.313C1776.91 307.629 1776.28 307.944 1775.65 308.26C1775.33 308.26 1775.02 308.576 1774.7 308.576C1774.07 308.891 1773.13 309.207 1772.18 309.522C1771.23 309.838 1770.29 310.469 1769.34 310.784C1769.02 311.1 1768.71 311.1 1768.08 311.415C1766.18 314.887 1764.61 315.833 1763.03 316.78C1762.71 316.78 1762.4 317.095 1762.4 317.095C1761.77 317.411 1761.13 317.726 1760.82 317.726C1760.5 317.726 1760.19 318.042 1759.87 318.042C1758.93 318.358 1757.98 318.673 1757.03 318.989C1756.72 318.989 1756.4 319.304 1756.09 319.304C1755.14 319.62 1754.19 319.935 1753.25 320.566C1752.61 320.882 1751.98 321.197 1751.67 321.513C1751.04 321.829 1750.41 322.46 1749.77 322.775L1749.46 323.091C1749.14 323.406 1748.83 323.406 1748.83 323.722C1748.51 323.722 1748.51 324.037 1748.2 324.353C1767.76 321.829 1787.32 318.989 1806.89 316.464C1820.14 314.571 1833.71 312.678 1846.96 310.784H1847.28C1856.75 309.522 1865.9 307.944 1875.36 306.998C1885.46 305.42 1895.56 303.842 1905.66 302.265C1906.92 301.949 1908.18 301.949 1909.44 301.634C1932.16 298.162 1954.57 294.691 1977.28 290.905C1977.92 290.905 1978.86 290.589 1979.49 290.589H1979.81C2006.32 286.172 2032.82 282.07 2059.64 277.336C2059.96 277.336 2060.27 277.336 2060.9 277.021C2095.62 271.025 2130.33 264.714 2165.04 258.719C2165.04 255.879 2165.04 252.724 2163.14 250.515C2161.88 249.253 2159.67 248.937 2158.09 246.728C2156.52 244.204 2157.46 242.31 2156.83 240.102C2155.88 236.631 2153.04 233.16 2149.26 233.16C2147.68 233.16 2147.05 235.053 2143.89 234.737C2140.74 234.422 2138.85 231.582 2136.01 231.582H2133.8L2134.11 229.373C2134.74 224.64 2129.06 219.275 2125.91 216.12C2124.65 214.858 2123.07 213.911 2121.81 212.649C2117.7 209.493 2114.86 205.391 2118.97 200.658C2120.23 199.396 2121.49 198.449 2123.07 198.765C2124.65 198.765 2125.91 199.712 2126.85 200.658C2127.17 200.974 2128.12 201.92 2128.75 202.236C2129.06 201.605 2129.06 200.974 2129.06 200.658C2129.38 199.712 2129.69 197.503 2128.75 196.872C2127.49 195.925 2122.12 196.872 2119.28 195.294C2117.07 194.347 2115.49 191.823 2114.86 189.614C2112.97 185.196 2113.29 179.516 2118.65 179.516C2118.97 178.57 2119.28 177.939 2119.91 176.992C2122.44 172.574 2125.59 170.05 2120.54 166.263C2116.44 163.108 2108.87 161.53 2103.82 159.637C2097.51 157.113 2091.83 159.321 2085.52 158.375C2080.15 157.744 2073.84 153.326 2071 148.593C2070.37 148.593 2069.74 148.593 2069.42 148.593C2067.85 148.593 2065.95 148.277 2064.69 147.015C2064.38 146.699 2064.38 146.699 2064.06 146.384L2063.74 145.753C2063.43 145.122 2063.11 144.806 2063.11 144.175C2063.11 143.544 2063.11 143.228 2063.11 142.597C2063.43 139.757 2065.95 136.286 2068.16 134.078C2068.48 133.762 2068.48 133.762 2068.79 133.446C2069.11 133.131 2069.42 132.815 2069.74 132.815C2070.06 132.5 2070.37 132.184 2070.37 131.869V131.553L2069.42 126.82C2069.42 126.189 2069.11 125.873 2069.11 125.558C2069.11 125.242 2069.11 124.927 2069.11 124.611C2069.11 123.98 2069.11 123.664 2069.11 123.349V123.033C2069.11 123.033 2069.11 122.718 2069.11 122.402C2069.11 122.402 2069.11 122.087 2069.11 121.771C2069.11 121.14 2069.42 120.825 2069.74 120.193C2070.06 119.878 2070.69 118.931 2070.69 118.616C2070.69 118.3 2070.69 117.985 2070.37 117.985C2070.06 117.669 2069.74 117.354 2069.74 117.038L2069.11 116.407C2069.11 116.407 2069.11 116.407 2068.79 116.091C2068.48 115.46 2067.85 115.145 2067.22 114.829C2066.9 114.514 2066.58 114.514 2066.58 114.198C2065.01 113.567 2063.11 113.251 2061.54 112.305C2059.33 110.727 2055.86 106.625 2053.02 106.309C2051.75 106.309 2051.44 106.625 2049.86 106.309C2049.55 106.309 2049.55 106.309 2049.23 105.994C2048.91 105.994 2048.91 105.678 2048.6 105.678C2048.6 105.678 2048.28 105.678 2048.28 105.363C2047.97 105.047 2047.65 104.732 2047.34 104.416L2047.02 104.1C2046.71 103.785 2046.39 103.469 2046.07 103.154L2045.44 102.523L2045.13 101.892C2044.18 102.207 2043.87 101.576 2043.87 100.945C2043.87 100.629 2043.55 99.9984 2043.55 99.6828C2043.55 99.3673 2043.55 99.3673 2043.55 99.0517C2043.55 98.7362 2043.55 98.4206 2043.55 98.1051V97.7895C2043.55 97.474 2043.55 97.1584 2043.23 96.8429V96.5273C2043.23 96.2118 2043.23 96.2118 2042.92 95.8962V95.5807C2042.92 95.5807 2042.92 95.5807 2042.92 95.2652C2042.92 94.9496 2042.6 94.9496 2042.6 94.6341L2042.29 94.3185C2041.34 94.003 2041.03 94.003 2040.71 93.6874C2040.71 93.6874 2040.71 93.6874 2040.39 93.6874C2040.08 93.6874 2040.08 93.6874 2039.76 93.3719C2038.5 93.0563 2036.61 93.3719 2035.35 93.6874H2035.03C2034.71 94.003 2034.4 94.003 2034.4 94.003C2034.08 94.003 2033.77 94.003 2033.45 94.003C2033.14 94.003 2033.14 94.003 2032.82 94.003H2032.51L2031.87 93.6874L2031.56 93.3719C2030.93 92.7408 2030.61 91.7941 2030.3 91.163C2030.3 91.163 2030.3 90.8475 2029.98 90.8475C2029.98 90.5319 2029.67 90.5319 2029.67 90.2164C2029.35 89.9008 2029.03 89.5853 2028.72 89.2697L2028.4 88.9542C2028.09 88.0075 2027.46 87.692 2026.83 87.3765C2026.51 87.3765 2026.19 87.0609 2025.88 87.0609H2025.56C2023.99 86.7454 2021.46 86.1143 2019.88 85.4832C2019.88 85.4832 2019.57 85.4832 2019.57 85.1676C2019.57 85.1676 2019.57 85.1676 2019.25 85.1676C2019.25 85.1676 2019.25 85.1676 2018.94 85.1676C2017.67 84.221 2016.1 82.9588 2014.84 82.3277C2013.26 81.381 2011.68 81.381 2009.79 81.381C2008.21 81.381 2006 81.381 2004.42 82.0121C2003.79 82.0121 2003.16 82.6432 2002.53 82.9588C1999.69 85.1676 1999.37 90.2164 1999.37 93.6874C1999.37 93.6874 1999.37 93.6874 1999.37 94.003V94.3185C1999.37 95.5807 1999.37 96.5273 1999.37 97.7895C1999.37 98.4206 1999.37 99.0517 1999.37 99.6828C1999.37 100.314 1999.37 100.945 1999.06 101.576C1998.74 103.154 1998.43 104.732 1997.8 106.309V106.625C1997.48 107.256 1997.48 107.572 1997.16 108.203C1997.16 108.518 1996.85 108.834 1996.85 109.149C1996.85 109.465 1996.53 109.78 1996.53 110.096V110.411C1996.53 111.043 1996.22 111.674 1995.9 112.305C1995.9 112.305 1995.9 112.62 1995.59 112.936V113.251C1995.59 113.567 1995.59 113.567 1995.27 113.882V114.198L1994.96 114.514C1994.64 114.829 1994.32 115.145 1994.32 115.145C1993.06 116.722 1991.48 118.3 1990.54 120.193C1989.91 121.771 1988.96 123.664 1988.64 125.558C1988.64 126.189 1988.64 126.82 1988.64 127.135C1988.64 127.451 1988.64 127.767 1988.64 127.767C1988.64 128.082 1988.64 128.398 1988.64 128.713C1988.64 129.029 1988.64 129.029 1988.64 129.344C1988.64 129.66 1988.64 129.975 1988.33 130.607C1988.01 131.238 1988.01 131.869 1987.7 132.184C1987.38 132.815 1987.07 133.131 1986.44 133.762C1985.8 134.393 1985.17 134.393 1984.23 134.709C1983.91 134.709 1983.6 134.709 1983.28 135.024C1982.96 135.024 1982.96 135.024 1982.65 135.024C1982.65 135.024 1982.33 135.024 1982.02 135.34H1981.7L1981.39 135.655C1981.07 135.971 1980.76 136.286 1980.76 136.602C1980.44 136.917 1980.44 137.233 1980.12 137.864C1980.12 137.864 1980.12 137.864 1980.12 138.18C1980.12 138.495 1979.81 138.811 1979.49 139.442C1979.18 140.073 1979.18 140.389 1978.86 141.02C1978.55 141.651 1978.55 141.966 1978.23 142.597V142.913C1978.23 143.228 1977.92 143.544 1977.92 144.175C1977.6 145.122 1977.28 146.068 1976.97 147.015C1976.02 149.224 1974.76 151.433 1973.5 153.326C1973.18 153.957 1972.87 154.273 1972.55 154.904C1972.24 155.219 1972.24 155.535 1971.92 155.535C1971.29 156.481 1970.34 157.744 1969.71 158.69C1969.4 159.006 1969.08 159.637 1968.76 159.952C1968.13 161.215 1967.19 162.792 1965.93 163.739C1965.61 163.739 1965.61 164.055 1965.29 164.055C1965.29 164.055 1964.98 164.37 1964.66 164.37C1964.35 164.686 1964.03 164.686 1964.03 165.001C1964.03 165.001 1964.03 165.001 1963.72 165.317C1963.4 165.632 1963.09 165.632 1963.09 165.948C1962.77 165.948 1962.45 165.948 1962.45 165.948C1962.14 165.948 1961.82 165.948 1961.51 165.948H1959.3V165.001C1958.67 164.686 1957.41 164.055 1956.77 163.739C1956.46 163.739 1956.14 163.739 1955.83 163.739C1955.51 163.739 1955.51 163.739 1955.2 163.739C1954.88 163.739 1954.57 163.739 1953.93 164.055C1953.3 164.055 1952.36 164.37 1951.73 164.686H1951.41L1950.46 165.001H1950.15C1949.83 165.001 1949.83 165.001 1949.52 165.317C1949.52 165.317 1949.52 165.317 1949.2 165.317C1948.89 165.632 1948.57 165.632 1948.25 165.948C1948.25 165.948 1947.94 165.948 1947.94 166.263L1947.62 166.579C1946.05 168.157 1945.41 170.05 1944.78 171.943C1944.47 172.574 1944.47 173.205 1944.15 174.152C1943.52 176.361 1943.21 178.57 1942.89 181.094C1942.57 182.041 1942.57 182.672 1942.26 183.619C1942.26 183.619 1942.26 183.934 1942.26 184.25C1942.26 184.565 1942.26 184.565 1941.94 184.881C1941.94 185.196 1941.94 185.196 1941.63 185.512C1941 187.09 1939.73 188.036 1939.1 189.298V189.614C1939.1 189.614 1939.1 189.93 1939.1 190.245C1939.1 190.876 1939.1 191.823 1939.1 192.454C1939.1 193.085 1939.1 193.716 1939.1 194.347C1939.1 194.978 1939.1 195.294 1938.79 195.609C1938.79 195.925 1938.79 196.24 1938.47 196.556C1938.47 196.872 1938.16 197.187 1938.16 197.187V197.503C1937.84 197.818 1937.84 198.134 1937.53 198.449C1937.21 198.765 1936.89 199.396 1936.89 199.712C1936.58 200.343 1936.26 200.658 1935.63 200.974L1933.42 201.92H1933.11H1932.79C1932.16 202.236 1931.53 202.551 1930.58 202.551C1930.27 202.551 1929.95 202.551 1929.95 202.867H1929.64C1929.01 203.183 1928.69 203.814 1928.37 204.445C1928.37 204.445 1928.37 204.76 1928.37 205.076V205.391V205.707L1927.11 208.231V208.547C1926.17 212.333 1924.9 216.12 1923.64 219.907C1923.33 220.538 1923.01 221.169 1923.01 221.8V222.115C1922.7 223.062 1922.38 223.693 1922.06 224.64C1922.06 224.955 1921.75 225.271 1921.43 225.586C1919.86 228.742 1918.59 232.213 1916.7 235.368C1916.07 236 1915.75 236.946 1915.44 237.577C1915.44 237.893 1915.12 237.893 1915.12 238.208C1915.12 238.524 1914.81 238.839 1914.49 239.155C1914.49 239.155 1914.49 239.471 1914.18 239.471C1913.86 239.786 1913.86 240.102 1913.54 240.417L1913.23 240.733C1912.91 241.048 1912.91 241.048 1912.6 241.364C1912.28 241.364 1912.28 241.679 1911.97 241.679C1911.34 241.995 1910.7 241.364 1909.76 242.31C1908.81 243.888 1907.55 245.15 1906.29 246.728C1906.29 246.728 1906.29 247.044 1905.97 247.044C1905.97 247.044 1905.97 247.359 1905.66 247.359L1905.34 247.675C1905.02 247.99 1904.71 248.306 1904.71 248.621C1904.71 248.621 1904.39 248.937 1904.39 249.253C1903.76 249.568 1903.45 250.199 1903.13 250.515C1902.5 250.83 1902.18 251.461 1901.55 251.777C1900.92 252.092 1900.61 252.408 1899.98 252.724C1899.66 253.039 1899.03 253.039 1898.71 253.355H1898.4C1898.08 253.355 1897.77 253.67 1897.45 253.67C1897.14 253.67 1896.82 253.986 1896.5 253.986H1896.19H1895.87C1895.24 254.301 1894.61 254.617 1893.66 254.932C1893.35 255.248 1892.72 255.248 1892.4 255.564C1891.14 256.51 1890.19 257.457 1888.93 258.403C1888.62 258.719 1888.3 258.719 1888.3 259.035L1887.67 259.666L1887.35 259.981L1886.72 260.612C1886.09 260.928 1885.78 261.243 1885.14 261.559H1884.83C1883.57 262.19 1882.3 263.137 1881.04 263.768C1879.46 264.399 1878.2 265.661 1876.94 266.608C1876.31 266.923 1875.68 267.554 1875.05 267.87C1874.73 268.185 1874.42 268.185 1873.79 268.501H1873.47C1873.15 268.501 1872.84 268.817 1872.52 268.817C1872.21 268.817 1872.21 268.817 1871.89 268.817C1870.31 269.132 1868.74 268.817 1867.47 268.817C1865.9 268.817 1864 269.448 1862.43 269.763C1862.11 269.763 1861.79 269.763 1861.48 270.079C1859.27 270.394 1857.06 270.394 1855.17 271.025C1854.54 271.025 1853.91 271.341 1853.27 271.656H1852.96C1852.64 271.656 1852.33 271.972 1852.01 271.972C1851.07 272.288 1850.43 272.603 1849.49 273.234C1847.59 273.865 1845.39 273.865 1843.81 272.919C1843.18 272.603 1842.55 272.288 1841.91 271.656C1840.02 273.55 1840.02 273.234 1839.71 273.234ZM2168.82 160.584C2168.19 163.424 2169.77 165.948 2168.82 169.419C2167.56 172.89 2164.09 176.677 2160.93 177.623C2154.31 179.832 2163.14 184.25 2162.51 188.036C2158.72 185.827 2155.57 188.036 2156.52 192.454C2157.15 194.347 2158.41 195.925 2158.72 198.134C2159.04 200.027 2158.09 201.92 2157.46 203.814C2156.52 206.654 2155.25 212.333 2151.15 211.387C2146.42 210.44 2148.94 204.76 2148.94 201.605C2148.94 197.818 2146.1 194.347 2144.84 190.876C2147.05 192.138 2148 190.245 2147.05 188.667C2146.1 187.09 2144.21 187.09 2145.79 184.881C2147.37 182.987 2148.63 184.565 2147.68 181.41C2147.05 179.832 2145.47 178.254 2145.47 176.677C2145.79 173.837 2148.31 176.045 2148.31 173.205C2148.31 170.997 2145.16 170.997 2148.63 169.734C2149.26 169.419 2149.89 170.366 2150.84 169.734C2151.47 169.103 2151.15 167.841 2151.78 167.526C2152.41 166.895 2153.68 167.526 2154.31 166.895C2155.25 166.263 2154.94 165.317 2155.57 164.686C2156.2 164.055 2158.41 163.424 2159.36 162.477L2168.82 160.584Z" fill="#F7F7FB"/>
</svg>
