<svg width="18" height="20" viewBox="0 0 18 20" fill="none" xmlns="http://www.w3.org/2000/svg">
<path d="M9.00403 0C6.1284 0 3.78076 2.33507 3.78076 5.19098C3.78076 8.04688 6.1284 10.382 8.99967 10.382C11.8709 10.382 14.2186 8.04688 14.2186 5.19098C14.2186 2.33507 11.8753 0 9.00403 0Z" fill="#909090"/>
<path d="M17.9628 14.5356C17.8276 14.1971 17.6443 13.8759 17.4392 13.5851C16.3919 12.0443 14.773 11.0243 12.949 10.7726C12.7221 10.7509 12.469 10.7943 12.2857 10.9332C11.3301 11.6363 10.1868 12.0009 9.00428 12.0009C7.82174 12.0009 6.67847 11.632 5.71847 10.9288C5.53519 10.7943 5.28647 10.7249 5.05519 10.7683C3.2312 11.0156 1.59047 12.04 0.565014 13.5808C0.359923 13.8759 0.17665 14.2144 0.0413774 14.5313C-0.0284408 14.6658 -0.00225895 14.8264 0.0631956 14.961C0.246468 15.2778 0.473377 15.5946 0.678468 15.8681C0.997014 16.2978 1.34174 16.684 1.72574 17.0486C2.04429 17.3655 2.41083 17.6606 2.77301 17.9558C4.57519 19.2926 6.73956 19.9957 8.97374 19.9957C11.2079 19.9957 13.3723 19.2926 15.1745 17.9558C15.541 17.6823 15.9032 17.3655 16.2217 17.0486C16.5883 16.684 16.9505 16.3021 17.269 15.8681C17.4959 15.5729 17.701 15.2778 17.8843 14.961C18.0065 14.8308 18.0326 14.6702 17.9628 14.5356Z" fill="#909090"/>
</svg>
