<svg width="20" height="18" viewBox="0 0 20 18" fill="none" xmlns="http://www.w3.org/2000/svg">
<path d="M17.8573 0.142761H15.7146V3.0011C15.7146 3.39449 15.3965 3.71673 14.999 3.71673C14.6014 3.71673 14.2833 3.39867 14.2833 3.0011V0.142761H5.71249V3.0011C5.71249 3.39449 5.39443 3.71673 4.99686 3.71673C4.59929 3.71673 4.28123 3.39867 4.28123 3.0011V0.142761H2.14271C0.958359 0.142761 0 1.10112 0 2.28547V15.8573C0 17.0417 0.958359 18.0001 2.14271 18.0001H17.8573C19.0416 18.0001 20 17.0417 20 15.8573V2.28547C20 1.10112 19.0375 0.142761 17.8573 0.142761ZM18 15C18 15.3934 17.3976 16 17 16H3C2.60661 16 2 15.3976 2 15V7H18V15Z" fill="#909090"/>
</svg>
