<svg width="22" height="22" viewBox="0 0 22 22" fill="none" xmlns="http://www.w3.org/2000/svg">
<path d="M15.3 14.1C17.5 14.7 19.2 16.5 19.7 18.7C16.8 19.5 13.8 19.9 10.9 19.9C8 19.9 5 19.5 2.1 18.7C2.6 16.5 4.3 14.7 6.5 14.1C7.8 14.9 9.3 15.3 10.9 15.3C12.5 15.3 14 14.9 15.3 14.1ZM14.9 12C13.8 12.9 12.4 13.4 10.9 13.4C9.4 13.4 8 12.9 7 12C3 12.6 0 16.1 0 20.2C3.6 21.4 7.3 22 10.9 22C14.5 22 18.2 21.4 21.9 20.2C21.9 16.1 18.9 12.6 14.9 12ZM11.5 2C12.7 2 13.7 3 13.7 4.2V6.8C13.7 8.3 12.5 9.5 11 9.5C9.5 9.5 8.3 8.3 8.3 6.8V4.2C8.2 3 9.3 2 10.5 2H11.5ZM11.5 0H10.5C8.2 0 6.2 1.9 6.2 4.2V6.8C6.2 9.4 8.3 11.5 10.9 11.5C13.5 11.5 15.6 9.4 15.6 6.8V4.2C15.7 1.9 13.8 0 11.5 0Z" fill="#909090"/>
</svg>
