<svg width="821" height="214" viewBox="0 0 821 214" fill="none" xmlns="http://www.w3.org/2000/svg">
<g clip-path="url(#clip0)">
<path fill-rule="evenodd" clip-rule="evenodd" d="M201.039 31.7705C201.875 32.1049 202.879 31.7705 203.548 31.1016L209.233 25.4164L209.4 25.2492C210.069 24.5803 210.236 23.7443 210.236 22.9082C209.734 20.2328 210.571 17.223 212.744 15.0492C216.256 11.5377 221.774 11.5377 225.285 15.0492C228.797 18.5607 228.797 24.0787 225.285 27.5902C223.111 29.7639 220.269 30.6 217.426 30.0984C216.59 29.9311 215.587 30.2656 214.918 30.9344V31.1016L209.233 36.7869C208.564 37.623 208.23 38.6262 208.564 39.4623L208.898 40.2984L209.066 40.4656L218.597 36.9541L220.269 41.4689L211.072 44.8131C211.239 45.1475 211.239 45.482 211.407 45.6492C211.741 46.8197 212.744 47.6557 213.915 47.6557H221.941H221.607C222.61 47.6557 223.446 47.1541 223.948 46.4852C225.62 44.1443 228.295 42.6393 231.305 42.6393C236.154 42.6393 240.167 46.6525 240.167 51.5016C240.167 56.3508 236.154 60.3639 231.305 60.3639C228.295 60.3639 225.62 58.859 223.948 56.518C223.446 55.8492 222.61 55.3475 221.607 55.3475H221.439H213.413C212.243 55.3475 211.407 56.1836 210.905 57.0197C210.905 57.1869 210.905 57.1869 210.738 57.3541L210.403 58.1902L219.6 62.2033L217.761 66.5508L208.731 61.8689V62.0361L208.23 63.2066C207.895 64.0426 208.23 65.0459 208.898 65.7148L214.584 71.4V71.5672C215.252 72.2361 216.256 72.4033 217.092 72.4033C219.767 71.9016 222.777 72.7377 224.951 74.9115C228.462 78.423 228.462 83.941 224.951 87.4525C221.439 90.9639 215.921 90.9639 212.41 87.4525C210.236 85.2787 209.4 82.4361 209.902 79.5934C210.069 78.7574 209.734 77.7541 209.066 77.0852H208.898L203.213 71.4L200.538 70.7311L199.702 71.0656L199.2 71.2328L202.879 80.5967L198.531 82.2689L194.852 73.0721C194.685 73.0721 194.518 73.2393 194.351 73.2393C193.18 73.5738 192.511 74.577 192.344 75.7475V83.7738V83.6066C192.344 84.6098 192.846 85.4459 193.515 85.9475C195.856 87.6197 197.361 90.2951 197.361 93.3049C197.361 98.1541 193.348 102.167 188.498 102.167C183.649 102.167 179.636 98.1541 179.636 93.3049C179.636 90.2951 181.141 87.6197 183.482 85.9475C184.318 85.4459 184.652 84.6098 184.652 83.6066V83.4393V75.4131C184.652 74.2426 183.816 73.2393 182.813 72.9049C182.646 72.9049 182.813 72.9049 182.646 72.9049C182.311 72.9049 182.144 72.7377 181.81 72.7377L177.964 81.9344L173.616 80.0951L177.462 70.8984H177.295C177.295 70.8984 176.793 70.5639 176.626 70.5639C175.623 70.2295 174.62 70.3967 173.784 71.0656L168.098 76.7508H167.931C167.262 77.4197 166.928 78.423 167.095 79.259C167.597 81.9344 166.761 84.9443 164.587 87.118C161.243 90.6295 155.557 90.6295 152.046 87.118C148.534 83.6066 148.534 78.0885 152.046 74.577C154.22 72.4033 157.23 71.5672 159.905 72.0689C160.741 72.2361 161.577 71.9016 162.246 71.2328L162.413 71.0656L168.098 65.3803C168.934 64.5443 169.102 63.3738 168.6 62.5377L168.266 62.0361L167.931 61.3672L158.734 65.2131L158.066 61.0328L167.262 57.1869C167.095 57.0197 167.095 56.6852 167.095 56.518C166.593 55.5148 165.757 54.8459 164.754 54.8459H156.728H156.561C155.557 54.8459 154.721 55.3475 154.22 56.0164C152.715 58.3574 150.039 59.8623 147.03 59.8623C142.18 59.8623 138.167 55.8492 138.167 51C138.167 46.1508 142.18 42.1377 147.03 42.1377C150.039 42.1377 152.715 43.6426 154.22 45.9836C154.721 46.8197 155.557 47.1541 156.561 47.1541H156.728H164.754C165.925 47.1541 166.928 46.318 167.262 45.3148C167.262 45.1475 167.262 45.1475 167.43 45.1475C167.43 44.8131 167.597 44.4787 167.597 44.3115L158.567 40.6328L160.239 36.2852L169.436 39.9639L169.771 39.1279C170.272 38.2918 169.938 37.1213 169.102 36.4525L163.416 30.7672L163.249 30.6C162.58 29.9311 161.744 29.5967 160.908 29.7639C158.233 30.2656 155.223 29.4295 153.049 27.2557C149.538 23.9115 149.538 18.2262 153.049 14.7148C156.561 11.2033 162.079 11.2033 165.59 14.7148C167.764 16.8885 168.6 19.8984 168.098 22.5738C167.931 23.4098 168.266 24.2459 168.934 24.9148L169.102 25.082L174.787 30.7672C175.456 31.4361 176.459 31.7705 177.295 31.4361L178.466 30.9344L178.967 30.7672L174.62 21.7377L178.967 20.0656L182.646 29.2623C182.98 29.0951 183.482 29.0951 183.649 28.9279C184.485 28.4262 185.154 27.5902 185.154 26.5869V18.5607V18.3934C185.154 17.3902 184.652 16.5541 183.984 16.0525C181.643 14.5475 180.138 11.7049 180.138 8.8623C180.138 4.01311 184.151 0 189 0C193.849 0 197.862 4.01311 197.862 8.8623C197.862 11.8721 196.357 14.5475 194.016 16.0525C193.348 16.5541 192.846 17.3902 192.846 18.3934V18.5607V26.5869C192.846 27.5902 193.348 28.4262 194.184 28.9279C194.518 29.0951 194.685 29.0951 195.02 29.2623L195.521 29.4295L199.534 20.2328L203.882 22.0721L199.869 31.2689L200.036 31.4361L201.039 31.7705ZM199.702 54.5115C200.203 53.341 201.374 52.6721 202.711 53.0066C204.049 53.5082 204.718 54.6787 204.216 56.0164C203.38 58.3574 202.21 60.5312 200.538 62.2033C198.866 63.8754 196.859 65.2131 194.351 66.0492C193.18 66.5508 191.843 65.882 191.341 64.5443C190.839 63.3738 191.508 61.8689 192.846 61.5344C194.518 61.0328 195.856 60.0295 197.193 58.859C198.197 57.6885 199.033 56.1836 199.702 54.5115ZM181.977 59.6951C182.98 60.5312 183.148 62.0361 182.311 63.0393C181.475 64.0426 179.971 64.2098 178.967 63.3738C177.128 61.8689 175.623 60.0295 174.62 57.8557C173.616 55.8492 173.115 53.5082 173.115 51C173.115 49.6623 174.285 48.659 175.456 48.659C176.793 48.659 177.797 49.8295 177.797 51C177.797 52.6721 178.298 54.3443 178.967 55.8492C179.636 57.3541 180.639 58.6918 181.977 59.6951Z" fill="#0F2E3F"/>
</g>
<g clip-path="url(#clip1)">
<path fill-rule="evenodd" clip-rule="evenodd" d="M821 182.033L762.629 204.195V213.804L821 191.643V182.033ZM762.629 214L749.897 203.802V197.134L762.629 204.391V214V214ZM808.464 177.523L784.567 185.564L781.825 186.348L776.144 175.758L771.835 185.171L784.567 193.408L808.464 183.995V177.523ZM762.825 201.449L750.093 194.193L769.876 187.525L781.433 194.193L762.825 201.449ZM784.175 171.443L804.938 175.758L783.392 182.818C770.66 161.049 758.124 139.084 745.392 117.315C743.629 113.981 749.113 111.235 750.68 114.373L784.175 171.443ZM811.01 183.406C811.402 183.21 816.691 181.445 816.691 181.445L810.423 180.661L811.01 183.406Z" fill="#0F2E3F"/>
</g>
<g clip-path="url(#clip2)">
<path fill-rule="evenodd" clip-rule="evenodd" d="M399.418 57.4862C405.455 57.4862 410.35 62.3812 410.35 68.4183C410.35 74.4555 405.455 79.3505 399.418 79.3505C393.381 79.3505 388.486 74.4555 388.486 68.4183C388.486 62.3812 393.381 57.4862 399.418 57.4862ZM385.875 72.987C375.759 76.0872 365.969 80.3295 356.342 85.8771C352.753 87.8351 350.468 86.3666 349.326 81.9611C348.51 76.4135 349.326 70.8658 351.61 65.4813C354.058 59.9337 359.769 58.7915 366.459 59.281C372.985 59.9337 379.512 61.239 385.875 63.5233C385.223 65.155 384.896 66.7867 384.896 68.5815C385.06 70.05 385.386 71.5185 385.875 72.987ZM393.055 81.3085C387.997 90.609 384.244 100.562 381.144 111.168C380.001 115.084 377.391 115.573 373.475 113.452C368.906 110.026 365.643 105.62 363.522 100.073C361.237 94.3618 364.501 89.63 369.559 85.0613C374.617 80.819 380.165 77.2293 386.365 74.2923C387.67 77.3925 389.955 79.84 393.055 81.3085ZM403.987 82.2875C407.087 92.4038 411.329 102.194 416.877 111.821C418.835 115.41 417.367 117.695 412.961 118.837C407.413 119.653 401.866 118.837 396.481 116.552C390.934 114.105 389.791 108.394 390.281 101.541C390.934 95.0145 392.239 88.4878 394.523 82.1243C396.155 82.777 397.787 83.1033 399.581 83.1033C401.05 82.9401 402.518 82.777 403.987 82.2875ZM412.308 75.1082C421.609 80.1663 431.562 83.9191 442.168 87.0193C446.084 88.1615 446.573 90.7721 444.452 94.6881C441.026 99.2568 436.62 102.52 431.072 104.641C425.362 106.926 420.63 103.662 416.061 98.4409C411.819 93.3828 408.229 87.8351 405.292 81.798C408.392 80.3295 410.84 78.0451 412.308 75.1082ZM413.287 64.0128C423.404 61.0758 433.194 56.6703 442.82 51.1227C446.41 49.3279 448.694 50.6332 449.837 55.0387C450.652 60.5863 449.837 66.134 447.552 71.5185C445.105 77.0661 439.394 78.2083 432.541 77.7188C426.014 77.0661 419.488 75.7608 413.124 73.4765C413.777 71.8448 414.103 70.2132 414.103 68.2552C413.94 66.9498 413.777 65.4813 413.287 64.0128ZM406.108 55.6913C411.166 46.3909 414.919 36.4377 418.019 25.8319C419.161 21.9159 421.772 21.4264 425.688 23.5476C430.257 26.9741 433.52 31.3795 435.641 36.9272C437.925 42.638 434.662 47.3699 429.441 51.9385C424.383 56.1808 418.835 59.7705 412.798 62.7075C411.329 59.6073 409.045 57.1598 406.108 55.6913ZM395.013 54.8755C392.076 44.7592 387.67 34.9692 382.123 25.3424C380.328 21.7527 381.633 19.4684 386.039 18.3262C391.586 17.5104 397.134 18.3262 402.518 20.6106C408.066 23.0581 409.208 28.7689 408.719 35.4587C408.066 41.9854 406.761 48.512 404.476 54.8755C402.845 54.2228 401.213 53.8965 399.255 53.8965C397.95 54.0597 396.481 54.386 395.013 54.8755ZM386.691 62.0548C377.391 56.9967 367.438 53.2438 356.832 50.1437C352.916 49.0015 352.263 46.3909 354.547 42.4749C357.974 37.9062 362.379 34.6429 367.927 32.5217C373.638 30.2374 378.37 33.5007 382.938 38.5589C387.181 43.617 390.77 49.1647 393.707 55.365C390.607 56.6703 388.16 58.9547 386.691 62.0548Z" fill="#0F2E3F"/>
</g>
<g clip-path="url(#clip3)">
<path fill-rule="evenodd" clip-rule="evenodd" d="M64.4502 131.396C60.425 145.796 64.2567 156.709 72.9042 165.555C44.1562 167.876 33.3313 156.882 36.9758 134.027C38.7672 122.727 35.6194 114.003 27.6743 105.597C31.5142 104.777 35.59 105.767 39.7972 107.329C35.9576 95.3351 27.5379 87.2187 15.9272 81.6991C43.3479 80.4046 64.172 89.6472 78.2413 109.523C78.8769 105.226 79.003 100.806 78.7779 96.1645C105.715 119.708 102.363 139.127 88.3201 157.027C75.5135 153.105 68.861 143.26 64.4502 131.396Z" fill="#0F2E3F"/>
</g>
<path d="M648 13.9767C648.811 13.6977 649.622 13.4186 650.568 13.2791C651.378 13.1395 652.324 13 653.135 13C657.324 13 660.973 14.6744 663.676 17.4651C666.378 20.2558 668 24.0233 668 28.3488C668 31.6977 666.919 34.907 665.027 37.4186C663.135 40.0698 660.432 42.0233 657.324 43L656.243 39.2326C658.541 38.5349 660.568 37 661.919 35.186C663.27 33.2326 664.081 30.8605 664.081 28.3488C664.081 25.1395 662.865 22.3488 660.838 20.2558C658.811 18.1628 656.108 16.907 653 16.907C652.324 16.907 651.649 17.0465 651.108 17.0465C650.432 17.186 649.892 17.3256 649.216 17.6047L648 13.9767Z" fill="#0F2E3F"/>
<path d="M624 2.12821C624.967 1.70513 625.934 1.42308 626.763 1.28205C627.868 1.14103 628.836 1 629.803 1C633.947 1 637.816 2.69231 640.579 5.51282C643.342 8.33333 645 12.141 645 16.5128C645 17.641 644.862 18.7692 644.724 19.8974C644.447 21.0256 644.171 22.0128 643.618 23L640.026 21.3077C640.441 20.6026 640.579 19.7564 640.855 19.0513C640.993 18.2051 641.132 17.359 641.132 16.5128C641.132 13.2692 639.888 10.4487 637.816 8.33333C635.743 6.21795 632.98 4.94872 629.803 4.94872C628.974 4.94872 628.283 5.08974 627.592 5.23077C626.901 5.37179 626.211 5.65385 625.52 5.9359L624 2.12821Z" fill="#0F2E3F"/>
<path d="M589.141 24C589.141 23.7206 589 23.3015 589 23.0221C589 22.6029 589 22.3235 589 22.0441C589 17.2941 590.972 13.1029 594.07 10.0294C597.169 6.95588 601.535 5 606.183 5C608.718 5 610.972 5.55882 613.225 6.39706C615.479 7.375 617.31 8.77206 619 10.5882L616.042 13.2426C614.775 11.8456 613.225 10.7279 611.535 10.0294C609.986 9.33088 608.155 8.91176 606.183 8.91176C602.521 8.91176 599.282 10.3088 596.887 12.6838C594.493 15.0588 593.085 18.2721 593.085 21.9044C593.085 22.1838 593.085 22.4632 593.085 22.6029C593.085 22.8824 593.085 23.1618 593.225 23.4412L589.141 24Z" fill="#0F2E3F"/>
<path d="M591.143 71C588.857 69.7283 587.143 68.0326 585.857 65.913C584.571 63.9348 584 61.5326 584 58.8478C584 55.0326 585.571 51.5 588.143 49.0978C590.714 46.5543 594.143 45 598 45V48.9565C595.286 48.9565 592.714 50.087 591 51.7826C589.143 53.6196 588.143 56.0217 588.143 58.8478C588.143 60.6848 588.571 62.3804 589.429 63.7935C590.429 65.3478 591.714 66.6196 593.286 67.4674L591.143 71Z" fill="#0F2E3F"/>
<path d="M576.571 54C575.714 52.6022 575.143 51.2043 574.571 49.6667C574.286 48.2688 574 46.7312 574 45.0538C574 40.3011 576 36.1075 579.143 33.0323C582.286 29.957 586.714 28 591.429 28C592.143 28 593 28 593.714 28.1398C594.429 28.2796 595.286 28.4194 596 28.5591L594.857 32.3333C594.286 32.1935 593.714 32.0538 593.143 31.914C592.571 31.7742 592 31.7742 591.286 31.7742C587.571 31.7742 584.286 33.172 581.857 35.5484C579.429 37.9247 578 41.2796 578 44.7742C578 46.0323 578.143 47.2903 578.571 48.4086C578.857 49.6667 579.429 50.6452 580 51.7634L576.571 54Z" fill="#0F2E3F"/>
<path d="M607 95C603.08 95 599.58 93.405 597.06 90.795C594.54 88.185 593 84.56 593 80.5C593 76.44 594.54 72.815 597.06 70.205C599.58 67.595 603.08 66 607 66V70.06C604.2 70.06 601.68 71.22 599.86 73.105C598.04 74.99 596.92 77.6 596.92 80.5C596.92 83.4 598.04 86.01 599.86 87.895C601.68 89.78 604.2 90.94 607 90.94V95V95Z" fill="#0F2E3F"/>
<path d="M622 28.2558C622.871 27.8372 623.742 27.5581 624.613 27.2791C625.484 27.1395 626.5 27 627.516 27C631 27 634.048 28.3953 636.371 30.4884C638.694 32.7209 640 35.6512 640 39H635.935C635.935 36.7674 634.919 34.814 633.468 33.2791C632.016 31.8837 629.839 30.907 627.516 30.907C626.79 30.907 626.21 31.0465 625.629 31.186C624.903 31.3256 624.323 31.4651 623.887 31.7442L622 28.2558Z" fill="#0F2E3F"/>
<path d="M606 55C606 51.9367 607.256 49.2911 609.209 47.2025C611.163 45.2532 613.953 44 616.884 44C618.279 44 619.535 44.2785 620.651 44.6962C621.907 45.1139 623.023 45.8101 624 46.6456L621.488 49.7089C620.93 49.1519 620.233 48.7342 619.395 48.4557C618.558 48.1772 617.86 48.038 616.884 48.038C614.93 48.038 613.256 48.8734 612 50.1266C610.744 51.3797 610.047 53.1899 610.047 55H606V55Z" fill="#0F2E3F"/>
<path d="M630 57.165C630.708 56.7282 631.558 56.4369 632.407 56.2913C633.257 56.1456 634.106 56 634.956 56C638.071 56 640.761 57.3107 642.743 59.3495C644.726 61.3883 646 64.301 646 67.3592C646 67.9417 646 68.6699 645.858 69.2524C645.717 69.9806 645.575 70.5631 645.434 71L641.611 69.6893C641.752 69.2524 641.894 68.9612 641.894 68.5243C641.894 68.0874 642.035 67.7961 642.035 67.3592C642.035 65.3204 641.186 63.5728 640.053 62.2621C638.779 60.9515 637.08 60.2233 635.097 60.2233C634.531 60.2233 633.965 60.2233 633.398 60.3689C632.832 60.5146 632.265 60.6602 631.841 60.9515L630 57.165Z" fill="#0F2E3F"/>
<path d="M652.691 70.712C654.072 70.8526 655.453 70.8526 656.696 70.712C658.077 70.5714 659.32 70.1497 660.563 69.5873C664.292 67.9002 666.916 64.8073 668.159 61.2925C669.54 57.6372 669.54 53.7007 667.744 49.9048C667.468 49.2018 667.192 48.6395 666.778 48.0771C666.363 47.5147 666.087 46.9524 665.673 46.5306L668.711 44C669.264 44.7029 669.678 45.4059 670.092 46.1088C670.507 46.8118 670.921 47.5147 671.335 48.3583C673.407 53.1383 673.545 58.3401 671.75 62.839C670.092 67.3379 666.64 71.2744 662.082 73.3832C660.425 74.0862 658.767 74.6485 657.11 74.7891C655.453 75.0703 653.657 75.0703 652 74.7891L652.691 70.712Z" fill="#0F2E3F"/>
<path d="M649.912 74C650.334 77.6449 649.21 81.1495 647.102 83.8131C644.994 86.4766 641.762 88.4392 638.108 88.8598C637.827 88.8598 637.405 89 637.124 89C636.703 89 636.422 89 636 89L636.141 85.0748C636.422 85.0748 636.703 85.0748 636.843 85.0748C637.124 85.0748 637.265 85.0748 637.546 84.9346C640.075 84.6542 642.324 83.2523 643.87 81.4299C645.415 79.4673 646.118 77.0841 645.837 74.4206L649.912 74Z" fill="#0F2E3F"/>
<path d="M613.283 97C612.139 95.6139 611.424 93.8119 611.138 92.1485C610.852 90.4851 610.995 88.5446 611.71 86.8812C611.996 86.1881 612.282 85.495 612.711 84.802C613.14 84.1089 613.712 83.5545 614.141 83L617 85.7723C616.571 86.1881 616.285 86.4653 615.999 87.0198C615.713 87.4356 615.57 87.8515 615.284 88.4059C614.855 89.5149 614.712 90.6238 614.998 91.7327C615.141 92.8416 615.713 93.9505 616.285 94.7822L613.283 97Z" fill="#0F2E3F"/>
<path d="M626.715 99.9208C627.43 98.9505 627.859 97.9802 628.002 96.7327C628.145 95.6238 628.145 94.5149 627.716 93.4059C627.573 92.8515 627.287 92.4356 627.001 92.0198C626.715 91.604 626.429 91.1881 626 90.7723L628.859 88C629.431 88.5545 629.86 89.1089 630.289 89.802C630.718 90.495 631.004 91.1881 631.29 91.8812C632.005 93.5446 632.148 95.4851 631.862 97.1485C631.576 98.9505 630.861 100.614 629.717 102L626.715 99.9208Z" fill="#0F2E3F"/>
<defs>
<clipPath id="clip0">
<rect width="102" height="102" fill="white" transform="translate(138)"/>
</clipPath>
<clipPath id="clip1">
<rect width="76" height="101" fill="white" transform="matrix(-1 0 0 1 821 113)"/>
</clipPath>
<clipPath id="clip2">
<rect width="101" height="101" fill="white" transform="translate(349 18)"/>
</clipPath>
<clipPath id="clip3">
<rect width="68" height="102" fill="white" transform="translate(0.423096 91.1504) rotate(-31.3661)"/>
</clipPath>
</defs>
</svg>
