<svg width="20" height="20" viewBox="0 0 20 20" fill="none" xmlns="http://www.w3.org/2000/svg">
<path d="M16.8208 12.5121C16.098 11.7984 15.1956 11.7984 14.4774 12.5121C13.9295 13.0553 13.3816 13.5986 12.8429 14.1511C12.6956 14.303 12.5713 14.3353 12.3917 14.234C12.0372 14.0406 11.6597 13.8841 11.319 13.6723C9.73058 12.6732 8.40001 11.3887 7.22137 9.94301C6.63666 9.22478 6.1164 8.4559 5.75268 7.59034C5.67902 7.41539 5.69283 7.30029 5.83556 7.15756C6.38344 6.6281 6.91751 6.08482 7.45618 5.54154C8.20664 4.78648 8.20664 3.9025 7.45158 3.14284C7.0234 2.71006 6.59522 2.28648 6.16705 1.8537C5.72506 1.41172 5.28767 0.965124 4.84108 0.52774C4.11824 -0.176679 3.21585 -0.176679 2.49762 0.532344C1.94513 1.07562 1.41567 1.63271 0.853972 2.16678C0.333714 2.65941 0.0712828 3.26254 0.0160342 3.96696C-0.0714428 5.11337 0.209404 6.19532 0.605353 7.24964C1.41567 9.43196 2.64955 11.3703 4.14587 13.1474C6.16705 15.5507 8.57957 17.4522 11.4019 18.8242C12.6726 19.4412 13.9893 19.9154 15.4212 19.9936C16.4065 20.0489 17.2628 19.8003 17.9488 19.0314C18.4184 18.5065 18.9479 18.0277 19.4451 17.5259C20.1818 16.78 20.1864 15.8776 19.4543 15.141C18.5796 14.2616 17.7002 13.3868 16.8208 12.5121Z" fill="#909090"/>
</svg>
