<svg width="14" height="20" viewBox="0 0 14 20" fill="none" xmlns="http://www.w3.org/2000/svg">
<path fill-rule="evenodd" clip-rule="evenodd" d="M7.00541 0C10.8708 0 14.0108 3.12771 14.0108 7.00216C14.0108 8.04112 13.7834 9.0368 13.372 9.92424V9.93506C13.2637 10.1732 13.1446 10.4004 13.0147 10.6169L8.51044 19.1126C7.87162 20.3139 6.16087 20.3139 5.52204 19.1126L1.00696 10.6061C0.87703 10.3896 0.7471 10.1623 0.649652 9.92424V9.91342C0.227378 9.02597 0 8.04112 0 7.00216C0 3.12771 3.12916 0 7.00541 0ZM7.00541 4.25325C8.57541 4.25325 9.84223 5.57359 9.74478 7.17532C9.65816 8.53896 8.54292 9.65368 7.17865 9.74026C5.58701 9.83766 4.25522 8.57143 4.25522 7.00216C4.25522 5.48701 5.48956 4.25325 7.00541 4.25325Z" fill="#909090"/>
</svg>
