<svg width="34" height="34" viewBox="0 0 34 34" fill="none" xmlns="http://www.w3.org/2000/svg">
<path d="M11.6666 12.7334H13.8M20.2 21.2668H22.3333M22.3333 11.6668L11.6666 22.3334M15.5098 2.68405L13.1012 5.09262C12.7059 5.48786 12.1699 5.7099 11.6109 5.7099H7.81728C6.65334 5.7099 5.70978 6.65346 5.70978 7.8174V11.6111C5.70978 12.17 5.48774 12.7061 5.0925 13.1013L2.68392 15.5099C1.86089 16.3329 1.86089 17.6673 2.68392 18.4903L5.0925 20.8989C5.48774 21.2941 5.70978 21.8302 5.70978 22.3891V26.1828C5.70978 27.3467 6.65334 28.2903 7.81728 28.2903H11.6109C12.1699 28.2903 12.7059 28.5123 13.1012 28.9076L15.5098 31.3162C16.3328 32.1392 17.6672 32.1392 18.4902 31.3162L20.8988 28.9076C21.294 28.5123 21.8301 28.2903 22.389 28.2903H26.1827C27.3466 28.2903 28.2902 27.3467 28.2902 26.1828V22.3891C28.2902 21.8302 28.5122 21.2941 28.9075 20.8989L31.316 18.4903C32.1391 17.6673 32.1391 16.3329 31.316 15.5099L28.9075 13.1013C28.5122 12.7061 28.2902 12.17 28.2902 11.6111V7.8174C28.2902 6.65346 27.3466 5.7099 26.1827 5.7099H22.389C21.8301 5.7099 21.294 5.48786 20.8988 5.09262L18.4902 2.68405C17.6672 1.86101 16.3328 1.86101 15.5098 2.68405Z" stroke="#009821" stroke-width="2.5" stroke-linecap="round" stroke-linejoin="round"/>
</svg>
