<svg width="34" height="34" viewBox="0 0 34 34" fill="none" xmlns="http://www.w3.org/2000/svg">
<path d="M17 2L17.8135 1.05093C17.3454 0.64969 16.6546 0.64969 16.1865 1.05093L17 2ZM2 14.8571L1.18651 13.9081L0.75 14.2822V14.8571H2ZM12.7143 32V33.25C13.4046 33.25 13.9643 32.6904 13.9643 32H12.7143ZM21.2857 32H20.0357C20.0357 32.6904 20.5954 33.25 21.2857 33.25V32ZM32 14.8571H33.25V14.2822L32.8135 13.9081L32 14.8571ZM4.14286 33.25H12.7143V30.75H4.14286V33.25ZM32.8135 13.9081L17.8135 1.05093L16.1865 2.94907L31.1865 15.8062L32.8135 13.9081ZM16.1865 1.05093L1.18651 13.9081L2.81349 15.8062L17.8135 2.94907L16.1865 1.05093ZM13.9643 32V25.5714H11.4643V32H13.9643ZM20.0357 25.5714V32H22.5357V25.5714H20.0357ZM21.2857 33.25H29.8571V30.75H21.2857V33.25ZM33.25 29.8571V14.8571H30.75V29.8571H33.25ZM0.75 14.8571V29.8571H3.25V14.8571H0.75ZM17 22.5357C18.6766 22.5357 20.0357 23.8948 20.0357 25.5714H22.5357C22.5357 22.5141 20.0573 20.0357 17 20.0357V22.5357ZM17 20.0357C13.9427 20.0357 11.4643 22.5141 11.4643 25.5714H13.9643C13.9643 23.8948 15.3234 22.5357 17 22.5357V20.0357ZM29.8571 33.25C31.731 33.25 33.25 31.731 33.25 29.8571H30.75C30.75 30.3503 30.3503 30.75 29.8571 30.75V33.25ZM4.14286 30.75C3.64975 30.75 3.25 30.3503 3.25 29.8571H0.75C0.75 31.731 2.26903 33.25 4.14286 33.25V30.75Z" fill="#009821"/>
</svg>
