<svg width="228" height="212" viewBox="0 0 228 212" fill="none" xmlns="http://www.w3.org/2000/svg">
<g clip-path="url(#clip0)">
<path d="M205.352 64.1281C198.558 64.1281 191.008 59.6015 187.233 52.8114C186.478 52.057 184.968 49.7936 182.703 49.7936C181.193 49.7936 178.928 51.3025 178.173 52.8114C174.399 59.6015 167.604 64.1281 160.054 64.1281C152.505 64.1281 146.465 60.3559 141.935 53.5659C139.67 49.0392 134.385 49.0392 132.12 53.5659C128.346 60.3559 121.551 64.8826 114.001 64.8826C107.207 64.8826 99.6569 60.3559 95.8821 54.3203C94.3722 52.057 92.8622 51.3025 91.3523 51.3025C89.0874 51.3025 87.5775 53.5659 86.8225 54.3203C83.8026 60.3559 77.0079 64.1281 69.4582 64.1281C62.6635 64.1281 55.8688 60.3559 51.339 53.5659C49.0741 49.0392 43.7894 49.0392 41.5245 53.5659L35.4847 49.7936L42.2794 53.5659C38.5046 60.3559 31.7099 64.1281 24.1602 64.1281C16.6106 64.1281 10.5708 60.3559 6.04103 53.5659C5.28606 51.3025 3.02116 49.7936 1.51123 49.7936V34.7047C9.0609 34.7047 15.8556 38.4769 19.6304 46.0214C20.3854 48.2847 22.6503 49.0392 24.1602 49.0392C27.1801 49.0392 28.69 46.7758 28.69 46.0214C32.4649 39.2313 39.2596 34.7047 46.8092 34.7047C54.3589 34.7047 61.1536 39.2313 64.9284 46.0214C67.1933 49.7936 71.7231 49.7936 74.743 46.0214C78.5178 39.2313 85.3126 35.4591 92.8622 35.4591C100.412 35.4591 107.207 39.2313 110.981 46.7758C113.246 50.5481 117.776 51.3025 120.796 46.7758C124.571 39.9858 131.366 36.2136 138.915 36.2136C146.465 36.2136 153.26 39.9858 157.034 47.5303C159.299 51.3025 163.829 51.3025 166.849 47.5303C170.624 40.7402 177.418 36.968 184.968 36.968C192.518 36.968 199.313 40.7402 203.087 48.2847C205.352 52.057 210.637 52.057 212.902 48.2847C216.677 41.4947 223.471 37.7224 231.021 37.7224V52.8114C229.511 52.8114 227.246 54.3203 226.491 55.8292C219.697 60.3559 212.902 64.1281 205.352 64.1281Z" fill="#ECF8FF"/>
<path d="M205.351 99.5872C197.801 99.5872 191.007 95.815 187.232 88.2705C186.477 87.516 184.967 85.2527 182.702 85.2527C181.192 85.2527 178.927 86.7616 178.172 88.2705C174.397 95.0605 167.603 99.5872 160.053 99.5872C152.503 99.5872 145.709 95.815 141.934 88.2705C139.669 84.4982 134.384 84.4982 132.119 88.2705C128.344 95.0605 121.55 99.5872 114 99.5872C106.45 99.5872 99.6556 95.815 95.8808 88.2705C94.3709 86.0071 92.8609 85.2527 91.351 85.2527C89.0861 85.2527 87.5762 87.516 86.8212 88.2705C83.0464 95.0605 76.2517 99.5872 68.702 99.5872C61.1523 99.5872 54.3576 95.815 50.5828 88.2705C48.3179 83.7438 43.7881 84.4982 40.7682 88.2705L33.9735 84.4982L40.7682 88.2705C36.9934 95.0605 30.1987 99.5872 22.649 99.5872C15.0993 99.5872 8.30464 95.815 4.5298 88.2705C3.01987 86.0071 1.50993 85.2527 0 85.2527V70.1637C7.54967 70.1637 14.3444 73.936 18.1192 81.4805C18.8742 82.2349 20.3841 84.4982 22.649 84.4982C24.9139 84.4982 26.4238 82.2349 27.1788 81.4805C30.9536 74.6904 37.7483 70.1637 45.298 70.1637C52.8477 70.1637 59.6424 74.6904 63.4172 81.4805C65.6821 85.2527 70.9669 85.2527 73.2318 81.4805C77.0066 74.6904 83.8013 70.1637 91.351 70.1637C98.9007 70.1637 105.695 73.936 109.47 81.4805C110.98 83.7438 112.49 84.4982 114 84.4982C116.265 84.4982 117.775 82.2349 118.53 81.4805C122.305 74.6904 129.099 70.1637 136.649 70.1637C144.199 70.1637 150.993 73.936 154.768 81.4805C155.523 82.2349 157.033 84.4982 159.298 84.4982C160.808 84.4982 163.073 82.9893 163.828 81.4805C167.603 74.6904 174.397 70.1637 181.947 70.1637C189.497 70.1637 196.291 73.936 200.066 81.4805C202.331 85.2527 207.616 85.2527 209.881 81.4805C213.656 74.6904 220.45 70.1637 228 70.1637V85.2527C226.49 85.2527 224.225 86.7616 223.47 88.2705C219.695 95.0605 212.901 99.5872 205.351 99.5872Z" fill="#ECF8FF"/>
<path d="M15.8543 201.438C6.7947 201.438 0 193.893 0 185.594C0 176.541 7.54967 169.751 15.8543 169.751C24.9139 169.751 31.7086 177.295 31.7086 185.594C32.4636 194.648 24.9139 201.438 15.8543 201.438ZM15.8543 184.84C15.0993 184.84 15.0993 185.594 15.0993 185.594C15.0993 187.103 17.3642 186.349 17.3642 185.594C17.3642 184.84 16.6093 184.84 15.8543 184.84Z" fill="#ECF8FF"/>
<path d="M65.682 153.907C54.3575 153.907 45.2979 144.854 45.2979 133.537C45.2979 122.221 54.3575 113.167 65.682 113.167C77.0065 113.167 86.0661 122.221 86.0661 133.537C86.0661 144.854 77.0065 153.907 65.682 153.907ZM65.682 129.011C62.6621 129.011 60.3972 131.274 60.3972 134.292C60.3972 137.31 62.6621 139.573 65.682 139.573C68.7018 139.573 70.9667 137.31 70.9667 134.292C70.9667 131.274 68.7018 129.011 65.682 129.011Z" fill="#ECF8FF"/>
<path d="M116.267 177.295C107.963 177.295 101.168 170.505 101.168 162.206C101.168 153.907 107.963 147.117 116.267 147.117C124.572 147.117 131.367 153.907 131.367 162.206C131.367 170.505 125.327 177.295 116.267 177.295Z" fill="#ECF8FF"/>
<path d="M198.556 138.064C188.742 138.064 181.192 130.52 181.192 120.712C181.192 110.904 188.742 103.359 198.556 103.359C208.371 103.359 215.92 110.904 215.92 120.712C215.92 130.52 207.616 138.064 198.556 138.064ZM198.556 118.448C197.046 118.448 196.291 119.203 196.291 120.712C196.291 122.221 197.046 122.975 198.556 122.975C200.066 122.975 200.821 122.221 200.821 120.712C200.821 119.203 199.311 118.448 198.556 118.448Z" fill="#ECF8FF"/>
<path d="M179.681 212C169.111 212 160.807 203.701 160.807 192.384C160.807 181.822 169.111 172.769 179.681 172.769C190.25 172.769 199.31 181.068 199.31 192.384C198.555 202.947 190.25 212 179.681 212ZM179.681 187.858C177.416 187.858 175.906 190.121 175.906 192.384C175.906 194.648 177.416 196.911 179.681 196.911C181.946 196.911 184.211 194.648 184.211 192.384C184.211 190.121 181.946 187.858 179.681 187.858Z" fill="#ECF8FF"/>
<path d="M205.352 29.4235C197.803 29.4235 191.008 25.6512 187.233 18.1068C184.968 14.3345 180.438 14.3345 177.418 18.1068C173.644 24.8968 166.849 28.669 159.299 28.669C151.75 28.669 144.955 24.8968 141.18 17.3523C138.915 13.5801 133.63 13.5801 131.366 17.3523C127.591 24.1423 120.796 27.9146 113.246 27.9146C105.697 27.9146 98.902 24.1423 95.1271 16.5979C92.8622 12.8256 88.3324 12.0712 85.3126 16.5979C81.5377 23.3879 74.743 27.9146 67.1933 27.9146C59.6437 27.9146 52.849 24.1423 49.0741 16.5979C46.8092 12.8256 42.2794 12.8256 39.2596 16.5979C38.5046 25.6512 31.7099 29.4235 24.1602 29.4235C16.6106 29.4235 9.81587 25.6512 6.04103 18.1068C5.28606 16.5979 3.02116 15.089 1.51123 15.089V0C8.30593 0 15.8556 4.52669 19.6304 10.5623C20.3854 11.3167 21.8953 13.5801 24.1602 13.5801C26.4251 13.5801 27.9351 11.3167 28.69 10.5623L35.4847 14.3345L28.69 10.5623C33.2198 4.52669 40.0145 0 46.8092 0C54.3589 0 61.1536 4.52669 64.9284 11.3167C67.1933 15.089 72.4781 15.089 74.743 11.3167C78.5178 3.77224 85.3125 0 92.1073 0C98.902 0 106.452 4.52669 110.226 10.5623C111.736 12.8256 113.246 13.5801 114.756 13.5801C117.021 13.5801 118.531 11.3167 119.286 10.5623C123.816 4.52669 130.611 0 137.405 0C144.2 0 151.75 4.52669 155.524 10.5623C156.279 11.3167 157.789 13.5801 160.054 13.5801C161.564 13.5801 163.829 12.0712 164.584 10.5623C169.114 4.52669 175.909 0 182.703 0C190.253 0 196.293 3.77224 200.822 10.5623C203.087 15.089 208.372 15.089 210.637 10.5623C213.657 4.52669 221.207 0 228.001 0V15.089C226.491 15.089 224.226 16.5979 223.471 18.1068C219.697 25.6512 212.902 29.4235 205.352 29.4235Z" fill="#ECF8FF"/>
</g>
<defs>
<clipPath id="clip0">
<rect width="228" height="212" fill="white"/>
</clipPath>
</defs>
</svg>
