<svg width="45" height="20" viewBox="0 0 45 20" fill="none" xmlns="http://www.w3.org/2000/svg">
<g clip-path="url(#clip0)">
<path d="M39.6438 12.8864C38.3455 12.8892 37.1898 12.1466 36.5379 10.8813C36.2481 10.2859 35.7425 9.98894 35.2376 9.99003C34.7327 9.99111 34.2286 10.3647 33.9412 10.8869C33.2947 12.155 32.1422 12.9026 30.8439 12.9054C29.6176 12.908 28.4619 12.1654 27.7379 10.9003C27.4481 10.3048 26.9425 10.0079 26.4376 10.0089C25.9327 10.01 25.4286 10.3837 25.1412 10.9059C24.4947 12.1739 23.3422 12.9215 22.0439 12.9243C20.7455 12.9271 19.5898 12.1845 18.9379 10.9192C18.6481 10.3237 18.1426 10.0268 17.6376 10.0279C17.1327 10.0289 16.6285 10.3281 16.3412 10.9248C15.6948 12.1928 14.5423 12.9404 13.2439 12.9432C11.9455 12.946 10.7898 12.2034 10.1379 10.9381C9.84814 10.3426 9.34258 10.0457 8.83767 10.0468C8.33275 10.0479 7.82863 10.4215 7.54123 10.9437L6.67454 10.424L7.54123 10.9437C6.89478 12.2117 5.74228 12.9593 4.44393 12.9621C3.2177 12.9648 2.062 12.2221 1.33797 10.957C1.04816 10.3616 0.542605 10.0646 0.0376884 10.0657L0.0332031 7.97943C1.33156 7.97664 2.48726 8.71926 3.13916 9.98452C3.42897 10.58 3.93452 10.8769 4.43944 10.8758C4.94436 10.8748 5.44863 10.5756 5.73588 9.97894C6.38233 8.71088 7.53482 7.9633 8.83318 7.96051C10.1315 7.95772 11.2872 8.70034 11.9391 9.9656C12.2288 10.4866 12.7345 10.858 13.2394 10.8569C13.7443 10.8558 14.2485 10.4822 14.5359 9.96002C15.1823 8.69196 16.3348 7.94438 17.6332 7.94159C18.9315 7.9388 20.0872 8.68142 20.7391 9.94669C21.0289 10.5421 21.5345 10.8391 22.0394 10.838C22.5443 10.8369 23.0486 10.5378 23.3358 9.9411C23.9823 8.67304 25.1348 7.92547 26.4331 7.92267C27.7315 7.91988 28.8872 8.6625 29.5391 9.92777C29.8289 10.5232 30.3345 10.8202 30.8394 10.8191C31.3443 10.818 31.8484 10.4444 32.1358 9.92218C32.7823 8.65412 33.9348 7.90655 35.2331 7.90376C36.4593 7.90112 37.615 8.64373 38.3391 9.90885C38.6289 10.5043 39.1344 10.8013 39.6394 10.8002C40.1443 10.7991 40.6484 10.4255 40.9358 9.90327C41.5824 8.70972 42.7347 7.88763 44.0331 7.88484L44.0376 9.97111C43.5327 9.97219 43.0284 10.2713 42.7411 10.868C42.0947 12.1361 40.9422 12.8837 39.6438 12.8864Z" fill="#39B1F2"/>
<path d="M39.6586 19.8904C38.3603 19.8931 37.2046 19.1505 36.5527 17.8853C36.263 17.3643 35.7573 16.9929 35.2524 16.9939C34.7475 16.995 34.2432 17.2941 33.956 17.8908C33.3094 19.0844 32.1569 19.832 30.8585 19.8348C29.6323 19.8374 28.4766 19.0948 27.7525 17.8297C27.4629 17.3087 26.9572 16.9373 26.4523 16.9383C25.9473 16.9394 25.4431 17.2386 25.1558 17.8353C24.5092 19.0288 23.3567 19.7764 22.0584 19.7792C20.76 19.782 19.6043 19.0393 18.9524 17.7741C18.6628 17.2531 18.157 16.8817 17.6521 16.8828C17.1472 16.8838 16.6429 17.183 16.3557 17.7797C15.7091 18.9732 14.5566 19.7208 13.2582 19.7236C11.9599 19.7264 10.8042 18.9838 10.1523 17.7185C9.86262 17.1975 9.3569 16.8261 8.85199 16.8272C8.34707 16.8282 7.84279 17.1274 7.55555 17.7241C6.9091 18.9921 5.75644 19.6652 4.45809 19.668C3.23186 19.6706 2.07616 18.928 1.35213 17.6629C1.06248 17.1419 0.556765 16.7705 0.0518485 16.7716L0.0473633 14.6853C1.27359 14.6827 2.50142 15.4251 3.15316 16.6159C3.44297 17.2113 3.94852 17.5083 4.45344 17.5072C4.95836 17.5061 5.46263 17.207 5.74988 16.6103L6.61657 17.13L5.74988 16.6103C6.39649 15.4168 7.54898 14.6692 8.84734 14.6664C10.0736 14.6637 11.3014 15.4062 11.9531 16.597C12.2428 17.1179 12.7485 17.4894 13.2534 17.4883C13.7583 17.4872 14.2625 17.1136 14.5499 16.5914C15.1965 15.3978 16.349 14.6503 17.6473 14.6475C18.8735 14.6448 20.1014 15.3873 20.7531 16.578C21.0429 17.1735 21.5485 17.4705 22.0534 17.4694C22.5583 17.4683 23.0626 17.1692 23.3498 16.5725C23.9964 15.3789 25.2211 14.6312 26.4473 14.6285C27.6735 14.6259 28.9014 15.3684 29.5531 16.5591C29.8429 17.1546 30.3485 17.4515 30.8534 17.4505C31.3583 17.4494 31.8624 17.0757 32.1498 16.5535C32.7964 15.36 34.0211 14.6123 35.2473 14.6096C36.4735 14.607 37.6292 15.3496 38.3531 16.5402C38.6429 17.1357 39.1484 17.4326 39.6534 17.4315C40.1583 17.4304 40.6624 17.0568 40.9498 16.5346C41.5964 15.3411 42.7489 14.5935 44.0473 14.5907L44.0517 16.677C43.5468 16.6781 43.0426 16.9772 42.7553 17.5739C42.1095 19.14 40.957 19.8876 39.6586 19.8904Z" fill="#39B1F2"/>
<path d="M39.6287 5.88253C38.3303 5.88533 37.1746 5.14271 36.5227 3.87744C36.2329 3.28199 35.7274 2.98503 35.2225 2.98612C34.7176 2.9872 34.2134 3.36084 33.926 3.88303C33.2796 5.15108 32.1271 5.89866 30.8287 5.90145C29.6025 5.90409 28.4468 5.16147 27.7228 3.89636C27.433 3.30091 26.9274 3.00395 26.4225 3.00504C25.9176 3.00612 25.4135 3.37976 25.1261 3.90194C24.4796 5.17 23.3271 5.91758 22.0287 5.92037C20.7304 5.92316 19.5747 5.18055 18.9228 3.91528C18.633 3.31982 18.1274 3.02287 17.6225 3.02396C17.1176 3.02504 16.6133 3.32417 16.3261 3.92086C15.6796 5.18892 14.5271 5.9365 13.2288 5.93929C11.9304 5.94208 10.7747 5.19947 10.1228 3.9342C9.83301 3.33874 9.32745 3.04179 8.82253 3.04288C8.31761 3.04396 7.8135 3.41759 7.5261 3.93978L6.6594 3.42008L7.5261 3.93978C6.87964 5.20784 5.72715 5.95542 4.42879 5.95821C3.20256 5.96085 2.04686 5.21823 1.32283 3.95312C1.03319 3.43217 0.527468 3.06071 0.0225516 3.06179L0.0180664 0.975525C1.31642 0.972734 2.47212 1.71535 3.12402 2.98062C3.41383 3.57607 3.91939 3.87303 4.4243 3.87194C4.92922 3.87086 5.4335 3.57173 5.72074 2.97503C6.43933 1.70682 7.59182 0.959242 8.81805 0.956606C10.1164 0.953815 11.2721 1.69643 11.924 2.9617C12.2136 3.48264 12.7194 3.85411 13.2243 3.85302C13.7292 3.85194 14.2333 3.4783 14.5207 2.95612C15.2393 1.6879 16.3918 0.940323 17.618 0.937687C18.9164 0.934896 20.0721 1.67751 20.724 2.94278C21.0138 3.53824 21.5193 3.83519 22.0243 3.8341C22.5292 3.83302 23.0335 3.53389 23.3207 2.9372C24.0393 1.66898 25.1918 0.921404 26.418 0.918768C27.7164 0.915977 28.8721 1.65859 29.524 2.92386C29.8138 3.51932 30.3193 3.81627 30.8242 3.81518C31.3292 3.8141 31.8333 3.44047 32.1207 2.91828C32.8393 1.65006 33.9918 0.902486 35.218 0.899849C36.4442 0.897213 37.5999 1.63983 38.3239 2.90494C38.6137 3.5004 39.1193 3.79735 39.6242 3.79627C40.1291 3.79518 40.6333 3.42155 40.9207 2.89936C41.5671 1.6313 42.7917 0.883567 44.018 0.88093L44.0224 2.9672C43.5175 2.96829 43.0133 3.26741 42.726 3.86411C42.0796 5.13217 40.9271 5.87974 39.6287 5.88253Z" fill="#39B1F2"/>
</g>
<defs>
<clipPath id="clip0">
<rect x="0.0180664" y="0.975525" width="44" height="19" transform="rotate(-0.123179 0.0180664 0.975525)" fill="white"/>
</clipPath>
</defs>
</svg>
