<svg width="18" height="20" viewBox="0 0 18 20" fill="none" xmlns="http://www.w3.org/2000/svg">
<path fill-rule="evenodd" clip-rule="evenodd" d="M4.08683 19.2275V6.90924H0.228106V19.2275H4.08683ZM2.15745 5.22738C3.50306 5.22738 4.3406 4.28147 4.3406 3.09936C4.31552 1.89064 3.50307 0.970978 2.18298 0.970978C0.863023 0.970978 0 1.89064 0 3.09936C0 4.28147 0.837354 5.22738 2.1323 5.22738H2.15737H2.15745Z" fill="currentColor"/>
<path fill-rule="evenodd" clip-rule="evenodd" d="M6.22168 19.2275H10.0804V12.3485C10.0804 11.9803 10.1054 11.6125 10.2073 11.3494C10.4863 10.6138 11.1212 9.85194 12.1872 9.85194C13.5834 9.85194 14.142 10.9816 14.142 12.6375V19.2275H18.0004V12.1644C18.0004 8.38077 16.0967 6.62018 13.558 6.62018C11.4763 6.62018 10.5624 7.85478 10.0547 8.69571H10.0805V6.90924H6.22178C6.27242 8.0651 6.22178 19.2275 6.22178 19.2275H6.22168Z" fill="currentColor"/>
</svg>
