<svg width="30" height="32" viewBox="0 0 30 32" fill="none" xmlns="http://www.w3.org/2000/svg">
<path d="M15.8006 0L8.84416 6.72715V3.07808H4.73575V10.567L0 15.4315V31.2813L29.8807 21.2853V10.225L15.8006 0Z" fill="url(#paint0_linear)"/>
<path d="M20.6535 20.4794C20.6535 21.799 20.1576 22.9307 19.1673 23.876C18.1442 24.8125 16.8795 25.2808 15.3733 25.2808C14.4687 25.2808 13.5256 25.109 12.5424 24.767C11.5664 24.4412 11.0005 24.2782 10.8419 24.2782C10.4532 24.2782 10.2031 24.6129 10.0931 25.2808H9.65295V19.38H10.0931C10.2831 21.0255 10.8705 22.279 11.8536 23.1436C12.7182 23.901 13.8 24.2797 15.1004 24.2797C16.0764 24.2797 16.8852 23.9949 17.5268 23.4239C18.1299 22.894 18.4314 22.2423 18.4314 21.4688C18.4314 20.6629 18.1256 19.9701 17.5154 19.3918C17.0395 18.9514 15.9963 18.263 14.3873 17.3265C13.3955 16.757 12.5767 16.2374 11.9308 15.7691C11.2849 15.3009 10.799 14.8708 10.4732 14.4804C9.83873 13.7641 9.52148 12.8643 9.52148 11.7795C9.52148 10.5172 9.96162 9.45006 10.8419 8.57816C11.7379 7.69012 12.9197 7.24683 14.3858 7.24683C14.766 7.24683 15.1589 7.28793 15.5634 7.36866C15.9678 7.45086 16.3793 7.57269 16.8009 7.73562C17.6654 8.06148 18.1527 8.22441 18.2642 8.22441C18.6286 8.22441 18.903 7.89855 19.0844 7.24683H19.536V13.2107H19.0844C18.9258 11.6313 18.4142 10.413 17.5497 9.55721C17.1138 9.11686 16.6337 8.78953 16.1107 8.57376C15.5876 8.35798 15.0246 8.24936 14.4216 8.24936C13.5885 8.24936 12.8911 8.51064 12.3281 9.03172C11.7493 9.55281 11.4592 10.1766 11.4592 10.9003C11.4592 11.5682 11.7365 12.167 12.2923 12.6969C12.5696 12.9744 12.984 13.2914 13.5356 13.6496C14.0872 14.0077 14.7831 14.4187 15.6234 14.884C16.3765 15.2994 17.0209 15.6723 17.5568 16.0025C18.0927 16.3328 18.5257 16.6278 18.8587 16.8876C20.0547 17.8241 20.6535 19.0219 20.6535 20.4794Z" fill="black"/>
<defs>
<linearGradient id="paint0_linear" x1="14.9407" y1="31.2814" x2="14.9407" y2="0" gradientUnits="userSpaceOnUse">
<stop stop-color="#77C64A"/>
<stop offset="1" stop-color="#35672F"/>
</linearGradient>
</defs>
</svg>
