<svg width="339" height="228" viewBox="0 0 339 228" fill="none" xmlns="http://www.w3.org/2000/svg">
<g clip-path="url(#clip0)">
<path d="M187.2 108.8H7.3001C4.4001 108.8 2.1001 111.1 2.1001 114V123.5C2.1001 126.4 4.4001 128.7 7.3001 128.7H187.2C190.1 128.7 192.4 126.4 192.4 123.5V114C192.4 111.2 190 108.8 187.2 108.8Z" stroke="#D3E0D3" stroke-width="2.8" stroke-miterlimit="10"/>
<path d="M14.7 128.8V225.9M179.7 225.9V128.8V225.9Z" stroke="#D3E0D3" stroke-width="2.8" stroke-miterlimit="10"/>
<path d="M74.6 225.9V185.6C74.6 175.2 66.1 166.7 55.7001 166.7C45.3001 166.7 36.8 175.2 36.8 185.6V225.9" stroke="#D3E0D3" stroke-width="2.8" stroke-miterlimit="10"/>
<path d="M36.8 200.1H43.6" stroke="#D3E0D3" stroke-width="2.8" stroke-miterlimit="10"/>
<path d="M147.3 153.1H116.4C113.8 153.1 111.8 155.2 111.8 157.7V185.8C111.8 188.4 113.9 190.4 116.4 190.4H147.3C149.9 190.4 152 188.3 152 185.8V157.7C152 155.2 149.8 153.1 147.3 153.1Z" stroke="#D3E0D3" stroke-width="2.8" stroke-miterlimit="10"/>
<path d="M0 225.9H233.1" stroke="#D3E0D3" stroke-width="2.8" stroke-miterlimit="10"/>
<path d="M111 167L152 167" stroke="#D3E0D3" stroke-width="2.8" stroke-miterlimit="10"/>
<path d="M103 74L144 74" stroke="#D3E0D3" stroke-width="2.8" stroke-miterlimit="10"/>
<path d="M218.7 225.9V69.8" stroke="#D3E0D3" stroke-width="2.8" stroke-miterlimit="10"/>
<path d="M84.7 28.3V108.8" stroke="#D3E0D3" stroke-width="2.8" stroke-miterlimit="10"/>
<path d="M67 1.90002L233.7 55.2V75.3L67 22V1.90002Z" stroke="#D3E0D3" stroke-width="2.8" stroke-miterlimit="10"/>
<path d="M140.4 64.2H106.5C104.7 64.2 103.3 65.6 103.3 67.4V86.6C103.3 88.3 104.7 89.7 106.5 89.7H140.4C142.1 89.7 143.5 88.3 143.5 86.6V67.4C143.5 65.7 142.1 64.2 140.4 64.2Z" stroke="#D3E0D3" stroke-width="2.8" stroke-miterlimit="10"/>
<path d="M318 145.2V140C318 127.1 307.5 116.7 294.6 116.7C281.8 116.7 271.3 127.2 271.3 140V145.3C260.2 147.1 251.6 156.8 251.6 168.3C251.6 181.2 262.1 191.7 274.9 191.7H314.3C327.2 191.7 337.6 181.2 337.6 168.3C337.6 156.7 329.1 147 318 145.2Z" stroke="#D3E0D3" stroke-width="2.8" stroke-miterlimit="10"/>
<path d="M293.9 157.3V225.9" stroke="#D3E0D3" stroke-width="2.8" stroke-miterlimit="10"/>
<path d="M309 167.7L293.9 180.3" stroke="#D3E0D3" stroke-width="2.8" stroke-miterlimit="10"/>
<path d="M301.4 151L293.9 157.3L286.2 151" stroke="#D3E0D3" stroke-width="2.8" stroke-miterlimit="10"/>
<path d="M278.7 167.7L293.9 180.3" stroke="#D3E0D3" stroke-width="2.8" stroke-miterlimit="10"/>
<path d="M276.8 225.9H310.9" stroke="#D3E0D3" stroke-width="2.8" stroke-miterlimit="10"/>
</g>
<defs>
<clipPath id="clip0">
<rect width="339" height="227.3" fill="white"/>
</clipPath>
</defs>
</svg>
