<?xml version="1.0" encoding="UTF-8"?>
<!DOCTYPE svg PUBLIC "-//W3C//DTD SVG 1.1//EN" "http://www.w3.org/Graphics/SVG/1.1/DTD/svg11.dtd">
<svg xmlns="http://www.w3.org/2000/svg" xml:space="preserve" width="5.4186mm" height="2.8312mm" version="1.1" style="shape-rendering:geometricPrecision; text-rendering:geometricPrecision; image-rendering:optimizeQuality; fill-rule:evenodd; clip-rule:evenodd"
viewBox="0 0 541.86 283.12"
 xmlns:xlink="http://www.w3.org/1999/xlink">
 <defs>
  <style type="text/css">
   <![CDATA[
    .str0 {stroke:#727271;stroke-width:8.47;stroke-miterlimit:22.9256}
    .fil0 {fill:#727271}
   ]]>
  </style>
 </defs>
 <g id="Layer_x0020_1">
  <metadata id="CorelCorpID_0Corel-Layer"/>
  <path class="fil0 str0" d="M14.17 19.74c0,6.27 1.3,5.76 6.94,11.4l239.99 239.99c4.11,4.11 6.57,6.44 8.86,6.95l1.9 0c2.22,-0.5 4.66,-2.71 8.63,-6.68l240 -240c6.37,-6.37 7.2,-5.35 7.2,-12.18 0,-1.21 -6.13,-9.44 -11,-9.44 -4.51,0 -13.33,10.45 -16.64,13.76 -5.19,5.19 -10,10 -15.19,15.19 -15.93,15.94 -211.04,211.74 -213.93,213.67 -2.89,-1.94 -209.76,-209.5 -236.2,-235.94 -3.47,-3.47 -5.91,-6.17 -8.59,-6.68l-1.84 0c-1.67,0.32 -3.52,1.49 -5.81,3.8 -1.57,1.59 -4.32,3.41 -4.32,6.16z"/>
 </g>
</svg>
