<svg width="345" height="341" viewBox="0 0 345 341" fill="none" xmlns="http://www.w3.org/2000/svg">
<rect width="345" height="341" rx="16" fill="#F7F7FB"/>
<rect x="21" y="21" width="304" height="169" rx="4" fill="#2C3972"/>
<rect x="24" y="73" width="298" height="114" rx="2" fill="white"/>
<rect x="36" y="38" width="96" height="10" rx="5" fill="white"/>
<rect x="36" y="56" width="60" height="9" rx="4.5" fill="#7B8CD6"/>
<rect x="36.5" y="86.5" width="88" height="23" rx="1.5" stroke="#E7EAF3"/>
<rect x="41" y="100" width="45" height="5" rx="2.5" fill="#7991B6"/>
<rect x="41" y="90" width="25" height="4" rx="2" fill="#CEDBEF"/>
<rect x="36.5" y="114.5" width="88" height="23" rx="1.5" stroke="#E7EAF3"/>
<rect x="41" y="128" width="45" height="5" rx="2.5" fill="#7991B6"/>
<rect x="41" y="118" width="25" height="4" rx="2" fill="#CEDBEF"/>
<rect x="36.5" y="142.5" width="88" height="23" rx="1.5" stroke="#E7EAF3"/>
<rect x="41" y="156" width="45" height="5" rx="2.5" fill="#7991B6"/>
<rect x="41" y="146" width="25" height="4" rx="2" fill="#CEDBEF"/>
<rect x="129.5" y="86.5" width="88" height="23" rx="1.5" stroke="#E7EAF3"/>
<rect x="134" y="100" width="45" height="5" rx="2.5" fill="#7991B6"/>
<rect x="134" y="90" width="25" height="4" rx="2" fill="#CEDBEF"/>
<rect x="129.5" y="114.5" width="88" height="23" rx="1.5" stroke="#E7EAF3"/>
<rect x="134" y="128" width="45" height="5" rx="2.5" fill="#7991B6"/>
<rect x="134" y="118" width="25" height="4" rx="2" fill="#CEDBEF"/>
<rect x="129.5" y="142.5" width="88" height="23" rx="1.5" stroke="#E7EAF3"/>
<rect x="134" y="156" width="45" height="5" rx="2.5" fill="#7991B6"/>
<rect x="134" y="146" width="25" height="4" rx="2" fill="#CEDBEF"/>
<rect x="42.5" y="198.5" width="262" height="36" rx="3.5" fill="white" stroke="#E7EAF3"/>
<rect x="210.5" y="205.5" width="37" height="21" rx="1.5" stroke="#009821"/>
<rect x="253" y="205" width="38" height="22" rx="2" fill="#009821"/>
<rect x="221" y="215" width="17" height="3" fill="#009821"/>
<rect x="264" y="215" width="17" height="3" fill="white"/>
<rect x="98" y="218" width="38" height="5" rx="2.5" fill="#7991B6"/>
<rect x="98" y="208" width="25" height="4" rx="2" fill="#CEDBEF"/>
<rect x="57" y="208" width="28" height="15" rx="7.5" fill="#7991B6"/>
<rect x="152" y="218" width="38" height="5" rx="2.5" fill="#7991B6"/>
<rect x="152" y="208" width="25" height="4" rx="2" fill="#CEDBEF"/>
<rect x="42.5" y="239.5" width="262" height="36" rx="3.5" fill="white" stroke="#E7EAF3"/>
<rect x="210.5" y="246.5" width="37" height="21" rx="1.5" stroke="#009821"/>
<rect x="253" y="246" width="38" height="22" rx="2" fill="#009821"/>
<rect x="221" y="256" width="17" height="3" fill="#009821"/>
<rect x="264" y="256" width="17" height="3" fill="white"/>
<rect x="98" y="259" width="38" height="5" rx="2.5" fill="#7991B6"/>
<rect x="98" y="249" width="25" height="4" rx="2" fill="#CEDBEF"/>
<rect x="57" y="249" width="28" height="15" rx="7.5" fill="#7991B6"/>
<rect x="152" y="259" width="38" height="5" rx="2.5" fill="#7991B6"/>
<rect x="152" y="249" width="25" height="4" rx="2" fill="#CEDBEF"/>
<rect x="42.5" y="280.5" width="262" height="36" rx="3.5" fill="white" stroke="#E7EAF3"/>
<rect x="210.5" y="287.5" width="37" height="21" rx="1.5" stroke="#009821"/>
<rect x="253" y="287" width="38" height="22" rx="2" fill="#009821"/>
<rect x="221" y="297" width="17" height="3" fill="#009821"/>
<rect x="264" y="297" width="17" height="3" fill="white"/>
<rect x="98" y="300" width="38" height="5" rx="2.5" fill="#7991B6"/>
<rect x="98" y="290" width="25" height="4" rx="2" fill="#CEDBEF"/>
<rect x="57" y="290" width="28" height="15" rx="7.5" fill="#7991B6"/>
<rect x="152" y="300" width="38" height="5" rx="2.5" fill="#7991B6"/>
<rect x="152" y="290" width="25" height="4" rx="2" fill="#CEDBEF"/>
<rect x="222.5" y="86.5" width="88" height="23" rx="1.5" stroke="#E7EAF3"/>
<rect x="227" y="100" width="45" height="5" rx="2.5" fill="#7991B6"/>
<rect x="227" y="90" width="25" height="4" rx="2" fill="#CEDBEF"/>
<rect x="222.5" y="114.5" width="88" height="23" rx="1.5" stroke="#E7EAF3"/>
<rect x="227" y="128" width="45" height="5" rx="2.5" fill="#7991B6"/>
<rect x="227" y="118" width="25" height="4" rx="2" fill="#CEDBEF"/>
<rect x="222" y="143" width="89" height="23" rx="2" fill="#009821"/>
<rect x="245" y="152" width="43" height="4" rx="2" fill="white"/>
</svg>
