<svg width="308" height="239" viewBox="0 0 308 239" fill="none" xmlns="http://www.w3.org/2000/svg">
<g filter="url(#filter0_d)">
<path fill-rule="evenodd" clip-rule="evenodd" d="M30 22C30 19.8 31.8 18 34 18H274C276.2 18 278 19.8 278 22V56C275.2 56 272.9 58 272.9 60.4C272.9 62.8 275.2 64.8 278 64.8V196.2C278 198.4 276.2 200.2 274 200.2H34C31.8 200.2 30 198.4 30 196.2V64.7C32.8 64.7 35.1 62.7 35.1 60.3C35.1 57.9 32.8 56 30 56V22Z" fill="white"/>
<path d="M35 60L272.71 60" stroke="#E7EAF3" stroke-dasharray="5 5"/>
</g>
<defs>
<filter id="filter0_d" x="0" y="-4" width="308" height="242.2" filterUnits="userSpaceOnUse" color-interpolation-filters="sRGB">
<feFlood flood-opacity="0" result="BackgroundImageFix"/>
<feColorMatrix in="SourceAlpha" type="matrix" values="0 0 0 0 0 0 0 0 0 0 0 0 0 0 0 0 0 0 127 0" result="hardAlpha"/>
<feOffset dy="8"/>
<feGaussianBlur stdDeviation="15"/>
<feColorMatrix type="matrix" values="0 0 0 0 0 0 0 0 0 0.0784314 0 0 0 0 0.627451 0 0 0 0.1 0"/>
<feBlend mode="normal" in2="BackgroundImageFix" result="effect1_dropShadow"/>
<feBlend mode="normal" in="SourceGraphic" in2="effect1_dropShadow" result="shape"/>
</filter>
</defs>
</svg>
