<svg width="513" height="513" viewBox="0 0 513 513" fill="none" xmlns="http://www.w3.org/2000/svg">
<mask id="mask0" mask-type="alpha" maskUnits="userSpaceOnUse" x="0" y="0" width="513" height="513">
<rect width="513" height="513" fill="#C4C4C4"/>
</mask>
<g mask="url(#mask0)">
<path d="M588.766 363.735L599 353.516L509.201 263.841L585.696 187.452L575.463 177.233L498.967 253.622L395.737 150.535L472.232 74.1452L461.999 63.9258L385.503 140.188L264.236 19.0886L287.261 -116.573L273.062 -119L237.885 87.9412L176.1 149.64L60.7169 34.4175L50.4834 44.6369L165.866 159.86L99.6043 226.03L77.4743 298.587L-20 396.054L-9.76648 406.273L83.8702 312.639L168.169 396.82L67.4966 497.353L77.7301 507.572L264.492 321.069L318.474 374.976L139.643 553.559L149.876 563.778L270.888 442.935L268.841 531.076L208.719 591.115L218.953 601.334L276.005 544.362L375.781 644L386.015 633.781L286.238 534.142L382.049 438.464L514.19 570.421L524.423 560.202L392.283 428.245L468.011 352.622L444.09 328.734L498.967 273.933L588.766 363.735ZM438.845 213.894L383.968 268.695L330.754 215.555L385.631 160.754L438.845 213.894ZM258.735 306.379L233.152 331.928L234.047 213.383L271.016 176.466L311.31 216.705L258.735 306.379ZM320.392 205.208L281.249 166.119L336.126 111.318L375.27 150.407L320.392 205.208ZM325.893 101.099L271.016 155.9L245.432 130.351L261.294 36.5892L325.893 101.099ZM233.791 112.595L229.954 135.333L260.91 166.247L226.884 200.226L186.461 159.86L233.791 112.595ZM92.185 300.375L112.524 233.694L176.228 170.079L219.592 213.383L218.697 346.49L178.53 386.601L92.185 300.375ZM283.68 516.131L285.726 427.989L328.707 385.068L371.816 428.117L283.68 516.131ZM382.049 417.898L273.574 309.701L321.927 227.307L447.416 352.622L382.049 417.898ZM433.857 318.515L394.202 278.915L449.079 224.114L488.734 263.714L433.857 318.515Z" fill="url(#paint0_radial)"/>
</g>
<defs>
<radialGradient id="paint0_radial" cx="0" cy="0" r="1" gradientUnits="userSpaceOnUse" gradientTransform="translate(289.5 262.5) rotate(90) scale(381.5 309.5)">
<stop stop-color="#F1F4FF"/>
<stop offset="1" stop-color="white" stop-opacity="0"/>
</radialGradient>
</defs>
</svg>
