<svg width="20" height="20" viewBox="0 0 20 20" fill="none" xmlns="http://www.w3.org/2000/svg">
<path d="M8.07145 12.0752C9.24475 13.1996 10.0758 13.9818 10.8092 14.324C11.3958 14.6662 11.9824 14.4218 12.3247 14.0796C12.6669 13.6396 13.0091 13.2974 13.4002 12.8574C14.0846 12.0752 17.6534 13.4441 18.7289 13.6396C19.56 13.884 20 14.324 20 14.8618C20 15.5462 20 16.1818 20 16.7684C19.0711 18.7728 17.6534 19.8972 15.5023 19.995C12.4224 20.0928 8.90254 18.7728 4.99154 14.9596C1.2272 11.0486 -0.092759 7.57756 0.00501601 4.44876C0.00501601 2.3466 1.17832 0.879975 3.1827 0C3.76935 0 4.50267 0 5.08932 0C5.67597 0 6.16484 0.537761 6.26262 1.31996C6.60483 2.44437 8.02256 5.91538 7.19147 6.6487C6.84926 6.99091 6.36039 7.33312 6.01818 7.67534C5.67597 8.01755 5.43153 8.55531 5.77374 9.23973C6.16484 10.0708 6.84926 10.853 8.07145 12.0752Z" fill="white"/>
</svg>
