<svg width="336" height="16" viewBox="0 0 336 16" fill="none" xmlns="http://www.w3.org/2000/svg">
<path d="M119.432 4.25818C119.429 4.29503 119.427 4.33187 119.424 4.36871C119.089 4.31389 118.926 4.82297 118.83 4.3741C118.875 4.3395 118.923 4.26806 118.97 4.19662L118.968 4.23346C119.01 4.23571 119.453 3.96343 119.432 4.25818Z" fill="#2C3972"/>
<path d="M118.588 4.21324C118.461 4.2065 118.514 4.06137 118.479 3.94859C118.609 3.91849 118.688 3.99667 118.725 4.0726C118.677 4.14405 118.632 4.17864 118.585 4.25008L118.588 4.21324Z" fill="#2C3972"/>
<path d="M90.0424 0.290457L90.0846 0.292704C90.082 0.329548 90.082 0.329548 90.0371 0.364145C89.9078 0.394247 89.8682 0.355155 89.7837 0.350661C89.7889 0.276973 89.7916 0.240128 89.7968 0.16644C89.9261 0.136338 90.008 0.177677 90.0424 0.290457Z" fill="#2C3972"/>
<path d="M16.4342 3.54873C16.4263 3.65926 16.2574 3.65027 16.173 3.64578C16.1756 3.60894 16.1756 3.60893 16.2204 3.57434C16.2231 3.53749 16.2257 3.50065 16.2706 3.46605C16.355 3.47055 16.4395 3.47504 16.4817 3.47729C16.4791 3.51413 16.4791 3.51413 16.5187 3.55322L16.4342 3.54873Z" fill="#2C3972"/>
<path d="M144.528 1.85814L144.483 1.89274C144.441 1.89049 144.399 1.88824 144.359 1.84915C144.362 1.81231 144.362 1.81231 144.362 1.81231C144.409 1.74087 144.457 1.66942 144.504 1.59798C144.589 1.60248 144.628 1.64157 144.626 1.67841L144.618 1.78894C144.618 1.78894 144.573 1.82354 144.528 1.85814Z" fill="#2C3972"/>
<path d="M118.376 3.61026C118.144 3.30203 118.244 3.08546 118.418 3.02076C118.397 3.31551 118.426 3.50198 118.461 3.61476L118.376 3.61026Z" fill="#2C3972"/>
<path d="M143.916 1.52969C143.918 1.49284 143.921 1.456 143.924 1.41915C144.011 1.3868 144.058 1.31536 144.185 1.3221C144.135 1.43039 144.219 1.43488 144.304 1.43938L144.346 1.44162C144.296 1.54991 144.248 1.62135 144.201 1.69279C144.119 1.65145 144.079 1.61236 143.997 1.57102C143.955 1.56878 143.955 1.56878 143.916 1.52969Z" fill="#2C3972"/>
<path d="M293.876 12.4312L286.245 11.8402C286.169 11.7252 286.09 11.647 286.008 11.6057L285.966 11.6034L285.968 11.5666C285.868 11.1914 285.878 11.044 286.264 10.9906C285.897 10.7861 285.414 11.6111 284.506 11.2669C284.495 11.4143 284.482 11.5985 284.472 11.7459L272.793 10.8656C266.72 10.4315 260.602 10.032 254.526 9.63471C254.74 9.6091 254.874 9.50531 255.048 9.44061C254.834 8.87447 255.383 8.90368 255 8.32855C254.707 8.27598 254.731 8.53613 254.359 8.40538C254.383 8.66553 254.291 8.77157 254.079 8.76034C254.101 9.05733 254.259 9.2137 254.146 9.61449C253.639 9.58753 253.09 9.55831 252.586 9.49451C252.588 9.45766 252.591 9.42082 252.639 9.34938L252.641 9.31253L252.602 9.27344C252.565 9.19751 252.53 9.08473 252.538 8.9742C252.543 8.90051 252.504 8.86142 252.419 8.85692C252.377 8.85468 252.33 8.92612 252.327 8.96296C252.316 9.11034 252.348 9.25996 252.427 9.33814C252.425 9.37499 252.422 9.41183 252.377 9.44643C252.293 9.44194 252.166 9.43519 252.082 9.4307C252.158 8.95397 251.952 8.86905 252.147 8.5096C251.144 8.3083 251.163 9.23389 250.356 9.26489C250.353 9.30173 250.353 9.30173 250.35 9.33858C245.961 9.06805 241.572 8.79752 237.183 8.52699C237.235 8.38186 237.251 8.1608 237.264 7.97658C236.995 8.18416 237.016 7.88941 236.75 8.06015C236.861 8.28795 236.773 8.3203 236.803 8.50677C230.851 8.15311 224.854 7.83404 218.858 7.51497C218.858 7.51497 218.858 7.51497 218.86 7.47813C218.776 7.47363 218.776 7.47363 218.731 7.50823C214.212 7.26781 209.691 7.06423 205.17 6.86065C205.131 6.82156 205.133 6.78471 205.051 6.74337C205.009 6.74113 204.967 6.73888 204.964 6.77572C204.962 6.81257 204.962 6.81257 204.959 6.84941C192.451 6.29485 179.938 5.81397 167.417 5.44362C165.894 5.39958 164.329 5.35328 162.807 5.30924C162.809 5.27239 162.767 5.27015 162.77 5.2333C162.862 5.12726 162.917 4.94529 162.928 4.79791C162.93 4.76107 162.891 4.72198 162.848 4.71973C162.806 4.71749 162.761 4.75208 162.759 4.78893C162.751 4.89946 162.606 5.15063 162.558 5.22207L162.519 5.18298C161.943 4.93046 161.856 4.9628 161.049 4.9938C161.08 5.14342 160.991 5.21262 160.904 5.24497C160.397 5.21801 159.93 5.23013 159.423 5.20317C159.433 5.05579 159.444 4.90842 159.452 4.79788C159.201 4.74756 159.109 4.8536 158.937 4.88145C159.014 4.99648 159.048 5.10926 159.127 5.18744C158.365 5.18384 157.562 5.14115 156.799 5.13755L147.319 4.92898C147.063 4.36059 146.355 4.17502 145.511 4.13008C145.062 3.8843 145.157 3.14966 144.212 3.3213C144.423 3.92428 143.69 4.10715 143.399 4.01773C143.376 4.34933 143.611 4.62072 143.933 4.85976C141.18 4.82424 138.427 4.78872 135.672 4.79004L125.123 4.70952L120.546 4.68792C120.517 4.50145 120.446 4.31274 120.372 4.16086C120.295 4.04584 120.261 3.93306 120.226 3.82028L120.269 3.82253C119.952 3.5098 119.722 3.16472 119.223 3.02723C119.083 2.61295 119.608 2.97376 119.511 2.56173L119.516 2.48805C119.556 2.52714 119.593 2.60307 119.632 2.64216C119.63 2.67901 119.672 2.68125 119.714 2.6835L119.756 2.68575C119.801 2.65115 119.804 2.61431 119.806 2.57746C119.769 2.50153 119.73 2.46244 119.69 2.42335C119.753 2.13084 119.547 2.04592 119.207 2.06479C119.344 1.92415 119.262 1.88281 119.233 1.69635C119.019 1.72196 119.08 2.05805 118.708 1.92729C118.542 1.88146 118.645 1.62804 118.616 1.44158C118.447 1.43259 118.28 1.38676 118.228 1.53189L118.27 1.53413C117.974 1.51841 117.705 1.72599 117.644 1.98165L117.602 1.9794C117.367 2.29976 117.352 3.11258 117.634 3.31253C117.479 3.71107 117.128 3.87732 116.856 4.12174C116.928 4.31046 116.957 4.49693 116.986 4.68339L115.671 4.68743C115.579 4.20171 115.478 3.82653 115.032 3.54391C114.362 3.43427 114.827 4.64249 114.193 4.60878C114.056 4.15767 114.547 4.40569 114.489 4.03276C113.75 4.28931 113.736 3.88178 112.992 4.21202C112.977 4.43309 112.966 4.58046 113.04 4.73233L112.829 4.7211C112.832 4.68426 112.837 4.61057 112.839 4.57372C112.75 4.64292 112.581 4.63393 112.488 4.73997L98.8434 4.67964C98.8961 4.53451 98.9066 4.38714 98.9197 4.20292C98.4473 4.28873 98.7453 3.67586 98.2281 3.79628C98.1543 4.23616 98.355 4.39477 98.4633 4.65942L94.1402 4.65129C93.6623 4.21905 93.2767 3.68076 92.2131 3.73512L92.2105 3.77196C92.0442 3.72613 91.9175 3.71939 91.7908 3.71265L91.7486 3.7104L91.7038 3.745C91.6589 3.7796 91.6141 3.81419 91.5666 3.88563L91.5692 3.84879C91.3607 3.80071 91.3502 3.94809 91.1813 3.9391C91.1629 4.19701 91.229 4.45941 91.2581 4.64588L82.91 4.60851C79.3945 4.56939 75.8737 4.60396 72.3556 4.60168L61.8011 4.59485C54.7648 4.5903 47.718 4.73312 40.6843 4.69172C37.1661 4.68945 33.6401 4.7977 30.1193 4.83227L28.8472 4.83855C28.913 4.5092 28.8997 4.10167 28.7016 3.90621C28.6646 3.83028 28.6277 3.75434 28.5511 3.63932C28.5141 3.56338 28.3901 3.5198 28.3426 3.59124C28.2555 3.62359 28.2476 3.73412 28.2846 3.81005C28.3612 3.92508 28.3982 4.00101 28.4351 4.07695L28.3929 4.0747C28.1739 4.174 27.9549 4.2733 27.9709 4.64399C27.8838 4.67634 27.8468 4.6004 27.852 4.52671C27.6383 4.55232 27.7571 4.66959 27.8733 4.82371L27.2372 4.82685C27.1236 4.63589 26.9678 4.44268 26.7672 4.28407C26.6854 4.24273 26.6009 4.23824 26.5534 4.30968C26.5059 4.38112 26.5429 4.45706 26.5825 4.49615C26.704 4.57658 26.7806 4.6916 26.8994 4.80888L19.5596 4.89913C18.4986 4.91664 17.4798 4.9364 16.4189 4.95392C16.337 4.91258 16.2104 4.90584 16.1655 4.94043C10.7761 5.02351 5.38674 5.10659 0 5.15282C0.0104972 5.00545 0.232157 4.8693 0.485533 4.88279C0.538259 4.73766 0.503903 4.62488 0.511776 4.51435C6.82733 3.92579 13.1402 3.37408 19.4505 2.85922C26.3917 2.41491 33.3776 1.93599 40.3161 1.52852C40.3557 1.56761 40.4428 1.53526 40.485 1.53751C40.5273 1.53976 40.5273 1.53976 40.5695 1.542C44.1008 1.36006 47.6294 1.21496 51.1581 1.06986L56.4313 0.832666C58.1758 0.740571 59.9599 0.687567 61.7018 0.632316L72.2773 0.344394C75.8007 0.272982 79.3293 0.127884 82.8501 0.0933168C84.9695 0.0951323 87.0914 0.0601038 89.2134 0.0250753C89.2556 0.0273222 89.2952 0.0664129 89.3375 0.0686599C89.3797 0.0709068 89.4219 0.0731535 89.4641 0.0754004C89.4641 0.0754004 89.4642 0.0754013 89.5064 0.0776482C89.5011 0.151336 89.4933 0.261868 89.488 0.335556L89.4854 0.372401L89.525 0.411491C89.5646 0.450582 89.6886 0.494166 89.7731 0.49866C89.8576 0.503154 89.8998 0.505401 89.9869 0.473051L90.0291 0.475299L90.0317 0.438455C90.0766 0.403858 90.1241 0.332416 90.1742 0.224131L90.3801 0.309054C90.5938 0.283445 90.7284 0.179653 90.8207 0.0736152C93.4494 0.0655501 96.0808 0.0206409 98.6673 0.0103288C98.6646 0.0471729 98.662 0.084017 98.6594 0.120861C98.794 0.0170697 99.0077 -0.00853905 99.2585 0.0417867L99.2611 0.00494271C100.871 0.0166388 102.484 -0.00851002 104.094 0.0031861C111.167 0.0836749 118.201 0.125073 125.263 0.352938L135.499 0.675636C135.404 0.818519 135.311 0.924557 135.1 0.913322C135.058 0.911075 134.971 0.943425 135.008 1.01936C135.003 1.09305 135.042 1.13214 135.127 1.13663C135.465 1.15461 135.649 0.942533 135.752 0.689118L135.836 0.693612C136.09 0.707093 136.385 0.722823 136.639 0.736304L136.723 0.740798C138.922 0.820795 141.123 0.863949 143.322 0.943946C143.271 1.05223 143.264 1.16276 143.253 1.31014C143.274 1.60714 143.274 1.60714 143.599 1.80933L143.602 1.77249C143.641 1.81158 143.684 1.81383 143.723 1.85292C143.845 1.93335 143.966 2.01378 144.09 2.05736C144.09 2.05736 144.09 2.05736 144.132 2.05961C144.175 2.06186 144.175 2.06186 144.219 2.02726C144.343 2.07084 144.428 2.07534 144.47 2.07759C144.512 2.07983 144.512 2.07983 144.555 2.08208L144.597 2.08433L144.642 2.04973C144.644 2.01288 144.687 2.01513 144.689 1.97829C144.734 1.94369 144.781 1.87225 144.826 1.83765L144.837 1.69028C144.985 1.99402 145.449 2.01873 145.642 2.28788C145.988 2.19532 146.098 1.83137 146.09 1.35015C145.969 1.26972 145.808 1.1502 145.644 1.06753C145.94 1.08326 146.235 1.09899 146.489 1.11247L157.057 1.52683C158.748 1.57986 160.438 1.66974 162.129 1.72278C162.394 2.18063 162.869 2.05797 163.412 2.16087C163.423 2.0135 163.391 1.86387 163.441 1.75559C164.243 1.79828 165.004 1.83873 165.809 1.84457C165.838 2.03104 165.827 2.17842 165.854 2.40173C166.429 2.65425 166.579 1.73764 166.851 2.08497C166.978 2.09171 166.941 2.01577 166.907 1.90299C167.16 1.91648 167.371 1.92771 167.624 1.94119C171.428 2.10657 175.186 2.30655 178.989 2.47193C178.987 2.50878 179.029 2.51103 179.026 2.54787C179.024 2.58471 179.063 2.6238 179.106 2.62605C179.148 2.6283 179.193 2.5937 179.195 2.55686C179.198 2.52001 179.198 2.52001 179.201 2.48317C179.707 2.51013 180.256 2.53934 180.763 2.56631C180.803 2.6054 180.842 2.64449 180.882 2.68358L180.924 2.68583C181.009 2.69032 181.053 2.65572 181.101 2.58428C182.917 2.6809 184.733 2.77752 186.548 2.87414C186.548 2.87414 186.548 2.87414 186.546 2.91098C186.672 2.91772 186.799 2.92446 186.926 2.93121C186.926 2.93121 186.926 2.93121 186.928 2.89436C186.971 2.89661 187.055 2.9011 187.097 2.90335C187.095 2.94019 187.134 2.97928 187.174 3.01837L187.214 3.05747L187.298 3.06196C187.34 3.06421 187.425 3.0687 187.509 3.07319C187.594 3.07769 187.641 3.00625 187.646 2.93256C190.602 3.08985 193.516 3.24489 196.47 3.43902L196.467 3.47586C196.583 3.62998 196.618 3.74276 196.61 3.85329C196.605 3.92698 196.641 4.00291 196.723 4.04425C196.808 4.04874 196.855 3.9773 196.903 3.90586C196.916 3.72164 196.882 3.60886 196.808 3.45699C208.334 4.10725 219.852 4.86805 231.322 5.70028C231.32 5.73713 231.362 5.73938 231.359 5.77622C231.745 5.72275 231.903 5.87912 232.196 5.93169C232.159 5.85576 232.162 5.81891 232.209 5.74747C232.589 5.76769 232.969 5.78792 233.347 5.84498C233.26 5.87733 233.252 5.98786 233.246 6.06155C233.334 6.0292 233.381 5.95776 233.508 5.9645C233.51 5.92766 233.516 5.85397 233.518 5.81713C239.676 6.25571 245.831 6.73114 251.983 7.24342C259.02 7.83973 266.014 8.43378 273.006 9.06469L291.278 10.8136C291.278 10.8136 291.276 10.8504 291.318 10.8527C291.318 10.8527 291.32 10.8158 291.405 10.8203L292.247 10.9021C292.244 10.939 292.284 10.978 292.326 10.9803C292.408 11.0216 292.532 11.0652 292.659 11.072C292.785 11.0787 292.872 11.0463 292.962 10.9772L294.057 11.0724L307.312 12.4434L307.352 12.4825L307.394 12.4847L308.49 12.58C308.487 12.6168 308.484 12.6537 308.524 12.6928C308.519 12.7665 308.553 12.8793 308.59 12.9552C308.587 12.992 308.63 12.9943 308.672 12.9965L308.714 12.9988C308.759 12.9642 308.804 12.9296 308.764 12.8905C308.727 12.8146 308.732 12.7409 308.695 12.6649L308.698 12.6281L315.012 13.2599L323.677 14.2017C323.832 14.3949 324.36 14.1271 323.999 14.4408C324.12 14.5212 324.505 14.4677 324.812 14.3361L336 15.5601L335.926 16L314.906 14.1419L293.876 12.4312ZM16.6954 3.4523C16.6532 3.45005 16.6531 3.45005 16.6558 3.41321L16.6584 3.37636L16.6162 3.37411C16.4947 3.29369 16.2836 3.28245 16.1543 3.31255L16.112 3.31031L16.1094 3.34715C16.1042 3.42084 16.0593 3.45544 16.0567 3.49228C16.0092 3.56372 16.004 3.63741 16.0013 3.67425L15.9987 3.7111L16.0383 3.75019C16.0779 3.78928 16.1175 3.82837 16.1571 3.86746L16.0701 3.89981C16.181 4.12762 16.2523 4.31633 16.6772 4.30196C16.7009 3.97036 17.1916 3.62664 16.6954 3.4523ZM24.4949 4.64396C24.4923 4.6808 24.5319 4.71989 24.5741 4.72214L24.7853 4.73337C24.8275 4.73562 24.8724 4.70102 24.875 4.66418C24.8776 4.62733 24.838 4.58824 24.7958 4.586L24.5424 4.57251C24.5002 4.57027 24.4975 4.60711 24.4949 4.64396ZM25.4447 3.80688C25.3233 3.72646 25.2414 3.68512 25.1174 3.64153L25.0329 3.63704C24.8614 3.6649 24.7691 3.77093 24.6371 3.83788L24.5923 3.87248L24.5897 3.90932C24.5317 4.12814 24.6452 4.3191 24.8037 4.47546C24.8433 4.51455 24.8433 4.51455 24.8855 4.5168C24.9277 4.51905 24.9277 4.51905 24.9726 4.48445C25.0174 4.44985 25.0649 4.37841 25.0253 4.33932C24.9487 4.2243 24.8325 4.07018 24.8378 3.99649C24.8853 3.92505 24.9723 3.8927 25.0594 3.86035C25.1413 3.90169 25.1809 3.94078 25.2653 3.94527C25.2601 4.01896 25.2575 4.05581 25.21 4.12725C25.1625 4.19869 25.2021 4.23778 25.2839 4.27912C25.3657 4.32045 25.4106 4.28586 25.4581 4.21442C25.5108 4.06929 25.5187 3.95875 25.5239 3.88507L25.4447 3.80688ZM41.0111 3.67357C40.9345 3.55854 40.8131 3.47812 40.689 3.43453C40.6072 3.39319 40.5201 3.42554 40.5149 3.49923C40.4674 3.57067 40.5044 3.64661 40.5862 3.68794C40.668 3.72928 40.7076 3.76837 40.7499 3.77062C40.7446 3.84431 40.7816 3.92024 40.8661 3.92474C40.8661 3.92474 40.8661 3.92474 40.9083 3.92699C40.9928 3.93148 41.0376 3.89688 41.0429 3.82319L41.093 3.71491L41.0111 3.67357ZM41.4706 4.36373C41.3862 4.35923 41.344 4.35699 41.3044 4.3179C41.3096 4.24421 41.3175 4.13368 41.3254 4.02314L41.3306 3.94946C41.3332 3.91261 41.2936 3.87352 41.2514 3.87127C41.2092 3.86903 41.1643 3.90362 41.1617 3.94047L41.1564 4.01415C41.1486 4.12469 41.1381 4.27206 41.1328 4.34575L41.1302 4.3826L41.1698 4.42169C41.2094 4.46078 41.2912 4.50211 41.4601 4.5111C41.4601 4.5111 41.4602 4.5111 41.5024 4.51335C41.5446 4.5156 41.5894 4.481 41.5921 4.44416C41.5525 4.40506 41.5129 4.36597 41.4706 4.36373ZM44.3599 2.48336C44.1514 2.43528 44.1409 2.58265 43.972 2.57367C43.8164 2.97221 44.2914 2.84955 44.3179 3.07286C44.7454 3.02164 44.4286 2.70891 44.3599 2.48336ZM50.8732 1.49851C50.7465 1.49177 50.6198 1.48503 50.4931 1.47828C50.3691 1.4347 50.2424 1.42796 50.1579 1.42347C50.0735 1.41897 49.989 1.41448 49.9468 1.41223C49.8623 1.40774 49.8175 1.44233 49.77 1.51378C49.7648 1.58746 49.8017 1.6634 49.844 1.66564C49.9258 1.70698 50.0525 1.71372 50.1396 1.68137C50.224 1.68587 50.2663 1.68811 50.3507 1.69261C50.1556 2.05206 50.2691 2.24302 50.417 2.54676C50.8551 2.34817 50.9632 2.02106 50.8732 1.49851ZM58.4108 1.01196C58.1601 0.961636 58.0677 1.06767 57.8962 1.09553C57.9122 1.46622 58.4638 1.45858 58.4108 1.01196ZM65.1844 4.10917C65.1818 4.14601 65.2188 4.22195 65.261 4.22419C65.3455 4.22869 65.4696 4.27227 65.4696 4.27227C65.4669 4.30912 65.5065 4.34821 65.5487 4.35045C65.5487 4.35045 65.5488 4.35045 65.591 4.3527C65.6332 4.35495 65.6807 4.28351 65.6833 4.24666C65.6516 4.09704 65.4853 4.05121 65.3164 4.04222C65.2319 4.03773 65.1871 4.07232 65.1844 4.10917ZM65.6957 2.28719C65.5664 2.31729 65.5955 2.50376 65.5428 2.64889C65.6747 2.58194 65.7644 2.51275 65.7962 2.66237C66.1815 2.6089 65.643 2.43232 65.6957 2.28719ZM81.5785 1.2831C81.4969 1.83351 81.8269 1.96202 82.3785 1.95439C82.3176 1.6183 83.1515 1.21886 82.8031 1.34826C82.6368 1.30243 82.8189 1.1272 82.9482 1.09709C82.5495 0.743027 81.882 1.1883 81.5785 1.2831ZM102.482 1.80359C102.484 1.76674 102.244 1.56904 102.11 1.67283C102.02 1.74203 102.595 1.99455 102.482 1.80359ZM102.719 2.03814C103.287 1.80944 103.786 2.53869 102.719 2.03814V2.03814ZM103.939 2.17698C103.899 2.13789 103.812 2.17024 103.767 2.20484C103.717 2.31313 103.667 2.42141 103.657 2.56879C103.651 2.64248 103.691 2.68157 103.775 2.68606C103.86 2.69055 103.907 2.61911 103.913 2.54543C103.92 2.43489 103.926 2.36121 103.971 2.32661C104.015 2.29201 103.978 2.21608 103.939 2.17698ZM106.622 0.803444C106.699 0.91847 106.736 0.994405 106.723 1.17862C106.813 1.10943 106.942 1.07933 107.111 1.08831C107.084 0.865003 106.921 0.782329 106.622 0.803444ZM114.19 1.68687C113.894 1.67114 113.862 2.11327 114.021 2.26963C114.314 2.3222 114.134 1.86884 114.19 1.68687ZM114.891 0.762627C114.754 0.903262 114.733 1.19801 114.712 1.49277C115.174 1.55433 115.319 1.30316 115.583 1.16926C115.519 0.870018 115.319 0.711409 114.891 0.762627ZM115.752 2.36176C115.343 2.15507 115.639 2.76255 115.346 2.70997C115.37 2.97013 115.818 2.62416 115.752 2.36176ZM123.297 0.581175C123.791 0.200607 123.564 1.00219 123.297 0.581175V0.581175ZM124.982 2.52C124.647 2.46518 124.351 2.44945 124.449 2.86147C124.787 2.87945 125.003 2.817 124.982 2.52ZM125.955 1.35133C125.947 1.46186 125.937 1.60924 125.929 1.71977L125.971 1.72202C125.924 1.79346 125.916 1.90399 125.911 1.97768C125.903 2.08821 125.898 2.1619 125.853 2.19649C125.768 2.192 125.639 2.2221 125.515 2.17852C125.473 2.17627 125.428 2.21087 125.425 2.24771C125.423 2.28456 125.462 2.32365 125.504 2.3259C125.547 2.32814 125.547 2.32814 125.589 2.33039C125.716 2.33713 125.842 2.34387 125.929 2.31152L125.972 2.31377C126.103 2.24682 126.114 2.09944 126.122 1.98891C126.124 1.95207 126.127 1.91522 126.13 1.87838C126.51 1.8986 126.652 1.68428 126.755 1.43086C126.517 1.19632 126.095 1.17385 125.955 1.35133ZM128.584 0.751512C128.204 0.731289 127.824 0.711067 127.721 0.964481C127.753 1.70586 128.922 1.36124 128.584 0.751512ZM132.588 2.85076C132.507 2.80942 132.417 2.87862 132.412 2.9523C132.406 3.02599 132.443 3.10193 132.483 3.14102C132.731 3.22819 132.974 3.38905 132.956 3.64695C132.95 3.72064 133.03 3.79882 133.072 3.80107C133.156 3.80556 133.204 3.73412 133.209 3.66044C133.285 3.18371 132.921 2.94242 132.588 2.85076ZM136.077 0.891314C135.823 0.877832 135.884 1.21392 135.552 1.12226C135.525 1.4907 136.032 1.51766 136.167 1.41387C136.182 1.19281 136.061 1.11238 136.077 0.891314ZM139.047 2.63964C139.379 2.7313 139.601 3.18691 139.873 2.94248C139.72 2.71243 139.363 2.36061 139.047 2.63964ZM148.828 2.19849C148.894 2.46089 148.603 2.37147 148.548 2.55345L148.545 2.59029C148.503 2.58805 148.461 2.5858 148.421 2.54671C148.218 2.42494 148.149 2.19938 147.722 2.2506C147.587 2.35439 147.614 2.5777 147.442 2.60556C147.503 2.94165 147.603 3.31683 148.118 3.23326C148.089 3.0468 148.261 3.01894 148.271 2.87156L148.313 2.87381C148.355 2.87606 148.355 2.87606 148.398 2.8783C148.699 3.4121 148.701 2.7835 149.105 3.06388C149.229 2.51571 149.63 2.83293 149.765 2.72914C149.994 2.48247 148.997 2.79923 149.419 2.22995C149.192 2.43978 149.123 2.21422 148.828 2.19849ZM149.859 1.40276C149.891 1.55238 150.057 1.59821 150.086 1.78468C150.379 1.83725 150.237 1.45982 150.493 1.43646C150.374 1.31919 150.036 1.30121 149.859 1.40276ZM153.042 1.94197C153.045 1.90512 153.003 1.90287 153.005 1.86603C152.929 1.751 152.815 1.56004 152.596 1.65934C152.554 1.65709 152.549 1.73078 152.546 1.76763C152.544 1.80447 152.625 1.84581 152.67 1.81121C152.757 1.77886 152.797 1.81795 152.871 1.96982C152.911 2.00891 152.908 2.04576 152.95 2.048C152.897 2.19313 152.818 2.11495 152.823 2.04126C152.428 2.83386 153.188 3.46605 153.555 3.6705C154.033 2.91924 153.61 2.30502 153.042 1.94197ZM156.023 2.95116C156.471 2.60519 156.371 3.41351 156.023 2.95116V2.95116ZM158.135 4.24701C158.095 4.20792 158.008 4.24027 157.963 4.27487C157.865 4.45459 157.852 4.63881 157.921 4.86437C157.918 4.90122 157.958 4.94031 158 4.94255L158.042 4.9448C158.087 4.9102 158.132 4.87561 158.095 4.79967C158.021 4.6478 158.029 4.53727 158.124 4.39439C158.214 4.32519 158.219 4.2515 158.135 4.24701ZM159.699 1.9263C159.551 2.21431 160.037 2.53602 159.646 2.66318C159.776 2.63307 160.246 3.17585 160.246 3.17585C161.151 3.55688 161.792 3.48006 161.929 2.15592C161.142 1.30041 160.815 1.72681 159.699 1.9263ZM162.289 4.8379C162.622 4.92956 162.252 4.17021 162.584 4.26188C162.479 3.96038 161.964 4.6357 162.289 4.8379ZM164.376 3.50659C164.081 3.49086 164.049 3.93299 164.207 4.08935C164.593 4.03589 164.397 3.80359 164.376 3.50659ZM166.59 3.36552C166.292 3.38664 166.353 3.13097 166.007 3.22353C165.891 3.66117 166.361 3.61219 166.335 3.98063C166.591 3.95727 166.612 3.66252 166.59 3.36552ZM175.844 4.96742C175.86 5.33811 175.43 5.42617 175.665 5.69756C176.46 5.85078 176.955 4.84162 175.844 4.96742ZM179.726 2.84398C179.557 2.83499 179.388 2.826 179.219 2.81701C179.214 2.8907 179.209 2.96439 179.201 3.07492C179.37 3.08391 179.539 3.0929 179.708 3.10188C179.713 3.0282 179.718 2.95451 179.726 2.84398ZM182.822 4.00729C182.572 3.95696 182.556 4.17803 182.543 4.36225C182.63 4.3299 182.677 4.25845 182.804 4.26519C182.812 4.15466 182.817 4.08097 182.822 4.00729ZM182.949 4.01403C183.01 4.35012 182.756 4.33664 182.78 4.59679C183.271 4.25307 183.343 5.03353 183.987 4.91986C184.274 4.45437 183.72 3.9071 182.949 4.01403ZM185.849 3.16978C185.823 2.94647 185.675 3.23448 185.704 3.42095C185.731 3.64426 185.878 3.35625 185.849 3.16978ZM195.749 3.43766C195.752 3.40082 195.712 3.36173 195.667 3.39632C195.625 3.39408 195.62 3.46777 195.617 3.50461C195.654 3.58054 195.646 3.69108 195.641 3.76477C195.638 3.80161 195.678 3.8407 195.72 3.84295C195.763 3.84519 195.807 3.8106 195.81 3.77375C195.821 3.62638 195.784 3.55044 195.749 3.43766ZM196.827 5.56609C196.79 5.49016 196.705 5.48566 196.618 5.51801C196.531 5.55036 196.523 5.66089 196.56 5.73683C196.637 5.85186 196.632 5.92554 196.589 5.9233C196.505 5.9188 196.458 5.99024 196.45 6.10078C196.444 6.17446 196.524 6.25265 196.608 6.25714C196.608 6.25714 196.608 6.25714 196.65 6.25939C196.777 6.26613 196.867 6.19693 196.917 6.08865C196.972 5.90667 196.943 5.72021 196.827 5.56609ZM197.492 5.74942C197.479 5.93364 197.463 6.1547 197.45 6.33892C197.793 6.28321 197.938 6.03204 198.202 5.89815C198.057 5.55756 197.914 5.77189 197.492 5.74942ZM202.123 4.40555C201.846 4.13191 201.289 4.21323 201.118 4.24109L201.076 4.23884L201.031 4.27344C200.983 4.34488 200.936 4.41632 200.888 4.48776L200.838 4.59605C200.793 4.63064 200.83 4.70658 200.87 4.74567C200.91 4.78476 200.997 4.75241 200.999 4.71557L201.134 4.61178C201.181 4.54034 201.184 4.50349 201.231 4.43205C201.532 4.37409 201.828 4.38982 201.986 4.54618C202.065 4.62437 202.06 4.69805 202.052 4.80859C202.047 4.88227 202.087 4.92136 202.129 4.92361C202.171 4.92586 202.216 4.89126 202.263 4.81982C202.277 4.6356 202.203 4.48373 202.123 4.40555ZM205.021 4.1899C205.053 4.33952 205.172 4.4568 205.383 4.46803C205.444 4.21237 205.188 4.23573 205.021 4.1899ZM207.474 6.05864C207.419 6.24061 207.585 6.28644 207.574 6.43382C207.704 6.40371 207.677 6.1804 207.846 6.18939C207.814 6.03977 207.601 6.06538 207.474 6.05864ZM208.796 5.94407C208.672 5.90049 208.585 5.93284 208.498 5.96519C208.456 5.96294 208.411 5.99754 208.411 5.99754C208.374 5.9216 208.379 5.84791 208.429 5.73963C208.437 5.6291 208.487 5.52081 208.453 5.40803C208.455 5.37119 208.374 5.32985 208.329 5.36445C208.287 5.3622 208.239 5.43364 208.279 5.47273C208.316 5.54867 208.268 5.62011 208.26 5.73064C208.25 5.87802 208.197 6.02315 208.316 6.14042L208.313 6.17726L208.355 6.17951C208.398 6.18176 208.398 6.18176 208.44 6.184C208.482 6.18625 208.524 6.1885 208.611 6.15615C208.696 6.16064 208.741 6.12604 208.825 6.13054C208.867 6.13278 208.912 6.09819 208.915 6.06134C208.875 6.02225 208.836 5.98316 208.796 5.94407ZM220.982 5.66784L220.728 5.65436C220.644 5.64987 220.596 5.72131 220.591 5.795C220.586 5.86869 220.623 5.94462 220.707 5.94911L220.961 5.9626C221.045 5.96709 221.093 5.89565 221.098 5.82196C221.106 5.71143 221.066 5.67234 220.982 5.66784ZM226.615 7.52088C226.575 7.48179 226.49 7.4773 226.446 7.51189L226.264 7.68712C226.219 7.72172 226.213 7.79541 226.253 7.8345C226.25 7.87134 226.293 7.87359 226.335 7.87584C226.377 7.87809 226.377 7.87809 226.422 7.84349L226.604 7.66826C226.649 7.63366 226.654 7.55997 226.615 7.52088ZM227.863 7.25445C227.654 7.20637 227.644 7.35374 227.475 7.34476C227.417 7.56357 228.011 7.55819 227.863 7.25445ZM228.422 5.95278C228.25 5.98063 228.316 6.24303 228.261 6.42501C228.509 6.51218 228.742 6.82041 228.971 6.57374C229.103 5.91504 228.351 6.35581 228.422 5.95278ZM250.347 8.78367C250.31 8.70773 250.226 8.70324 250.139 8.73559C250.097 8.73334 250.099 8.6965 250.06 8.65741C249.907 8.42735 249.84 8.16495 249.46 8.14473C249.358 8.39814 249.094 8.53204 249.147 8.97866C249.223 9.09369 249.479 9.07032 249.508 9.25679C249.638 9.22669 249.82 9.05146 249.653 9.00562C249.619 8.89285 249.704 8.89734 249.788 8.90183L249.791 8.86499C249.912 8.94542 250.033 9.02585 250.115 9.06718L250.158 9.06943L250.289 9.00248C250.379 8.93329 250.427 8.86185 250.347 8.78367ZM253.824 9.37545C253.908 9.37994 253.993 9.38444 254.077 9.38893C254.082 9.31524 254.087 9.24156 254.095 9.13102C254.011 9.12653 253.926 9.12204 253.842 9.11754C253.837 9.19123 253.831 9.26492 253.824 9.37545Z" fill="#2C3972"/>
<path d="M91.8594 3.93757C91.9439 3.94207 92.0283 3.94656 92.1128 3.95105C92.1075 4.02474 92.1023 4.09843 92.097 4.17212C92.0126 4.16762 91.9281 4.16313 91.8437 4.15864C91.8489 4.08495 91.8542 4.01126 91.8594 3.93757Z" fill="#2C3972"/>
<path d="M118.002 4.69985L117.749 4.68637C117.751 4.64953 117.799 4.57809 117.844 4.54349C117.881 4.61942 117.92 4.65852 118.002 4.69985Z" fill="#2C3972"/>
<path d="M120.161 4.74076L120.164 4.70392C119.952 4.69268 119.921 4.54306 119.665 4.56642L119.667 4.52958C119.67 4.49273 119.67 4.49273 119.673 4.45589C119.926 4.46937 119.823 4.13103 120.037 4.10543C120.074 4.18136 120.108 4.29414 120.145 4.37007C120.219 4.52194 120.253 4.63472 120.288 4.7475L120.161 4.74076Z" fill="#2C3972"/>
<path d="M118.296 1.75682C118.275 2.05157 118.067 2.00349 117.898 1.99451C117.95 1.84938 118.127 1.74783 118.296 1.75682Z" fill="#2C3972"/>
</svg>
