<svg width="348" height="347" viewBox="0 0 348 347" fill="none" xmlns="http://www.w3.org/2000/svg">
<path d="M173.78 0C137.708 -4.29455e-07 102.531 11.2067 73.126 32.0657C43.7211 52.9248 21.5464 82.4024 9.67718 116.41C-2.19203 150.418 -3.16742 187.271 6.88628 221.857C16.94 256.444 37.5245 287.049 65.7849 309.43L173.78 173.5V0Z" fill="#3957DA"/>
<path d="M347.56 173.5C347.56 150.716 343.065 128.154 334.331 107.104C325.598 86.0544 312.798 66.9279 296.661 50.817C280.524 34.706 261.366 21.9261 240.282 13.2069C219.199 4.48771 196.601 -9.95935e-07 173.78 0V173.5H347.56Z" fill="#2C3972"/>
<path d="M65.2576 309.01C90.825 329.42 121.646 342.205 154.172 345.892C186.698 349.58 219.606 344.02 249.106 329.854C278.606 315.687 303.498 293.49 320.917 265.818C338.335 238.147 347.57 206.126 347.56 173.444L173.78 173.5L65.2576 309.01Z" fill="#0B1646"/>
</svg>
