<svg width="20" height="24" viewBox="0 0 20 24" fill="none" xmlns="http://www.w3.org/2000/svg">
<path d="M18.4053 13.4209L18.3966 13.4387L18.3888 13.457C17.746 14.9675 16.478 16.725 14.8728 18.4901C13.4091 20.0996 11.6967 21.6809 10 23.0433C8.30325 21.6809 6.59094 20.0996 5.12723 18.4901C3.52201 16.725 2.25395 14.9675 1.61117 13.457L1.60633 13.4456L1.60111 13.4344C1.05094 12.2514 0.75 11.0219 0.75 9.67639C0.75 4.76619 4.86445 0.75 10 0.75C15.1355 0.75 19.25 4.76619 19.25 9.67639C19.25 11.0295 18.9458 12.3169 18.4053 13.4209ZM14.4342 9.67639C14.4342 7.26564 12.4302 5.36141 10 5.36141C7.56976 5.36141 5.56579 7.26564 5.56579 9.67639C5.56579 12.0871 7.56976 13.9914 10 13.9914C12.4302 13.9914 14.4342 12.0871 14.4342 9.67639Z" stroke="white" stroke-width="1.5"/>
</svg>
